%TF.GenerationSoftware,KiCad,Pcbnew,(6.0.11)*%
%TF.CreationDate,2024-02-22T22:03:45-06:00*%
%TF.ProjectId,PicoAlt,5069636f-416c-4742-9e6b-696361645f70,rev?*%
%TF.SameCoordinates,Original*%
%TF.FileFunction,Legend,Top*%
%TF.FilePolarity,Positive*%
%FSLAX46Y46*%
G04 Gerber Fmt 4.6, Leading zero omitted, Abs format (unit mm)*
G04 Created by KiCad (PCBNEW (6.0.11)) date 2024-02-22 22:03:45*
%MOMM*%
%LPD*%
G01*
G04 APERTURE LIST*
%ADD10C,0.125000*%
%ADD11C,0.150000*%
%ADD12C,0.120000*%
G04 APERTURE END LIST*
D10*
X151831428Y-120742380D02*
X151902857Y-120766190D01*
X152021904Y-120766190D01*
X152069523Y-120742380D01*
X152093333Y-120718571D01*
X152117142Y-120670952D01*
X152117142Y-120623333D01*
X152093333Y-120575714D01*
X152069523Y-120551904D01*
X152021904Y-120528095D01*
X151926666Y-120504285D01*
X151879047Y-120480476D01*
X151855238Y-120456666D01*
X151831428Y-120409047D01*
X151831428Y-120361428D01*
X151855238Y-120313809D01*
X151879047Y-120290000D01*
X151926666Y-120266190D01*
X152045714Y-120266190D01*
X152117142Y-120290000D01*
X152283809Y-120266190D02*
X152402857Y-120766190D01*
X152498095Y-120409047D01*
X152593333Y-120766190D01*
X152712380Y-120266190D01*
X152902857Y-120766190D02*
X152902857Y-120266190D01*
X153021904Y-120266190D01*
X153093333Y-120290000D01*
X153140952Y-120337619D01*
X153164761Y-120385238D01*
X153188571Y-120480476D01*
X153188571Y-120551904D01*
X153164761Y-120647142D01*
X153140952Y-120694761D01*
X153093333Y-120742380D01*
X153021904Y-120766190D01*
X152902857Y-120766190D01*
X146992380Y-120678571D02*
X146968571Y-120702380D01*
X146897142Y-120726190D01*
X146849523Y-120726190D01*
X146778095Y-120702380D01*
X146730476Y-120654761D01*
X146706666Y-120607142D01*
X146682857Y-120511904D01*
X146682857Y-120440476D01*
X146706666Y-120345238D01*
X146730476Y-120297619D01*
X146778095Y-120250000D01*
X146849523Y-120226190D01*
X146897142Y-120226190D01*
X146968571Y-120250000D01*
X146992380Y-120273809D01*
X147444761Y-120726190D02*
X147206666Y-120726190D01*
X147206666Y-120226190D01*
X147611428Y-120726190D02*
X147611428Y-120226190D01*
X147897142Y-120726190D02*
X147682857Y-120440476D01*
X147897142Y-120226190D02*
X147611428Y-120511904D01*
X144120952Y-120236190D02*
X144430476Y-120236190D01*
X144263809Y-120426666D01*
X144335238Y-120426666D01*
X144382857Y-120450476D01*
X144406666Y-120474285D01*
X144430476Y-120521904D01*
X144430476Y-120640952D01*
X144406666Y-120688571D01*
X144382857Y-120712380D01*
X144335238Y-120736190D01*
X144192380Y-120736190D01*
X144144761Y-120712380D01*
X144120952Y-120688571D01*
X144573333Y-120236190D02*
X144740000Y-120736190D01*
X144906666Y-120236190D01*
X145025714Y-120236190D02*
X145335238Y-120236190D01*
X145168571Y-120426666D01*
X145240000Y-120426666D01*
X145287619Y-120450476D01*
X145311428Y-120474285D01*
X145335238Y-120521904D01*
X145335238Y-120640952D01*
X145311428Y-120688571D01*
X145287619Y-120712380D01*
X145240000Y-120736190D01*
X145097142Y-120736190D01*
X145049523Y-120712380D01*
X145025714Y-120688571D01*
X155673333Y-93907142D02*
X155673333Y-93669047D01*
X155816190Y-93954761D02*
X155316190Y-93788095D01*
X155816190Y-93621428D01*
X155816190Y-93454761D02*
X155316190Y-93454761D01*
X155316190Y-93335714D01*
X155340000Y-93264285D01*
X155387619Y-93216666D01*
X155435238Y-93192857D01*
X155530476Y-93169047D01*
X155601904Y-93169047D01*
X155697142Y-93192857D01*
X155744761Y-93216666D01*
X155792380Y-93264285D01*
X155816190Y-93335714D01*
X155816190Y-93454761D01*
X155768571Y-92669047D02*
X155792380Y-92692857D01*
X155816190Y-92764285D01*
X155816190Y-92811904D01*
X155792380Y-92883333D01*
X155744761Y-92930952D01*
X155697142Y-92954761D01*
X155601904Y-92978571D01*
X155530476Y-92978571D01*
X155435238Y-92954761D01*
X155387619Y-92930952D01*
X155340000Y-92883333D01*
X155316190Y-92811904D01*
X155316190Y-92764285D01*
X155340000Y-92692857D01*
X155363809Y-92669047D01*
X155316190Y-92502380D02*
X155316190Y-92192857D01*
X155506666Y-92359523D01*
X155506666Y-92288095D01*
X155530476Y-92240476D01*
X155554285Y-92216666D01*
X155601904Y-92192857D01*
X155720952Y-92192857D01*
X155768571Y-92216666D01*
X155792380Y-92240476D01*
X155816190Y-92288095D01*
X155816190Y-92430952D01*
X155792380Y-92478571D01*
X155768571Y-92502380D01*
X142326190Y-125692857D02*
X141826190Y-125692857D01*
X141826190Y-125502380D01*
X141850000Y-125454761D01*
X141873809Y-125430952D01*
X141921428Y-125407142D01*
X141992857Y-125407142D01*
X142040476Y-125430952D01*
X142064285Y-125454761D01*
X142088095Y-125502380D01*
X142088095Y-125692857D01*
X142326190Y-124907142D02*
X142088095Y-125073809D01*
X142326190Y-125192857D02*
X141826190Y-125192857D01*
X141826190Y-125002380D01*
X141850000Y-124954761D01*
X141873809Y-124930952D01*
X141921428Y-124907142D01*
X141992857Y-124907142D01*
X142040476Y-124930952D01*
X142064285Y-124954761D01*
X142088095Y-125002380D01*
X142088095Y-125192857D01*
X141826190Y-124597619D02*
X141826190Y-124502380D01*
X141850000Y-124454761D01*
X141897619Y-124407142D01*
X141992857Y-124383333D01*
X142159523Y-124383333D01*
X142254761Y-124407142D01*
X142302380Y-124454761D01*
X142326190Y-124502380D01*
X142326190Y-124597619D01*
X142302380Y-124645238D01*
X142254761Y-124692857D01*
X142159523Y-124716666D01*
X141992857Y-124716666D01*
X141897619Y-124692857D01*
X141850000Y-124645238D01*
X141826190Y-124597619D01*
X141850000Y-123907142D02*
X141826190Y-123954761D01*
X141826190Y-124026190D01*
X141850000Y-124097619D01*
X141897619Y-124145238D01*
X141945238Y-124169047D01*
X142040476Y-124192857D01*
X142111904Y-124192857D01*
X142207142Y-124169047D01*
X142254761Y-124145238D01*
X142302380Y-124097619D01*
X142326190Y-124026190D01*
X142326190Y-123978571D01*
X142302380Y-123907142D01*
X142278571Y-123883333D01*
X142111904Y-123883333D01*
X142111904Y-123978571D01*
X149689047Y-120330000D02*
X149641428Y-120306190D01*
X149570000Y-120306190D01*
X149498571Y-120330000D01*
X149450952Y-120377619D01*
X149427142Y-120425238D01*
X149403333Y-120520476D01*
X149403333Y-120591904D01*
X149427142Y-120687142D01*
X149450952Y-120734761D01*
X149498571Y-120782380D01*
X149570000Y-120806190D01*
X149617619Y-120806190D01*
X149689047Y-120782380D01*
X149712857Y-120758571D01*
X149712857Y-120591904D01*
X149617619Y-120591904D01*
X149927142Y-120806190D02*
X149927142Y-120306190D01*
X150212857Y-120806190D01*
X150212857Y-120306190D01*
X150450952Y-120806190D02*
X150450952Y-120306190D01*
X150570000Y-120306190D01*
X150641428Y-120330000D01*
X150689047Y-120377619D01*
X150712857Y-120425238D01*
X150736666Y-120520476D01*
X150736666Y-120591904D01*
X150712857Y-120687142D01*
X150689047Y-120734761D01*
X150641428Y-120782380D01*
X150570000Y-120806190D01*
X150450952Y-120806190D01*
X141970476Y-90033690D02*
X141970476Y-89533690D01*
X142160952Y-89533690D01*
X142208571Y-89557500D01*
X142232380Y-89581309D01*
X142256190Y-89628928D01*
X142256190Y-89700357D01*
X142232380Y-89747976D01*
X142208571Y-89771785D01*
X142160952Y-89795595D01*
X141970476Y-89795595D01*
X142470476Y-90033690D02*
X142470476Y-89533690D01*
X142994285Y-89986071D02*
X142970476Y-90009880D01*
X142899047Y-90033690D01*
X142851428Y-90033690D01*
X142780000Y-90009880D01*
X142732380Y-89962261D01*
X142708571Y-89914642D01*
X142684761Y-89819404D01*
X142684761Y-89747976D01*
X142708571Y-89652738D01*
X142732380Y-89605119D01*
X142780000Y-89557500D01*
X142851428Y-89533690D01*
X142899047Y-89533690D01*
X142970476Y-89557500D01*
X142994285Y-89581309D01*
X143303809Y-89533690D02*
X143399047Y-89533690D01*
X143446666Y-89557500D01*
X143494285Y-89605119D01*
X143518095Y-89700357D01*
X143518095Y-89867023D01*
X143494285Y-89962261D01*
X143446666Y-90009880D01*
X143399047Y-90033690D01*
X143303809Y-90033690D01*
X143256190Y-90009880D01*
X143208571Y-89962261D01*
X143184761Y-89867023D01*
X143184761Y-89700357D01*
X143208571Y-89605119D01*
X143256190Y-89557500D01*
X143303809Y-89533690D01*
X144089523Y-89890833D02*
X144327619Y-89890833D01*
X144041904Y-90033690D02*
X144208571Y-89533690D01*
X144375238Y-90033690D01*
X144780000Y-90033690D02*
X144541904Y-90033690D01*
X144541904Y-89533690D01*
X144875238Y-89533690D02*
X145160952Y-89533690D01*
X145018095Y-90033690D02*
X145018095Y-89533690D01*
X141541904Y-90838690D02*
X141541904Y-90338690D01*
X141660952Y-90338690D01*
X141732380Y-90362500D01*
X141780000Y-90410119D01*
X141803809Y-90457738D01*
X141827619Y-90552976D01*
X141827619Y-90624404D01*
X141803809Y-90719642D01*
X141780000Y-90767261D01*
X141732380Y-90814880D01*
X141660952Y-90838690D01*
X141541904Y-90838690D01*
X142041904Y-90576785D02*
X142208571Y-90576785D01*
X142280000Y-90838690D02*
X142041904Y-90838690D01*
X142041904Y-90338690D01*
X142280000Y-90338690D01*
X142422857Y-90338690D02*
X142589523Y-90838690D01*
X142756190Y-90338690D01*
X143470476Y-90576785D02*
X143541904Y-90600595D01*
X143565714Y-90624404D01*
X143589523Y-90672023D01*
X143589523Y-90743452D01*
X143565714Y-90791071D01*
X143541904Y-90814880D01*
X143494285Y-90838690D01*
X143303809Y-90838690D01*
X143303809Y-90338690D01*
X143470476Y-90338690D01*
X143518095Y-90362500D01*
X143541904Y-90386309D01*
X143565714Y-90433928D01*
X143565714Y-90481547D01*
X143541904Y-90529166D01*
X143518095Y-90552976D01*
X143470476Y-90576785D01*
X143303809Y-90576785D01*
X143899047Y-90338690D02*
X143994285Y-90338690D01*
X144041904Y-90362500D01*
X144089523Y-90410119D01*
X144113333Y-90505357D01*
X144113333Y-90672023D01*
X144089523Y-90767261D01*
X144041904Y-90814880D01*
X143994285Y-90838690D01*
X143899047Y-90838690D01*
X143851428Y-90814880D01*
X143803809Y-90767261D01*
X143780000Y-90672023D01*
X143780000Y-90505357D01*
X143803809Y-90410119D01*
X143851428Y-90362500D01*
X143899047Y-90338690D01*
X144303809Y-90695833D02*
X144541904Y-90695833D01*
X144256190Y-90838690D02*
X144422857Y-90338690D01*
X144589523Y-90838690D01*
X145041904Y-90838690D02*
X144875238Y-90600595D01*
X144756190Y-90838690D02*
X144756190Y-90338690D01*
X144946666Y-90338690D01*
X144994285Y-90362500D01*
X145018095Y-90386309D01*
X145041904Y-90433928D01*
X145041904Y-90505357D01*
X145018095Y-90552976D01*
X144994285Y-90576785D01*
X144946666Y-90600595D01*
X144756190Y-90600595D01*
X145256190Y-90838690D02*
X145256190Y-90338690D01*
X145375238Y-90338690D01*
X145446666Y-90362500D01*
X145494285Y-90410119D01*
X145518095Y-90457738D01*
X145541904Y-90552976D01*
X145541904Y-90624404D01*
X145518095Y-90719642D01*
X145494285Y-90767261D01*
X145446666Y-90814880D01*
X145375238Y-90838690D01*
X145256190Y-90838690D01*
X148382857Y-80706190D02*
X148097142Y-80706190D01*
X148240000Y-80706190D02*
X148240000Y-80206190D01*
X148192380Y-80277619D01*
X148144761Y-80325238D01*
X148097142Y-80349047D01*
X144392857Y-103786190D02*
X144107142Y-103786190D01*
X144250000Y-103786190D02*
X144250000Y-103286190D01*
X144202380Y-103357619D01*
X144154761Y-103405238D01*
X144107142Y-103429047D01*
X144922857Y-91666190D02*
X144637142Y-91666190D01*
X144780000Y-91666190D02*
X144780000Y-91166190D01*
X144732380Y-91237619D01*
X144684761Y-91285238D01*
X144637142Y-91309047D01*
D11*
%TO.C,J2*%
X148256666Y-71842380D02*
X148256666Y-72556666D01*
X148209047Y-72699523D01*
X148113809Y-72794761D01*
X147970952Y-72842380D01*
X147875714Y-72842380D01*
X148685238Y-71937619D02*
X148732857Y-71890000D01*
X148828095Y-71842380D01*
X149066190Y-71842380D01*
X149161428Y-71890000D01*
X149209047Y-71937619D01*
X149256666Y-72032857D01*
X149256666Y-72128095D01*
X149209047Y-72270952D01*
X148637619Y-72842380D01*
X149256666Y-72842380D01*
%TO.C,JP2*%
X143106666Y-120862380D02*
X143106666Y-121576666D01*
X143059047Y-121719523D01*
X142963809Y-121814761D01*
X142820952Y-121862380D01*
X142725714Y-121862380D01*
X143582857Y-121862380D02*
X143582857Y-120862380D01*
X143963809Y-120862380D01*
X144059047Y-120910000D01*
X144106666Y-120957619D01*
X144154285Y-121052857D01*
X144154285Y-121195714D01*
X144106666Y-121290952D01*
X144059047Y-121338571D01*
X143963809Y-121386190D01*
X143582857Y-121386190D01*
X144535238Y-120957619D02*
X144582857Y-120910000D01*
X144678095Y-120862380D01*
X144916190Y-120862380D01*
X145011428Y-120910000D01*
X145059047Y-120957619D01*
X145106666Y-121052857D01*
X145106666Y-121148095D01*
X145059047Y-121290952D01*
X144487619Y-121862380D01*
X145106666Y-121862380D01*
D10*
%TO.C,C4*%
X142868571Y-88593333D02*
X142892380Y-88617142D01*
X142916190Y-88688571D01*
X142916190Y-88736190D01*
X142892380Y-88807619D01*
X142844761Y-88855238D01*
X142797142Y-88879047D01*
X142701904Y-88902857D01*
X142630476Y-88902857D01*
X142535238Y-88879047D01*
X142487619Y-88855238D01*
X142440000Y-88807619D01*
X142416190Y-88736190D01*
X142416190Y-88688571D01*
X142440000Y-88617142D01*
X142463809Y-88593333D01*
X142582857Y-88164761D02*
X142916190Y-88164761D01*
X142392380Y-88283809D02*
X142749523Y-88402857D01*
X142749523Y-88093333D01*
%TO.C,C18*%
X153738571Y-96538571D02*
X153714761Y-96562380D01*
X153643333Y-96586190D01*
X153595714Y-96586190D01*
X153524285Y-96562380D01*
X153476666Y-96514761D01*
X153452857Y-96467142D01*
X153429047Y-96371904D01*
X153429047Y-96300476D01*
X153452857Y-96205238D01*
X153476666Y-96157619D01*
X153524285Y-96110000D01*
X153595714Y-96086190D01*
X153643333Y-96086190D01*
X153714761Y-96110000D01*
X153738571Y-96133809D01*
X154214761Y-96586190D02*
X153929047Y-96586190D01*
X154071904Y-96586190D02*
X154071904Y-96086190D01*
X154024285Y-96157619D01*
X153976666Y-96205238D01*
X153929047Y-96229047D01*
X154500476Y-96300476D02*
X154452857Y-96276666D01*
X154429047Y-96252857D01*
X154405238Y-96205238D01*
X154405238Y-96181428D01*
X154429047Y-96133809D01*
X154452857Y-96110000D01*
X154500476Y-96086190D01*
X154595714Y-96086190D01*
X154643333Y-96110000D01*
X154667142Y-96133809D01*
X154690952Y-96181428D01*
X154690952Y-96205238D01*
X154667142Y-96252857D01*
X154643333Y-96276666D01*
X154595714Y-96300476D01*
X154500476Y-96300476D01*
X154452857Y-96324285D01*
X154429047Y-96348095D01*
X154405238Y-96395714D01*
X154405238Y-96490952D01*
X154429047Y-96538571D01*
X154452857Y-96562380D01*
X154500476Y-96586190D01*
X154595714Y-96586190D01*
X154643333Y-96562380D01*
X154667142Y-96538571D01*
X154690952Y-96490952D01*
X154690952Y-96395714D01*
X154667142Y-96348095D01*
X154643333Y-96324285D01*
X154595714Y-96300476D01*
%TO.C,R7*%
X155426190Y-100530833D02*
X155188095Y-100697500D01*
X155426190Y-100816547D02*
X154926190Y-100816547D01*
X154926190Y-100626071D01*
X154950000Y-100578452D01*
X154973809Y-100554642D01*
X155021428Y-100530833D01*
X155092857Y-100530833D01*
X155140476Y-100554642D01*
X155164285Y-100578452D01*
X155188095Y-100626071D01*
X155188095Y-100816547D01*
X154926190Y-100364166D02*
X154926190Y-100030833D01*
X155426190Y-100245119D01*
%TO.C,Y1*%
X145941904Y-113508095D02*
X145941904Y-113746190D01*
X145775238Y-113246190D02*
X145941904Y-113508095D01*
X146108571Y-113246190D01*
X146537142Y-113746190D02*
X146251428Y-113746190D01*
X146394285Y-113746190D02*
X146394285Y-113246190D01*
X146346666Y-113317619D01*
X146299047Y-113365238D01*
X146251428Y-113389047D01*
%TO.C,R6*%
X154476190Y-111783333D02*
X154238095Y-111950000D01*
X154476190Y-112069047D02*
X153976190Y-112069047D01*
X153976190Y-111878571D01*
X154000000Y-111830952D01*
X154023809Y-111807142D01*
X154071428Y-111783333D01*
X154142857Y-111783333D01*
X154190476Y-111807142D01*
X154214285Y-111830952D01*
X154238095Y-111878571D01*
X154238095Y-112069047D01*
X153976190Y-111354761D02*
X153976190Y-111450000D01*
X154000000Y-111497619D01*
X154023809Y-111521428D01*
X154095238Y-111569047D01*
X154190476Y-111592857D01*
X154380952Y-111592857D01*
X154428571Y-111569047D01*
X154452380Y-111545238D01*
X154476190Y-111497619D01*
X154476190Y-111402380D01*
X154452380Y-111354761D01*
X154428571Y-111330952D01*
X154380952Y-111307142D01*
X154261904Y-111307142D01*
X154214285Y-111330952D01*
X154190476Y-111354761D01*
X154166666Y-111402380D01*
X154166666Y-111497619D01*
X154190476Y-111545238D01*
X154214285Y-111569047D01*
X154261904Y-111592857D01*
%TO.C,R9*%
X144576666Y-113136190D02*
X144410000Y-112898095D01*
X144290952Y-113136190D02*
X144290952Y-112636190D01*
X144481428Y-112636190D01*
X144529047Y-112660000D01*
X144552857Y-112683809D01*
X144576666Y-112731428D01*
X144576666Y-112802857D01*
X144552857Y-112850476D01*
X144529047Y-112874285D01*
X144481428Y-112898095D01*
X144290952Y-112898095D01*
X144814761Y-113136190D02*
X144910000Y-113136190D01*
X144957619Y-113112380D01*
X144981428Y-113088571D01*
X145029047Y-113017142D01*
X145052857Y-112921904D01*
X145052857Y-112731428D01*
X145029047Y-112683809D01*
X145005238Y-112660000D01*
X144957619Y-112636190D01*
X144862380Y-112636190D01*
X144814761Y-112660000D01*
X144790952Y-112683809D01*
X144767142Y-112731428D01*
X144767142Y-112850476D01*
X144790952Y-112898095D01*
X144814761Y-112921904D01*
X144862380Y-112945714D01*
X144957619Y-112945714D01*
X145005238Y-112921904D01*
X145029047Y-112898095D01*
X145052857Y-112850476D01*
%TO.C,R5*%
X148966190Y-112793333D02*
X148728095Y-112960000D01*
X148966190Y-113079047D02*
X148466190Y-113079047D01*
X148466190Y-112888571D01*
X148490000Y-112840952D01*
X148513809Y-112817142D01*
X148561428Y-112793333D01*
X148632857Y-112793333D01*
X148680476Y-112817142D01*
X148704285Y-112840952D01*
X148728095Y-112888571D01*
X148728095Y-113079047D01*
X148466190Y-112340952D02*
X148466190Y-112579047D01*
X148704285Y-112602857D01*
X148680476Y-112579047D01*
X148656666Y-112531428D01*
X148656666Y-112412380D01*
X148680476Y-112364761D01*
X148704285Y-112340952D01*
X148751904Y-112317142D01*
X148870952Y-112317142D01*
X148918571Y-112340952D01*
X148942380Y-112364761D01*
X148966190Y-112412380D01*
X148966190Y-112531428D01*
X148942380Y-112579047D01*
X148918571Y-112602857D01*
%TO.C,R4*%
X149306666Y-88426190D02*
X149140000Y-88188095D01*
X149020952Y-88426190D02*
X149020952Y-87926190D01*
X149211428Y-87926190D01*
X149259047Y-87950000D01*
X149282857Y-87973809D01*
X149306666Y-88021428D01*
X149306666Y-88092857D01*
X149282857Y-88140476D01*
X149259047Y-88164285D01*
X149211428Y-88188095D01*
X149020952Y-88188095D01*
X149735238Y-88092857D02*
X149735238Y-88426190D01*
X149616190Y-87902380D02*
X149497142Y-88259523D01*
X149806666Y-88259523D01*
%TO.C,R3*%
X150966666Y-92216190D02*
X150800000Y-91978095D01*
X150680952Y-92216190D02*
X150680952Y-91716190D01*
X150871428Y-91716190D01*
X150919047Y-91740000D01*
X150942857Y-91763809D01*
X150966666Y-91811428D01*
X150966666Y-91882857D01*
X150942857Y-91930476D01*
X150919047Y-91954285D01*
X150871428Y-91978095D01*
X150680952Y-91978095D01*
X151133333Y-91716190D02*
X151442857Y-91716190D01*
X151276190Y-91906666D01*
X151347619Y-91906666D01*
X151395238Y-91930476D01*
X151419047Y-91954285D01*
X151442857Y-92001904D01*
X151442857Y-92120952D01*
X151419047Y-92168571D01*
X151395238Y-92192380D01*
X151347619Y-92216190D01*
X151204761Y-92216190D01*
X151157142Y-92192380D01*
X151133333Y-92168571D01*
%TO.C,C17*%
X152558571Y-114451428D02*
X152582380Y-114475238D01*
X152606190Y-114546666D01*
X152606190Y-114594285D01*
X152582380Y-114665714D01*
X152534761Y-114713333D01*
X152487142Y-114737142D01*
X152391904Y-114760952D01*
X152320476Y-114760952D01*
X152225238Y-114737142D01*
X152177619Y-114713333D01*
X152130000Y-114665714D01*
X152106190Y-114594285D01*
X152106190Y-114546666D01*
X152130000Y-114475238D01*
X152153809Y-114451428D01*
X152606190Y-113975238D02*
X152606190Y-114260952D01*
X152606190Y-114118095D02*
X152106190Y-114118095D01*
X152177619Y-114165714D01*
X152225238Y-114213333D01*
X152249047Y-114260952D01*
X152106190Y-113808571D02*
X152106190Y-113475238D01*
X152606190Y-113689523D01*
%TO.C,C16*%
X145738571Y-116948571D02*
X145714761Y-116972380D01*
X145643333Y-116996190D01*
X145595714Y-116996190D01*
X145524285Y-116972380D01*
X145476666Y-116924761D01*
X145452857Y-116877142D01*
X145429047Y-116781904D01*
X145429047Y-116710476D01*
X145452857Y-116615238D01*
X145476666Y-116567619D01*
X145524285Y-116520000D01*
X145595714Y-116496190D01*
X145643333Y-116496190D01*
X145714761Y-116520000D01*
X145738571Y-116543809D01*
X146214761Y-116996190D02*
X145929047Y-116996190D01*
X146071904Y-116996190D02*
X146071904Y-116496190D01*
X146024285Y-116567619D01*
X145976666Y-116615238D01*
X145929047Y-116639047D01*
X146643333Y-116496190D02*
X146548095Y-116496190D01*
X146500476Y-116520000D01*
X146476666Y-116543809D01*
X146429047Y-116615238D01*
X146405238Y-116710476D01*
X146405238Y-116900952D01*
X146429047Y-116948571D01*
X146452857Y-116972380D01*
X146500476Y-116996190D01*
X146595714Y-116996190D01*
X146643333Y-116972380D01*
X146667142Y-116948571D01*
X146690952Y-116900952D01*
X146690952Y-116781904D01*
X146667142Y-116734285D01*
X146643333Y-116710476D01*
X146595714Y-116686666D01*
X146500476Y-116686666D01*
X146452857Y-116710476D01*
X146429047Y-116734285D01*
X146405238Y-116781904D01*
%TO.C,C15*%
X147068571Y-88508571D02*
X147044761Y-88532380D01*
X146973333Y-88556190D01*
X146925714Y-88556190D01*
X146854285Y-88532380D01*
X146806666Y-88484761D01*
X146782857Y-88437142D01*
X146759047Y-88341904D01*
X146759047Y-88270476D01*
X146782857Y-88175238D01*
X146806666Y-88127619D01*
X146854285Y-88080000D01*
X146925714Y-88056190D01*
X146973333Y-88056190D01*
X147044761Y-88080000D01*
X147068571Y-88103809D01*
X147544761Y-88556190D02*
X147259047Y-88556190D01*
X147401904Y-88556190D02*
X147401904Y-88056190D01*
X147354285Y-88127619D01*
X147306666Y-88175238D01*
X147259047Y-88199047D01*
X147997142Y-88056190D02*
X147759047Y-88056190D01*
X147735238Y-88294285D01*
X147759047Y-88270476D01*
X147806666Y-88246666D01*
X147925714Y-88246666D01*
X147973333Y-88270476D01*
X147997142Y-88294285D01*
X148020952Y-88341904D01*
X148020952Y-88460952D01*
X147997142Y-88508571D01*
X147973333Y-88532380D01*
X147925714Y-88556190D01*
X147806666Y-88556190D01*
X147759047Y-88532380D01*
X147735238Y-88508571D01*
%TO.C,C13*%
X142958571Y-105668571D02*
X142934761Y-105692380D01*
X142863333Y-105716190D01*
X142815714Y-105716190D01*
X142744285Y-105692380D01*
X142696666Y-105644761D01*
X142672857Y-105597142D01*
X142649047Y-105501904D01*
X142649047Y-105430476D01*
X142672857Y-105335238D01*
X142696666Y-105287619D01*
X142744285Y-105240000D01*
X142815714Y-105216190D01*
X142863333Y-105216190D01*
X142934761Y-105240000D01*
X142958571Y-105263809D01*
X143434761Y-105716190D02*
X143149047Y-105716190D01*
X143291904Y-105716190D02*
X143291904Y-105216190D01*
X143244285Y-105287619D01*
X143196666Y-105335238D01*
X143149047Y-105359047D01*
X143601428Y-105216190D02*
X143910952Y-105216190D01*
X143744285Y-105406666D01*
X143815714Y-105406666D01*
X143863333Y-105430476D01*
X143887142Y-105454285D01*
X143910952Y-105501904D01*
X143910952Y-105620952D01*
X143887142Y-105668571D01*
X143863333Y-105692380D01*
X143815714Y-105716190D01*
X143672857Y-105716190D01*
X143625238Y-105692380D01*
X143601428Y-105668571D01*
%TO.C,C12*%
X154108571Y-88178571D02*
X154084761Y-88202380D01*
X154013333Y-88226190D01*
X153965714Y-88226190D01*
X153894285Y-88202380D01*
X153846666Y-88154761D01*
X153822857Y-88107142D01*
X153799047Y-88011904D01*
X153799047Y-87940476D01*
X153822857Y-87845238D01*
X153846666Y-87797619D01*
X153894285Y-87750000D01*
X153965714Y-87726190D01*
X154013333Y-87726190D01*
X154084761Y-87750000D01*
X154108571Y-87773809D01*
X154584761Y-88226190D02*
X154299047Y-88226190D01*
X154441904Y-88226190D02*
X154441904Y-87726190D01*
X154394285Y-87797619D01*
X154346666Y-87845238D01*
X154299047Y-87869047D01*
X154775238Y-87773809D02*
X154799047Y-87750000D01*
X154846666Y-87726190D01*
X154965714Y-87726190D01*
X155013333Y-87750000D01*
X155037142Y-87773809D01*
X155060952Y-87821428D01*
X155060952Y-87869047D01*
X155037142Y-87940476D01*
X154751428Y-88226190D01*
X155060952Y-88226190D01*
%TO.C,C11*%
X155528571Y-106761428D02*
X155552380Y-106785238D01*
X155576190Y-106856666D01*
X155576190Y-106904285D01*
X155552380Y-106975714D01*
X155504761Y-107023333D01*
X155457142Y-107047142D01*
X155361904Y-107070952D01*
X155290476Y-107070952D01*
X155195238Y-107047142D01*
X155147619Y-107023333D01*
X155100000Y-106975714D01*
X155076190Y-106904285D01*
X155076190Y-106856666D01*
X155100000Y-106785238D01*
X155123809Y-106761428D01*
X155576190Y-106285238D02*
X155576190Y-106570952D01*
X155576190Y-106428095D02*
X155076190Y-106428095D01*
X155147619Y-106475714D01*
X155195238Y-106523333D01*
X155219047Y-106570952D01*
X155576190Y-105809047D02*
X155576190Y-106094761D01*
X155576190Y-105951904D02*
X155076190Y-105951904D01*
X155147619Y-105999523D01*
X155195238Y-106047142D01*
X155219047Y-106094761D01*
%TO.C,C10*%
X150658571Y-98128571D02*
X150634761Y-98152380D01*
X150563333Y-98176190D01*
X150515714Y-98176190D01*
X150444285Y-98152380D01*
X150396666Y-98104761D01*
X150372857Y-98057142D01*
X150349047Y-97961904D01*
X150349047Y-97890476D01*
X150372857Y-97795238D01*
X150396666Y-97747619D01*
X150444285Y-97700000D01*
X150515714Y-97676190D01*
X150563333Y-97676190D01*
X150634761Y-97700000D01*
X150658571Y-97723809D01*
X151134761Y-98176190D02*
X150849047Y-98176190D01*
X150991904Y-98176190D02*
X150991904Y-97676190D01*
X150944285Y-97747619D01*
X150896666Y-97795238D01*
X150849047Y-97819047D01*
X151444285Y-97676190D02*
X151491904Y-97676190D01*
X151539523Y-97700000D01*
X151563333Y-97723809D01*
X151587142Y-97771428D01*
X151610952Y-97866666D01*
X151610952Y-97985714D01*
X151587142Y-98080952D01*
X151563333Y-98128571D01*
X151539523Y-98152380D01*
X151491904Y-98176190D01*
X151444285Y-98176190D01*
X151396666Y-98152380D01*
X151372857Y-98128571D01*
X151349047Y-98080952D01*
X151325238Y-97985714D01*
X151325238Y-97866666D01*
X151349047Y-97771428D01*
X151372857Y-97723809D01*
X151396666Y-97700000D01*
X151444285Y-97676190D01*
%TO.C,C9*%
X148776666Y-111988571D02*
X148752857Y-112012380D01*
X148681428Y-112036190D01*
X148633809Y-112036190D01*
X148562380Y-112012380D01*
X148514761Y-111964761D01*
X148490952Y-111917142D01*
X148467142Y-111821904D01*
X148467142Y-111750476D01*
X148490952Y-111655238D01*
X148514761Y-111607619D01*
X148562380Y-111560000D01*
X148633809Y-111536190D01*
X148681428Y-111536190D01*
X148752857Y-111560000D01*
X148776666Y-111583809D01*
X149014761Y-112036190D02*
X149110000Y-112036190D01*
X149157619Y-112012380D01*
X149181428Y-111988571D01*
X149229047Y-111917142D01*
X149252857Y-111821904D01*
X149252857Y-111631428D01*
X149229047Y-111583809D01*
X149205238Y-111560000D01*
X149157619Y-111536190D01*
X149062380Y-111536190D01*
X149014761Y-111560000D01*
X148990952Y-111583809D01*
X148967142Y-111631428D01*
X148967142Y-111750476D01*
X148990952Y-111798095D01*
X149014761Y-111821904D01*
X149062380Y-111845714D01*
X149157619Y-111845714D01*
X149205238Y-111821904D01*
X149229047Y-111798095D01*
X149252857Y-111750476D01*
%TO.C,C8*%
X155626571Y-102699333D02*
X155650380Y-102723142D01*
X155674190Y-102794571D01*
X155674190Y-102842190D01*
X155650380Y-102913619D01*
X155602761Y-102961238D01*
X155555142Y-102985047D01*
X155459904Y-103008857D01*
X155388476Y-103008857D01*
X155293238Y-102985047D01*
X155245619Y-102961238D01*
X155198000Y-102913619D01*
X155174190Y-102842190D01*
X155174190Y-102794571D01*
X155198000Y-102723142D01*
X155221809Y-102699333D01*
X155388476Y-102413619D02*
X155364666Y-102461238D01*
X155340857Y-102485047D01*
X155293238Y-102508857D01*
X155269428Y-102508857D01*
X155221809Y-102485047D01*
X155198000Y-102461238D01*
X155174190Y-102413619D01*
X155174190Y-102318380D01*
X155198000Y-102270761D01*
X155221809Y-102246952D01*
X155269428Y-102223142D01*
X155293238Y-102223142D01*
X155340857Y-102246952D01*
X155364666Y-102270761D01*
X155388476Y-102318380D01*
X155388476Y-102413619D01*
X155412285Y-102461238D01*
X155436095Y-102485047D01*
X155483714Y-102508857D01*
X155578952Y-102508857D01*
X155626571Y-102485047D01*
X155650380Y-102461238D01*
X155674190Y-102413619D01*
X155674190Y-102318380D01*
X155650380Y-102270761D01*
X155626571Y-102246952D01*
X155578952Y-102223142D01*
X155483714Y-102223142D01*
X155436095Y-102246952D01*
X155412285Y-102270761D01*
X155388476Y-102318380D01*
%TO.C,C7*%
X149836666Y-112648571D02*
X149812857Y-112672380D01*
X149741428Y-112696190D01*
X149693809Y-112696190D01*
X149622380Y-112672380D01*
X149574761Y-112624761D01*
X149550952Y-112577142D01*
X149527142Y-112481904D01*
X149527142Y-112410476D01*
X149550952Y-112315238D01*
X149574761Y-112267619D01*
X149622380Y-112220000D01*
X149693809Y-112196190D01*
X149741428Y-112196190D01*
X149812857Y-112220000D01*
X149836666Y-112243809D01*
X150003333Y-112196190D02*
X150336666Y-112196190D01*
X150122380Y-112696190D01*
%TO.C,C6*%
X152206666Y-99218571D02*
X152182857Y-99242380D01*
X152111428Y-99266190D01*
X152063809Y-99266190D01*
X151992380Y-99242380D01*
X151944761Y-99194761D01*
X151920952Y-99147142D01*
X151897142Y-99051904D01*
X151897142Y-98980476D01*
X151920952Y-98885238D01*
X151944761Y-98837619D01*
X151992380Y-98790000D01*
X152063809Y-98766190D01*
X152111428Y-98766190D01*
X152182857Y-98790000D01*
X152206666Y-98813809D01*
X152635238Y-98766190D02*
X152540000Y-98766190D01*
X152492380Y-98790000D01*
X152468571Y-98813809D01*
X152420952Y-98885238D01*
X152397142Y-98980476D01*
X152397142Y-99170952D01*
X152420952Y-99218571D01*
X152444761Y-99242380D01*
X152492380Y-99266190D01*
X152587619Y-99266190D01*
X152635238Y-99242380D01*
X152659047Y-99218571D01*
X152682857Y-99170952D01*
X152682857Y-99051904D01*
X152659047Y-99004285D01*
X152635238Y-98980476D01*
X152587619Y-98956666D01*
X152492380Y-98956666D01*
X152444761Y-98980476D01*
X152420952Y-99004285D01*
X152397142Y-99051904D01*
%TO.C,C3*%
X147946666Y-98908571D02*
X147922857Y-98932380D01*
X147851428Y-98956190D01*
X147803809Y-98956190D01*
X147732380Y-98932380D01*
X147684761Y-98884761D01*
X147660952Y-98837142D01*
X147637142Y-98741904D01*
X147637142Y-98670476D01*
X147660952Y-98575238D01*
X147684761Y-98527619D01*
X147732380Y-98480000D01*
X147803809Y-98456190D01*
X147851428Y-98456190D01*
X147922857Y-98480000D01*
X147946666Y-98503809D01*
X148113333Y-98456190D02*
X148422857Y-98456190D01*
X148256190Y-98646666D01*
X148327619Y-98646666D01*
X148375238Y-98670476D01*
X148399047Y-98694285D01*
X148422857Y-98741904D01*
X148422857Y-98860952D01*
X148399047Y-98908571D01*
X148375238Y-98932380D01*
X148327619Y-98956190D01*
X148184761Y-98956190D01*
X148137142Y-98932380D01*
X148113333Y-98908571D01*
%TO.C,C2*%
X143248571Y-102253333D02*
X143272380Y-102277142D01*
X143296190Y-102348571D01*
X143296190Y-102396190D01*
X143272380Y-102467619D01*
X143224761Y-102515238D01*
X143177142Y-102539047D01*
X143081904Y-102562857D01*
X143010476Y-102562857D01*
X142915238Y-102539047D01*
X142867619Y-102515238D01*
X142820000Y-102467619D01*
X142796190Y-102396190D01*
X142796190Y-102348571D01*
X142820000Y-102277142D01*
X142843809Y-102253333D01*
X142843809Y-102062857D02*
X142820000Y-102039047D01*
X142796190Y-101991428D01*
X142796190Y-101872380D01*
X142820000Y-101824761D01*
X142843809Y-101800952D01*
X142891428Y-101777142D01*
X142939047Y-101777142D01*
X143010476Y-101800952D01*
X143296190Y-102086666D01*
X143296190Y-101777142D01*
%TO.C,C1*%
X148926666Y-98908571D02*
X148902857Y-98932380D01*
X148831428Y-98956190D01*
X148783809Y-98956190D01*
X148712380Y-98932380D01*
X148664761Y-98884761D01*
X148640952Y-98837142D01*
X148617142Y-98741904D01*
X148617142Y-98670476D01*
X148640952Y-98575238D01*
X148664761Y-98527619D01*
X148712380Y-98480000D01*
X148783809Y-98456190D01*
X148831428Y-98456190D01*
X148902857Y-98480000D01*
X148926666Y-98503809D01*
X149402857Y-98956190D02*
X149117142Y-98956190D01*
X149260000Y-98956190D02*
X149260000Y-98456190D01*
X149212380Y-98527619D01*
X149164761Y-98575238D01*
X149117142Y-98599047D01*
D11*
%TO.C,U3*%
X142598095Y-107132380D02*
X142598095Y-107941904D01*
X142645714Y-108037142D01*
X142693333Y-108084761D01*
X142788571Y-108132380D01*
X142979047Y-108132380D01*
X143074285Y-108084761D01*
X143121904Y-108037142D01*
X143169523Y-107941904D01*
X143169523Y-107132380D01*
X143550476Y-107132380D02*
X144169523Y-107132380D01*
X143836190Y-107513333D01*
X143979047Y-107513333D01*
X144074285Y-107560952D01*
X144121904Y-107608571D01*
X144169523Y-107703809D01*
X144169523Y-107941904D01*
X144121904Y-108037142D01*
X144074285Y-108084761D01*
X143979047Y-108132380D01*
X143693333Y-108132380D01*
X143598095Y-108084761D01*
X143550476Y-108037142D01*
%TO.C,U2*%
X141616095Y-92142380D02*
X141616095Y-92951904D01*
X141663714Y-93047142D01*
X141711333Y-93094761D01*
X141806571Y-93142380D01*
X141997047Y-93142380D01*
X142092285Y-93094761D01*
X142139904Y-93047142D01*
X142187523Y-92951904D01*
X142187523Y-92142380D01*
X142616095Y-92237619D02*
X142663714Y-92190000D01*
X142758952Y-92142380D01*
X142997047Y-92142380D01*
X143092285Y-92190000D01*
X143139904Y-92237619D01*
X143187523Y-92332857D01*
X143187523Y-92428095D01*
X143139904Y-92570952D01*
X142568476Y-93142380D01*
X143187523Y-93142380D01*
%TO.C,U1*%
X150432380Y-85171904D02*
X151241904Y-85171904D01*
X151337142Y-85124285D01*
X151384761Y-85076666D01*
X151432380Y-84981428D01*
X151432380Y-84790952D01*
X151384761Y-84695714D01*
X151337142Y-84648095D01*
X151241904Y-84600476D01*
X150432380Y-84600476D01*
X151432380Y-83600476D02*
X151432380Y-84171904D01*
X151432380Y-83886190D02*
X150432380Y-83886190D01*
X150575238Y-83981428D01*
X150670476Y-84076666D01*
X150718095Y-84171904D01*
%TO.C,SW1*%
X149336666Y-124884761D02*
X149479523Y-124932380D01*
X149717619Y-124932380D01*
X149812857Y-124884761D01*
X149860476Y-124837142D01*
X149908095Y-124741904D01*
X149908095Y-124646666D01*
X149860476Y-124551428D01*
X149812857Y-124503809D01*
X149717619Y-124456190D01*
X149527142Y-124408571D01*
X149431904Y-124360952D01*
X149384285Y-124313333D01*
X149336666Y-124218095D01*
X149336666Y-124122857D01*
X149384285Y-124027619D01*
X149431904Y-123980000D01*
X149527142Y-123932380D01*
X149765238Y-123932380D01*
X149908095Y-123980000D01*
X150241428Y-123932380D02*
X150479523Y-124932380D01*
X150670000Y-124218095D01*
X150860476Y-124932380D01*
X151098571Y-123932380D01*
X152003333Y-124932380D02*
X151431904Y-124932380D01*
X151717619Y-124932380D02*
X151717619Y-123932380D01*
X151622380Y-124075238D01*
X151527142Y-124170476D01*
X151431904Y-124218095D01*
%TO.C,JP1*%
X151262380Y-95203333D02*
X151976666Y-95203333D01*
X152119523Y-95250952D01*
X152214761Y-95346190D01*
X152262380Y-95489047D01*
X152262380Y-95584285D01*
X152262380Y-94727142D02*
X151262380Y-94727142D01*
X151262380Y-94346190D01*
X151310000Y-94250952D01*
X151357619Y-94203333D01*
X151452857Y-94155714D01*
X151595714Y-94155714D01*
X151690952Y-94203333D01*
X151738571Y-94250952D01*
X151786190Y-94346190D01*
X151786190Y-94727142D01*
X152262380Y-93203333D02*
X152262380Y-93774761D01*
X152262380Y-93489047D02*
X151262380Y-93489047D01*
X151405238Y-93584285D01*
X151500476Y-93679523D01*
X151548095Y-93774761D01*
%TO.C,J5*%
X157146666Y-128782380D02*
X157146666Y-129496666D01*
X157099047Y-129639523D01*
X157003809Y-129734761D01*
X156860952Y-129782380D01*
X156765714Y-129782380D01*
X158099047Y-128782380D02*
X157622857Y-128782380D01*
X157575238Y-129258571D01*
X157622857Y-129210952D01*
X157718095Y-129163333D01*
X157956190Y-129163333D01*
X158051428Y-129210952D01*
X158099047Y-129258571D01*
X158146666Y-129353809D01*
X158146666Y-129591904D01*
X158099047Y-129687142D01*
X158051428Y-129734761D01*
X157956190Y-129782380D01*
X157718095Y-129782380D01*
X157622857Y-129734761D01*
X157575238Y-129687142D01*
%TO.C,J4*%
X139366666Y-75862380D02*
X139366666Y-76576666D01*
X139319047Y-76719523D01*
X139223809Y-76814761D01*
X139080952Y-76862380D01*
X138985714Y-76862380D01*
X140271428Y-76195714D02*
X140271428Y-76862380D01*
X140033333Y-75814761D02*
X139795238Y-76529047D01*
X140414285Y-76529047D01*
%TO.C,J3*%
X141972380Y-119073333D02*
X142686666Y-119073333D01*
X142829523Y-119120952D01*
X142924761Y-119216190D01*
X142972380Y-119359047D01*
X142972380Y-119454285D01*
X141972380Y-118692380D02*
X141972380Y-118073333D01*
X142353333Y-118406666D01*
X142353333Y-118263809D01*
X142400952Y-118168571D01*
X142448571Y-118120952D01*
X142543809Y-118073333D01*
X142781904Y-118073333D01*
X142877142Y-118120952D01*
X142924761Y-118168571D01*
X142972380Y-118263809D01*
X142972380Y-118549523D01*
X142924761Y-118644761D01*
X142877142Y-118692380D01*
%TO.C,D2*%
X142452380Y-84808095D02*
X141452380Y-84808095D01*
X141452380Y-84570000D01*
X141500000Y-84427142D01*
X141595238Y-84331904D01*
X141690476Y-84284285D01*
X141880952Y-84236666D01*
X142023809Y-84236666D01*
X142214285Y-84284285D01*
X142309523Y-84331904D01*
X142404761Y-84427142D01*
X142452380Y-84570000D01*
X142452380Y-84808095D01*
X141547619Y-83855714D02*
X141500000Y-83808095D01*
X141452380Y-83712857D01*
X141452380Y-83474761D01*
X141500000Y-83379523D01*
X141547619Y-83331904D01*
X141642857Y-83284285D01*
X141738095Y-83284285D01*
X141880952Y-83331904D01*
X142452380Y-83903333D01*
X142452380Y-83284285D01*
D12*
%TO.C,J2*%
X142380000Y-62920000D02*
X154700000Y-62920000D01*
X142380000Y-75380000D02*
X142380000Y-79640000D01*
X147790000Y-80360000D02*
X147290000Y-79860000D01*
X142380000Y-71280000D02*
X142380000Y-62920000D01*
X154700000Y-62920000D02*
X154700000Y-71280000D01*
X154700000Y-79640000D02*
X154700000Y-75380000D01*
X142380000Y-79640000D02*
X154700000Y-79640000D01*
X147290000Y-79860000D02*
X146790000Y-80360000D01*
X146790000Y-80360000D02*
X147790000Y-80360000D01*
%TO.C,JP2*%
X142610000Y-123740000D02*
X142610000Y-122410000D01*
X142610000Y-127610000D02*
X145270000Y-127610000D01*
X142610000Y-125010000D02*
X142610000Y-127610000D01*
X142610000Y-125010000D02*
X145270000Y-125010000D01*
X142610000Y-122410000D02*
X143940000Y-122410000D01*
X145270000Y-125010000D02*
X145270000Y-127610000D01*
%TO.C,C4*%
X144750580Y-87960000D02*
X144469420Y-87960000D01*
X144750580Y-88980000D02*
X144469420Y-88980000D01*
%TO.C,C18*%
X153919420Y-98300000D02*
X154200580Y-98300000D01*
X153919420Y-97280000D02*
X154200580Y-97280000D01*
%TO.C,R7*%
X154292500Y-100192776D02*
X154292500Y-100702224D01*
X153247500Y-100192776D02*
X153247500Y-100702224D01*
%TO.C,Y1*%
X146820000Y-113460000D02*
X146820000Y-116760000D01*
X146820000Y-116760000D02*
X150820000Y-116760000D01*
%TO.C,R6*%
X153342500Y-111445276D02*
X153342500Y-111954724D01*
X152297500Y-111445276D02*
X152297500Y-111954724D01*
%TO.C,R9*%
X144207500Y-114725276D02*
X144207500Y-115234724D01*
X145252500Y-114725276D02*
X145252500Y-115234724D01*
%TO.C,R5*%
X147067500Y-111904724D02*
X147067500Y-111395276D01*
X148112500Y-111904724D02*
X148112500Y-111395276D01*
%TO.C,R4*%
X149942500Y-89855276D02*
X149942500Y-90364724D01*
X148897500Y-89855276D02*
X148897500Y-90364724D01*
%TO.C,R3*%
X150517500Y-90144724D02*
X150517500Y-89635276D01*
X151562500Y-90144724D02*
X151562500Y-89635276D01*
%TO.C,C17*%
X151860000Y-114467836D02*
X151860000Y-114252164D01*
X151140000Y-114467836D02*
X151140000Y-114252164D01*
%TO.C,C16*%
X145700000Y-115542164D02*
X145700000Y-115757836D01*
X146420000Y-115542164D02*
X146420000Y-115757836D01*
%TO.C,C15*%
X147960000Y-90430580D02*
X147960000Y-90149420D01*
X146940000Y-90430580D02*
X146940000Y-90149420D01*
%TO.C,C13*%
X143497836Y-106070000D02*
X143282164Y-106070000D01*
X143497836Y-106790000D02*
X143282164Y-106790000D01*
%TO.C,C12*%
X154000580Y-89640000D02*
X153719420Y-89640000D01*
X154000580Y-88620000D02*
X153719420Y-88620000D01*
%TO.C,C11*%
X153912164Y-106820000D02*
X154127836Y-106820000D01*
X153912164Y-106100000D02*
X154127836Y-106100000D01*
%TO.C,C10*%
X151500000Y-99840580D02*
X151500000Y-99559420D01*
X150480000Y-99840580D02*
X150480000Y-99559420D01*
%TO.C,C9*%
X148490000Y-110412164D02*
X148490000Y-110627836D01*
X149210000Y-110412164D02*
X149210000Y-110627836D01*
%TO.C,C8*%
X153942164Y-103070000D02*
X154157836Y-103070000D01*
X153942164Y-102350000D02*
X154157836Y-102350000D01*
%TO.C,C7*%
X149540000Y-110992164D02*
X149540000Y-111207836D01*
X150260000Y-110992164D02*
X150260000Y-111207836D01*
%TO.C,C6*%
X151910000Y-100407836D02*
X151910000Y-100192164D01*
X152630000Y-100407836D02*
X152630000Y-100192164D01*
%TO.C,C3*%
X148410000Y-100097836D02*
X148410000Y-99882164D01*
X147690000Y-100097836D02*
X147690000Y-99882164D01*
%TO.C,C2*%
X144320000Y-102347836D02*
X144320000Y-102132164D01*
X143600000Y-102347836D02*
X143600000Y-102132164D01*
%TO.C,C1*%
X149440000Y-100117836D02*
X149440000Y-99902164D01*
X148720000Y-100117836D02*
X148720000Y-99902164D01*
%TO.C,U3*%
X151630000Y-101800000D02*
X152280000Y-101800000D01*
X152280000Y-101800000D02*
X152280000Y-102450000D01*
X145710000Y-109020000D02*
X145060000Y-109020000D01*
X145060000Y-109020000D02*
X145060000Y-108370000D01*
X151630000Y-109020000D02*
X152280000Y-109020000D01*
X152280000Y-109020000D02*
X152280000Y-108370000D01*
X145710000Y-101800000D02*
X145060000Y-101800000D01*
%TO.C,U2*%
X147390000Y-92110000D02*
X149340000Y-92110000D01*
X147390000Y-97230000D02*
X149340000Y-97230000D01*
X147390000Y-92110000D02*
X143940000Y-92110000D01*
X147390000Y-97230000D02*
X145440000Y-97230000D01*
%TO.C,U1*%
X152790000Y-80940000D02*
X152790000Y-82200000D01*
X152790000Y-87760000D02*
X152790000Y-86500000D01*
X149030000Y-87760000D02*
X152790000Y-87760000D01*
X146780000Y-80940000D02*
X152790000Y-80940000D01*
%TO.C,SW1*%
X152920000Y-121230000D02*
X148420000Y-121230000D01*
X154170000Y-125230000D02*
X154170000Y-123730000D01*
X148420000Y-127730000D02*
X152920000Y-127730000D01*
X147170000Y-123730000D02*
X147170000Y-125230000D01*
%TO.C,JP1*%
X155070000Y-93120000D02*
X155070000Y-95720000D01*
X152410000Y-90520000D02*
X153740000Y-90520000D01*
X152410000Y-93120000D02*
X155070000Y-93120000D01*
X152410000Y-93120000D02*
X152410000Y-95720000D01*
X152410000Y-95720000D02*
X155070000Y-95720000D01*
X152410000Y-91850000D02*
X152410000Y-90520000D01*
%TO.C,J5*%
X158810000Y-127000000D02*
X158810000Y-128330000D01*
X156150000Y-125730000D02*
X156150000Y-77410000D01*
X158810000Y-77410000D02*
X156150000Y-77410000D01*
X158810000Y-125730000D02*
X158810000Y-77410000D01*
X158810000Y-128330000D02*
X157480000Y-128330000D01*
X158810000Y-125730000D02*
X156150000Y-125730000D01*
%TO.C,J4*%
X138370000Y-78740000D02*
X138370000Y-77410000D01*
X141030000Y-80010000D02*
X141030000Y-128330000D01*
X138370000Y-128330000D02*
X141030000Y-128330000D01*
X138370000Y-80010000D02*
X138370000Y-128330000D01*
X138370000Y-77410000D02*
X139700000Y-77410000D01*
X138370000Y-80010000D02*
X141030000Y-80010000D01*
%TO.C,J3*%
X146120000Y-120070000D02*
X153800000Y-120070000D01*
X143520000Y-120070000D02*
X143520000Y-118740000D01*
X146120000Y-120070000D02*
X146120000Y-117410000D01*
X153800000Y-120070000D02*
X153800000Y-117410000D01*
X144850000Y-120070000D02*
X143520000Y-120070000D01*
X146120000Y-117410000D02*
X153800000Y-117410000D01*
%TO.C,D2*%
X142850000Y-87470000D02*
X142850000Y-82070000D01*
X146150000Y-87470000D02*
X146150000Y-82070000D01*
X142850000Y-87470000D02*
X146150000Y-87470000D01*
%TD*%
M02*
