%TF.GenerationSoftware,KiCad,Pcbnew,(6.0.11)*%
%TF.CreationDate,2024-02-23T15:03:39-06:00*%
%TF.ProjectId,PicoAlt,5069636f-416c-4742-9e6b-696361645f70,rev?*%
%TF.SameCoordinates,Original*%
%TF.FileFunction,Copper,L1,Top*%
%TF.FilePolarity,Positive*%
%FSLAX46Y46*%
G04 Gerber Fmt 4.6, Leading zero omitted, Abs format (unit mm)*
G04 Created by KiCad (PCBNEW (6.0.11)) date 2024-02-23 15:03:39*
%MOMM*%
%LPD*%
G01*
G04 APERTURE LIST*
G04 Aperture macros list*
%AMRoundRect*
0 Rectangle with rounded corners*
0 $1 Rounding radius*
0 $2 $3 $4 $5 $6 $7 $8 $9 X,Y pos of 4 corners*
0 Add a 4 corners polygon primitive as box body*
4,1,4,$2,$3,$4,$5,$6,$7,$8,$9,$2,$3,0*
0 Add four circle primitives for the rounded corners*
1,1,$1+$1,$2,$3*
1,1,$1+$1,$4,$5*
1,1,$1+$1,$6,$7*
1,1,$1+$1,$8,$9*
0 Add four rect primitives between the rounded corners*
20,1,$1+$1,$2,$3,$4,$5,0*
20,1,$1+$1,$4,$5,$6,$7,0*
20,1,$1+$1,$6,$7,$8,$9,0*
20,1,$1+$1,$8,$9,$2,$3,0*%
G04 Aperture macros list end*
%TA.AperFunction,SMDPad,CuDef*%
%ADD10RoundRect,0.237500X0.237500X-0.250000X0.237500X0.250000X-0.237500X0.250000X-0.237500X-0.250000X0*%
%TD*%
%TA.AperFunction,SMDPad,CuDef*%
%ADD11RoundRect,0.237500X0.237500X-0.287500X0.237500X0.287500X-0.237500X0.287500X-0.237500X-0.287500X0*%
%TD*%
%TA.AperFunction,SMDPad,CuDef*%
%ADD12RoundRect,0.162500X0.162500X-0.437500X0.162500X0.437500X-0.162500X0.437500X-0.162500X-0.437500X0*%
%TD*%
%TA.AperFunction,SMDPad,CuDef*%
%ADD13R,1.400000X1.200000*%
%TD*%
%TA.AperFunction,SMDPad,CuDef*%
%ADD14RoundRect,0.140000X0.140000X0.170000X-0.140000X0.170000X-0.140000X-0.170000X0.140000X-0.170000X0*%
%TD*%
%TA.AperFunction,ComponentPad*%
%ADD15R,1.700000X1.700000*%
%TD*%
%TA.AperFunction,ComponentPad*%
%ADD16C,1.700000*%
%TD*%
%TA.AperFunction,ComponentPad*%
%ADD17C,3.500000*%
%TD*%
%TA.AperFunction,SMDPad,CuDef*%
%ADD18RoundRect,0.237500X-0.237500X0.250000X-0.237500X-0.250000X0.237500X-0.250000X0.237500X0.250000X0*%
%TD*%
%TA.AperFunction,SMDPad,CuDef*%
%ADD19RoundRect,0.225000X0.225000X0.250000X-0.225000X0.250000X-0.225000X-0.250000X0.225000X-0.250000X0*%
%TD*%
%TA.AperFunction,SMDPad,CuDef*%
%ADD20RoundRect,0.140000X0.170000X-0.140000X0.170000X0.140000X-0.170000X0.140000X-0.170000X-0.140000X0*%
%TD*%
%TA.AperFunction,SMDPad,CuDef*%
%ADD21RoundRect,0.225000X0.250000X-0.225000X0.250000X0.225000X-0.250000X0.225000X-0.250000X-0.225000X0*%
%TD*%
%TA.AperFunction,SMDPad,CuDef*%
%ADD22R,2.000000X1.500000*%
%TD*%
%TA.AperFunction,SMDPad,CuDef*%
%ADD23R,2.000000X3.800000*%
%TD*%
%TA.AperFunction,ComponentPad*%
%ADD24O,1.700000X1.700000*%
%TD*%
%TA.AperFunction,SMDPad,CuDef*%
%ADD25R,1.800000X2.500000*%
%TD*%
%TA.AperFunction,SMDPad,CuDef*%
%ADD26RoundRect,0.140000X-0.140000X-0.170000X0.140000X-0.170000X0.140000X0.170000X-0.140000X0.170000X0*%
%TD*%
%TA.AperFunction,SMDPad,CuDef*%
%ADD27RoundRect,0.225000X-0.225000X-0.250000X0.225000X-0.250000X0.225000X0.250000X-0.225000X0.250000X0*%
%TD*%
%TA.AperFunction,SMDPad,CuDef*%
%ADD28RoundRect,0.150000X-0.825000X-0.150000X0.825000X-0.150000X0.825000X0.150000X-0.825000X0.150000X0*%
%TD*%
%TA.AperFunction,SMDPad,CuDef*%
%ADD29RoundRect,0.140000X-0.170000X0.140000X-0.170000X-0.140000X0.170000X-0.140000X0.170000X0.140000X0*%
%TD*%
%TA.AperFunction,SMDPad,CuDef*%
%ADD30RoundRect,0.050000X-0.387500X-0.050000X0.387500X-0.050000X0.387500X0.050000X-0.387500X0.050000X0*%
%TD*%
%TA.AperFunction,SMDPad,CuDef*%
%ADD31RoundRect,0.050000X-0.050000X-0.387500X0.050000X-0.387500X0.050000X0.387500X-0.050000X0.387500X0*%
%TD*%
%TA.AperFunction,SMDPad,CuDef*%
%ADD32R,3.200000X3.200000*%
%TD*%
%TA.AperFunction,SMDPad,CuDef*%
%ADD33RoundRect,0.225000X-0.250000X0.225000X-0.250000X-0.225000X0.250000X-0.225000X0.250000X0.225000X0*%
%TD*%
%TA.AperFunction,ViaPad*%
%ADD34C,0.550000*%
%TD*%
%TA.AperFunction,Conductor*%
%ADD35C,0.130000*%
%TD*%
%TA.AperFunction,Conductor*%
%ADD36C,0.500000*%
%TD*%
%TA.AperFunction,Conductor*%
%ADD37C,0.250000*%
%TD*%
G04 APERTURE END LIST*
D10*
%TO.P,R1,2*%
%TO.N,GPIO25*%
X154820000Y-104707500D03*
%TO.P,R1,1*%
%TO.N,Net-(D1-Pad2)*%
X154820000Y-106532500D03*
%TD*%
D11*
%TO.P,D1,1,K*%
%TO.N,GND*%
X154860000Y-109825000D03*
%TO.P,D1,2,A*%
%TO.N,Net-(D1-Pad2)*%
X154860000Y-108075000D03*
%TD*%
D12*
%TO.P,SW2,1,1*%
%TO.N,Net-(R9-Pad2)*%
X143375000Y-126960000D03*
X143375000Y-122660000D03*
%TO.P,SW2,2,2*%
%TO.N,GND*%
X145525000Y-126960000D03*
X145525000Y-122660000D03*
%TD*%
%TO.P,SW1,1,1*%
%TO.N,GND*%
X151565000Y-126970000D03*
X151565000Y-122670000D03*
%TO.P,SW1,2,2*%
%TO.N,RUN*%
X153715000Y-126970000D03*
X153715000Y-122670000D03*
%TD*%
D13*
%TO.P,Y1,1,1*%
%TO.N,Net-(C16-Pad2)*%
X147720000Y-115960000D03*
%TO.P,Y1,2,2*%
%TO.N,GND*%
X149920000Y-115960000D03*
%TO.P,Y1,3,3*%
%TO.N,Net-(C17-Pad2)*%
X149920000Y-114260000D03*
%TO.P,Y1,4,4*%
%TO.N,GND*%
X147720000Y-114260000D03*
%TD*%
D14*
%TO.P,C13,1*%
%TO.N,+3.3V*%
X143870000Y-106430000D03*
%TO.P,C13,2*%
%TO.N,GND*%
X142910000Y-106430000D03*
%TD*%
D15*
%TO.P,J2,1,VBUS*%
%TO.N,VBUS*%
X147290000Y-78040000D03*
D16*
%TO.P,J2,2,D-*%
%TO.N,Net-(J2-Pad2)*%
X149790000Y-78040000D03*
%TO.P,J2,3,D+*%
%TO.N,Net-(J2-Pad3)*%
X149790000Y-76040000D03*
%TO.P,J2,4,GND*%
%TO.N,GND*%
X147290000Y-76040000D03*
D17*
%TO.P,J2,5,Shield*%
X154560000Y-73330000D03*
X142520000Y-73330000D03*
%TD*%
D18*
%TO.P,R9,1*%
%TO.N,QSPISS*%
X144730000Y-114067500D03*
%TO.P,R9,2*%
%TO.N,Net-(R9-Pad2)*%
X144730000Y-115892500D03*
%TD*%
D19*
%TO.P,C12,1*%
%TO.N,+3.3V*%
X154635000Y-89130000D03*
%TO.P,C12,2*%
%TO.N,GND*%
X153085000Y-89130000D03*
%TD*%
D10*
%TO.P,R3,1*%
%TO.N,USBP*%
X151040000Y-90802500D03*
%TO.P,R3,2*%
%TO.N,Net-(J2-Pad3)*%
X151040000Y-88977500D03*
%TD*%
D20*
%TO.P,C1,1*%
%TO.N,+3.3V*%
X149080000Y-100490000D03*
%TO.P,C1,2*%
%TO.N,GND*%
X149080000Y-99530000D03*
%TD*%
D21*
%TO.P,C10,1*%
%TO.N,+1V1*%
X150990000Y-100475000D03*
%TO.P,C10,2*%
%TO.N,GND*%
X150990000Y-98925000D03*
%TD*%
D18*
%TO.P,R6,1*%
%TO.N,RUN*%
X151720000Y-110817500D03*
%TO.P,R6,2*%
%TO.N,+3.3V*%
X151720000Y-112642500D03*
%TD*%
D22*
%TO.P,U1,1,GND*%
%TO.N,GND*%
X147730000Y-82050000D03*
%TO.P,U1,2,VO*%
%TO.N,+3.3V*%
X147730000Y-84350000D03*
D23*
X154030000Y-84350000D03*
D22*
%TO.P,U1,3,VI*%
%TO.N,+5V*%
X147730000Y-86650000D03*
%TD*%
D15*
%TO.P,J3,1,Pin_1*%
%TO.N,+3.3V*%
X144850000Y-118740000D03*
D24*
%TO.P,J3,2,Pin_2*%
%TO.N,Net-(J3-Pad2)*%
X147390000Y-118740000D03*
%TO.P,J3,3,Pin_3*%
%TO.N,GND*%
X149930000Y-118740000D03*
%TO.P,J3,4,Pin_4*%
%TO.N,Net-(J3-Pad4)*%
X152470000Y-118740000D03*
%TD*%
D19*
%TO.P,C4,1*%
%TO.N,+5V*%
X145385000Y-88470000D03*
%TO.P,C4,2*%
%TO.N,GND*%
X143835000Y-88470000D03*
%TD*%
D25*
%TO.P,D2,1,K*%
%TO.N,+5V*%
X144500000Y-86070000D03*
%TO.P,D2,2,A*%
%TO.N,VBUS*%
X144500000Y-82070000D03*
%TD*%
D18*
%TO.P,R7,1*%
%TO.N,ADCVREF*%
X153790000Y-99327500D03*
%TO.P,R7,2*%
%TO.N,+3.3V*%
X153790000Y-101152500D03*
%TD*%
D10*
%TO.P,R5,1*%
%TO.N,Net-(C17-Pad2)*%
X147590000Y-112562500D03*
%TO.P,R5,2*%
%TO.N,Net-(R5-Pad2)*%
X147590000Y-110737500D03*
%TD*%
D26*
%TO.P,C8,1*%
%TO.N,+3.3V*%
X153570000Y-102530000D03*
%TO.P,C8,2*%
%TO.N,GND*%
X154530000Y-102530000D03*
%TD*%
D21*
%TO.P,C15,1*%
%TO.N,+3.3V*%
X147450000Y-91065000D03*
%TO.P,C15,2*%
%TO.N,GND*%
X147450000Y-89515000D03*
%TD*%
D27*
%TO.P,C18,1*%
%TO.N,ADCVREF*%
X153285000Y-97790000D03*
%TO.P,C18,2*%
%TO.N,GND*%
X154835000Y-97790000D03*
%TD*%
D15*
%TO.P,JP1,1,A*%
%TO.N,Net-(J5-Pad17)*%
X153740000Y-91850000D03*
D24*
%TO.P,JP1,2,B*%
%TO.N,GPIO29*%
X153740000Y-94390000D03*
%TD*%
D28*
%TO.P,U2,1,/CS*%
%TO.N,QSPISS*%
X144915000Y-92765000D03*
%TO.P,U2,2,DO(IO1)*%
%TO.N,QSPISD1*%
X144915000Y-94035000D03*
%TO.P,U2,3,IO2*%
%TO.N,QSPISD2*%
X144915000Y-95305000D03*
%TO.P,U2,4,GND*%
%TO.N,GND*%
X144915000Y-96575000D03*
%TO.P,U2,5,DI(IO0)*%
%TO.N,QSPISD0*%
X149865000Y-96575000D03*
%TO.P,U2,6,CLK*%
%TO.N,QSPICLK*%
X149865000Y-95305000D03*
%TO.P,U2,7,IO*%
%TO.N,QSPISD3*%
X149865000Y-94035000D03*
%TO.P,U2,8,VCC*%
%TO.N,+3.3V*%
X149865000Y-92765000D03*
%TD*%
D15*
%TO.P,J5,1,Pin_1*%
%TO.N,GPIO16*%
X157480000Y-127000000D03*
D24*
%TO.P,J5,2,Pin_2*%
%TO.N,GPIO17*%
X157480000Y-124460000D03*
%TO.P,J5,3,Pin_3*%
%TO.N,GND*%
X157480000Y-121920000D03*
%TO.P,J5,4,Pin_4*%
%TO.N,GPIO18*%
X157480000Y-119380000D03*
%TO.P,J5,5,Pin_5*%
%TO.N,GPIO19*%
X157480000Y-116840000D03*
%TO.P,J5,6,Pin_6*%
%TO.N,GPIO20*%
X157480000Y-114300000D03*
%TO.P,J5,7,Pin_7*%
%TO.N,GPIO21*%
X157480000Y-111760000D03*
%TO.P,J5,8,Pin_8*%
%TO.N,GND*%
X157480000Y-109220000D03*
%TO.P,J5,9,Pin_9*%
%TO.N,GPIO22*%
X157480000Y-106680000D03*
%TO.P,J5,10,Pin_10*%
%TO.N,RUN*%
X157480000Y-104140000D03*
%TO.P,J5,11,Pin_11*%
%TO.N,GPIO26*%
X157480000Y-101600000D03*
%TO.P,J5,12,Pin_12*%
%TO.N,GPIO27*%
X157480000Y-99060000D03*
%TO.P,J5,13,Pin_13*%
%TO.N,GND*%
X157480000Y-96520000D03*
%TO.P,J5,14,Pin_14*%
%TO.N,GPIO28*%
X157480000Y-93980000D03*
%TO.P,J5,15,Pin_15*%
%TO.N,ADCVREF*%
X157480000Y-91440000D03*
%TO.P,J5,16,Pin_16*%
%TO.N,+3.3V*%
X157480000Y-88900000D03*
%TO.P,J5,17,Pin_17*%
%TO.N,Net-(J5-Pad17)*%
X157480000Y-86360000D03*
%TO.P,J5,18,Pin_18*%
%TO.N,GND*%
X157480000Y-83820000D03*
%TO.P,J5,19,Pin_19*%
%TO.N,+5V*%
X157480000Y-81280000D03*
%TO.P,J5,20,Pin_20*%
%TO.N,VBUS*%
X157480000Y-78740000D03*
%TD*%
D18*
%TO.P,R4,1*%
%TO.N,Net-(J2-Pad2)*%
X149420000Y-89197500D03*
%TO.P,R4,2*%
%TO.N,USBM*%
X149420000Y-91022500D03*
%TD*%
D29*
%TO.P,C16,1*%
%TO.N,GND*%
X146060000Y-115170000D03*
%TO.P,C16,2*%
%TO.N,Net-(C16-Pad2)*%
X146060000Y-116130000D03*
%TD*%
D30*
%TO.P,U3,1,IOVDD*%
%TO.N,+3.3V*%
X145232500Y-102810000D03*
%TO.P,U3,2,GPIO0*%
%TO.N,GPIO0*%
X145232500Y-103210000D03*
%TO.P,U3,3,GPIO1*%
%TO.N,GPIO1*%
X145232500Y-103610000D03*
%TO.P,U3,4,GPIO2*%
%TO.N,GPIO2*%
X145232500Y-104010000D03*
%TO.P,U3,5,GPIO3*%
%TO.N,GPIO3*%
X145232500Y-104410000D03*
%TO.P,U3,6,GPIO4*%
%TO.N,GPIO4*%
X145232500Y-104810000D03*
%TO.P,U3,7,GPIO5*%
%TO.N,GPIO5*%
X145232500Y-105210000D03*
%TO.P,U3,8,GPIO6*%
%TO.N,GPIO6*%
X145232500Y-105610000D03*
%TO.P,U3,9,GPIO7*%
%TO.N,GPIO7*%
X145232500Y-106010000D03*
%TO.P,U3,10,IOVDD*%
%TO.N,+3.3V*%
X145232500Y-106410000D03*
%TO.P,U3,11,GPIO8*%
%TO.N,GPIO8*%
X145232500Y-106810000D03*
%TO.P,U3,12,GPIO9*%
%TO.N,GPIO9*%
X145232500Y-107210000D03*
%TO.P,U3,13,GPIO10*%
%TO.N,GPIO10*%
X145232500Y-107610000D03*
%TO.P,U3,14,GPIO11*%
%TO.N,GPIO11*%
X145232500Y-108010000D03*
D31*
%TO.P,U3,15,GPIO12*%
%TO.N,GPIO12*%
X146070000Y-108847500D03*
%TO.P,U3,16,GPIO13*%
%TO.N,GPIO13*%
X146470000Y-108847500D03*
%TO.P,U3,17,GPIO14*%
%TO.N,GPIO14*%
X146870000Y-108847500D03*
%TO.P,U3,18,GPIO15*%
%TO.N,GPIO15*%
X147270000Y-108847500D03*
%TO.P,U3,19,TESTEN*%
%TO.N,GND*%
X147670000Y-108847500D03*
%TO.P,U3,20,XIN*%
%TO.N,Net-(C16-Pad2)*%
X148070000Y-108847500D03*
%TO.P,U3,21,XOUT*%
%TO.N,Net-(R5-Pad2)*%
X148470000Y-108847500D03*
%TO.P,U3,22,IOVDD*%
%TO.N,+3.3V*%
X148870000Y-108847500D03*
%TO.P,U3,23,DVDD*%
%TO.N,+1V1*%
X149270000Y-108847500D03*
%TO.P,U3,24,SWCLK*%
%TO.N,Net-(J3-Pad2)*%
X149670000Y-108847500D03*
%TO.P,U3,25,SWD*%
%TO.N,Net-(J3-Pad4)*%
X150070000Y-108847500D03*
%TO.P,U3,26,RUN*%
%TO.N,RUN*%
X150470000Y-108847500D03*
%TO.P,U3,27,GPIO16*%
%TO.N,GPIO16*%
X150870000Y-108847500D03*
%TO.P,U3,28,GPIO17*%
%TO.N,GPIO17*%
X151270000Y-108847500D03*
D30*
%TO.P,U3,29,GPIO18*%
%TO.N,GPIO18*%
X152107500Y-108010000D03*
%TO.P,U3,30,GPIO19*%
%TO.N,GPIO19*%
X152107500Y-107610000D03*
%TO.P,U3,31,GPIO20*%
%TO.N,GPIO20*%
X152107500Y-107210000D03*
%TO.P,U3,32,GPIO21*%
%TO.N,GPIO21*%
X152107500Y-106810000D03*
%TO.P,U3,33,IOVDD*%
%TO.N,+3.3V*%
X152107500Y-106410000D03*
%TO.P,U3,34,GPIO22*%
%TO.N,GPIO22*%
X152107500Y-106010000D03*
%TO.P,U3,35,GPIO23*%
%TO.N,GPIO23*%
X152107500Y-105610000D03*
%TO.P,U3,36,GPIO24*%
%TO.N,GPIO24*%
X152107500Y-105210000D03*
%TO.P,U3,37,GPIO25*%
%TO.N,GPIO25*%
X152107500Y-104810000D03*
%TO.P,U3,38,GPIO26_ADC0*%
%TO.N,GPIO26*%
X152107500Y-104410000D03*
%TO.P,U3,39,GPIO27_ADC1*%
%TO.N,GPIO27*%
X152107500Y-104010000D03*
%TO.P,U3,40,GPIO28_ADC2*%
%TO.N,GPIO28*%
X152107500Y-103610000D03*
%TO.P,U3,41,GPIO29_ADC3*%
%TO.N,GPIO29*%
X152107500Y-103210000D03*
%TO.P,U3,42,IOVDD*%
%TO.N,+3.3V*%
X152107500Y-102810000D03*
D31*
%TO.P,U3,43,ADC_AVDD*%
%TO.N,ADCVREF*%
X151270000Y-101972500D03*
%TO.P,U3,44,VREG_IN*%
%TO.N,+3.3V*%
X150870000Y-101972500D03*
%TO.P,U3,45,VREG_VOUT*%
%TO.N,+1V1*%
X150470000Y-101972500D03*
%TO.P,U3,46,USB_DM*%
%TO.N,USBM*%
X150070000Y-101972500D03*
%TO.P,U3,47,USB_DP*%
%TO.N,USBP*%
X149670000Y-101972500D03*
%TO.P,U3,48,USB_VDD*%
%TO.N,+3.3V*%
X149270000Y-101972500D03*
%TO.P,U3,49,IOVDD*%
X148870000Y-101972500D03*
%TO.P,U3,50,DVDD*%
%TO.N,+1V1*%
X148470000Y-101972500D03*
%TO.P,U3,51,QSPI_SD3*%
%TO.N,QSPISD3*%
X148070000Y-101972500D03*
%TO.P,U3,52,QSPI_SCLK*%
%TO.N,QSPICLK*%
X147670000Y-101972500D03*
%TO.P,U3,53,QSPI_SD0*%
%TO.N,QSPISD0*%
X147270000Y-101972500D03*
%TO.P,U3,54,QSPI_SD2*%
%TO.N,QSPISD2*%
X146870000Y-101972500D03*
%TO.P,U3,55,QSPI_SD1*%
%TO.N,QSPISD1*%
X146470000Y-101972500D03*
%TO.P,U3,56,QSPI_SS*%
%TO.N,QSPISS*%
X146070000Y-101972500D03*
D32*
%TO.P,U3,57,GND*%
%TO.N,GND*%
X148670000Y-105410000D03*
%TD*%
D20*
%TO.P,C2,1*%
%TO.N,+3.3V*%
X143960000Y-102720000D03*
%TO.P,C2,2*%
%TO.N,GND*%
X143960000Y-101760000D03*
%TD*%
%TO.P,C3,1*%
%TO.N,+1V1*%
X148050000Y-100470000D03*
%TO.P,C3,2*%
%TO.N,GND*%
X148050000Y-99510000D03*
%TD*%
D29*
%TO.P,C9,1*%
%TO.N,+3.3V*%
X148850000Y-110040000D03*
%TO.P,C9,2*%
%TO.N,GND*%
X148850000Y-111000000D03*
%TD*%
D33*
%TO.P,C5,1*%
%TO.N,+3.3V*%
X143600000Y-109155000D03*
%TO.P,C5,2*%
%TO.N,GND*%
X143600000Y-110705000D03*
%TD*%
D20*
%TO.P,C11,2*%
%TO.N,GND*%
X153500000Y-105550000D03*
%TO.P,C11,1*%
%TO.N,+3.3V*%
X153500000Y-106510000D03*
%TD*%
%TO.P,C17,1*%
%TO.N,GND*%
X151500000Y-114840000D03*
%TO.P,C17,2*%
%TO.N,Net-(C17-Pad2)*%
X151500000Y-113880000D03*
%TD*%
D29*
%TO.P,C7,1*%
%TO.N,+1V1*%
X149900000Y-110620000D03*
%TO.P,C7,2*%
%TO.N,GND*%
X149900000Y-111580000D03*
%TD*%
D15*
%TO.P,J4,1,Pin_1*%
%TO.N,GPIO0*%
X139700000Y-78740000D03*
D24*
%TO.P,J4,2,Pin_2*%
%TO.N,GPIO1*%
X139700000Y-81280000D03*
%TO.P,J4,3,Pin_3*%
%TO.N,GND*%
X139700000Y-83820000D03*
%TO.P,J4,4,Pin_4*%
%TO.N,GPIO2*%
X139700000Y-86360000D03*
%TO.P,J4,5,Pin_5*%
%TO.N,GPIO3*%
X139700000Y-88900000D03*
%TO.P,J4,6,Pin_6*%
%TO.N,GPIO4*%
X139700000Y-91440000D03*
%TO.P,J4,7,Pin_7*%
%TO.N,GPIO5*%
X139700000Y-93980000D03*
%TO.P,J4,8,Pin_8*%
%TO.N,GND*%
X139700000Y-96520000D03*
%TO.P,J4,9,Pin_9*%
%TO.N,GPIO6*%
X139700000Y-99060000D03*
%TO.P,J4,10,Pin_10*%
%TO.N,GPIO7*%
X139700000Y-101600000D03*
%TO.P,J4,11,Pin_11*%
%TO.N,GPIO8*%
X139700000Y-104140000D03*
%TO.P,J4,12,Pin_12*%
%TO.N,GPIO9*%
X139700000Y-106680000D03*
%TO.P,J4,13,Pin_13*%
%TO.N,GND*%
X139700000Y-109220000D03*
%TO.P,J4,14,Pin_14*%
%TO.N,GPIO10*%
X139700000Y-111760000D03*
%TO.P,J4,15,Pin_15*%
%TO.N,GPIO11*%
X139700000Y-114300000D03*
%TO.P,J4,16,Pin_16*%
%TO.N,GPIO12*%
X139700000Y-116840000D03*
%TO.P,J4,17,Pin_17*%
%TO.N,GPIO13*%
X139700000Y-119380000D03*
%TO.P,J4,18,Pin_18*%
%TO.N,GND*%
X139700000Y-121920000D03*
%TO.P,J4,19,Pin_19*%
%TO.N,GPIO14*%
X139700000Y-124460000D03*
%TO.P,J4,20,Pin_20*%
%TO.N,GPIO15*%
X139700000Y-127000000D03*
%TD*%
D20*
%TO.P,C6,1*%
%TO.N,+3.3V*%
X152270000Y-100780000D03*
%TO.P,C6,2*%
%TO.N,GND*%
X152270000Y-99820000D03*
%TD*%
D34*
%TO.N,GND*%
X155100000Y-110830000D03*
X153210000Y-105170000D03*
%TO.N,RUN*%
X153720000Y-104630000D03*
%TO.N,GND*%
X150540000Y-126970000D03*
X150750000Y-122670000D03*
X144470000Y-127630000D03*
X144640000Y-122030000D03*
%TO.N,+3.3V*%
X147860000Y-102900000D03*
X149310000Y-102900000D03*
X155700000Y-87080000D03*
X150870000Y-103100000D03*
%TO.N,GND*%
X148690000Y-115000000D03*
X151080000Y-115210000D03*
X146050000Y-114160000D03*
X145900000Y-80700000D03*
X144710000Y-101520000D03*
X150060000Y-112430000D03*
X142320000Y-106420000D03*
X149800000Y-104220000D03*
X155000000Y-98730000D03*
X153270000Y-88160000D03*
X153040000Y-90130000D03*
X144040000Y-101010000D03*
X147660000Y-108020000D03*
X142780000Y-110140000D03*
X152000000Y-99170000D03*
X149840000Y-105360000D03*
X148550000Y-99450000D03*
X142940000Y-87530000D03*
X147850000Y-98890000D03*
X146460000Y-88550000D03*
X144270000Y-109970000D03*
X146290000Y-82610000D03*
X146360000Y-89750000D03*
X150700000Y-99560000D03*
X149160000Y-98900000D03*
X154950000Y-96820000D03*
X147510000Y-104180000D03*
X151480000Y-99560000D03*
X155050000Y-102040000D03*
X149960000Y-106740000D03*
X144680000Y-97360000D03*
X147380000Y-105360000D03*
X147330000Y-106660000D03*
X146520000Y-96580000D03*
X148750000Y-111480000D03*
%TO.N,Net-(J2-Pad2)*%
X151090000Y-82030000D03*
%TO.N,Net-(J2-Pad3)*%
X152160000Y-82030000D03*
%TO.N,RUN*%
X151180000Y-106660000D03*
%TO.N,QSPISS*%
X145310000Y-102020000D03*
X146510000Y-107560000D03*
X146530000Y-103920000D03*
X146070000Y-110700000D03*
%TD*%
D35*
%TO.N,Net-(J3-Pad4)*%
X152800000Y-111850000D02*
X152800000Y-116700000D01*
X151000000Y-111590000D02*
X152540000Y-111590000D01*
X150820000Y-111410000D02*
X151000000Y-111590000D01*
X152540000Y-111590000D02*
X152800000Y-111850000D01*
X150070000Y-109432304D02*
X150820000Y-110182304D01*
X150820000Y-110182304D02*
X150820000Y-111410000D01*
X150070000Y-108847500D02*
X150070000Y-109432304D01*
X152800000Y-116700000D02*
X152915000Y-116815000D01*
%TO.N,Net-(J3-Pad2)*%
X152130000Y-117460000D02*
X148670000Y-117460000D01*
X152470000Y-112293353D02*
X152470000Y-117120000D01*
X150840000Y-111870000D02*
X152046647Y-111870000D01*
X152046647Y-111870000D02*
X152470000Y-112293353D01*
X150520000Y-111550000D02*
X150840000Y-111870000D01*
X149670000Y-109400000D02*
X150520000Y-110250000D01*
X150520000Y-110250000D02*
X150520000Y-111550000D01*
X149670000Y-108847500D02*
X149670000Y-109400000D01*
X152470000Y-117120000D02*
X152130000Y-117460000D01*
%TO.N,Net-(D1-Pad2)*%
X154860000Y-106572500D02*
X154820000Y-106532500D01*
X154860000Y-108075000D02*
X154860000Y-106572500D01*
%TO.N,GND*%
X154860000Y-110590000D02*
X155100000Y-110830000D01*
X154860000Y-109825000D02*
X154860000Y-110590000D01*
%TO.N,GPIO21*%
X155930000Y-111690000D02*
X155860000Y-111760000D01*
X155930000Y-109440000D02*
X155930000Y-111690000D01*
X155510000Y-109020000D02*
X155930000Y-109440000D01*
X153920000Y-109020000D02*
X155510000Y-109020000D01*
X153770000Y-108870000D02*
X153920000Y-109020000D01*
X153770000Y-108860000D02*
X153770000Y-108870000D01*
X153320000Y-108410000D02*
X153770000Y-108860000D01*
D36*
X155860000Y-111760000D02*
X157480000Y-111760000D01*
D35*
X153320000Y-108410000D02*
X153320000Y-107382304D01*
%TO.N,GPIO20*%
X152780000Y-107210000D02*
X152107500Y-107210000D01*
X153060000Y-109380000D02*
X153060000Y-107490000D01*
X154380000Y-110700000D02*
X153060000Y-109380000D01*
X154690000Y-114040000D02*
X154380000Y-113730000D01*
X154380000Y-113730000D02*
X154380000Y-110700000D01*
X155890000Y-114040000D02*
X154690000Y-114040000D01*
X153060000Y-107490000D02*
X152780000Y-107210000D01*
D36*
%TO.N,GPIO19*%
X156750000Y-116110000D02*
X155850000Y-116110000D01*
X157480000Y-116840000D02*
X156750000Y-116110000D01*
D35*
X152800000Y-109500000D02*
X152800000Y-107770000D01*
X154120000Y-110820000D02*
X152800000Y-109500000D01*
X154120000Y-114620000D02*
X154120000Y-110820000D01*
X152800000Y-107770000D02*
X152640000Y-107610000D01*
X152640000Y-107610000D02*
X152107500Y-107610000D01*
X155610000Y-116110000D02*
X154120000Y-114620000D01*
X155850000Y-116110000D02*
X155610000Y-116110000D01*
%TO.N,GPIO18*%
X154540000Y-115444608D02*
X153860000Y-114764608D01*
X153860000Y-114764608D02*
X153860000Y-110950000D01*
X152107500Y-109197500D02*
X152107500Y-108010000D01*
X154540000Y-116110000D02*
X154540000Y-115444608D01*
X156440000Y-118010000D02*
X154540000Y-116110000D01*
X153860000Y-110950000D02*
X152107500Y-109197500D01*
%TO.N,GPIO17*%
X154700000Y-121680000D02*
X156370000Y-123350000D01*
X154700000Y-117680000D02*
X154700000Y-121680000D01*
X153590000Y-114862304D02*
X154280000Y-115552304D01*
X153590000Y-111060000D02*
X153590000Y-114862304D01*
X152125000Y-109595000D02*
X153590000Y-111060000D01*
X154280000Y-115552304D02*
X154280000Y-117260000D01*
X151675000Y-109595000D02*
X152125000Y-109595000D01*
X151270000Y-109190000D02*
X151675000Y-109595000D01*
X154280000Y-117260000D02*
X154700000Y-117680000D01*
X151270000Y-108847500D02*
X151270000Y-109190000D01*
%TO.N,GPIO16*%
X154440000Y-124180000D02*
X155870000Y-125610000D01*
X154440000Y-117980000D02*
X154440000Y-124180000D01*
X154020000Y-117560000D02*
X154440000Y-117980000D01*
X154020000Y-115790000D02*
X154020000Y-117560000D01*
X153330000Y-115100000D02*
X154020000Y-115790000D01*
X153330000Y-111250000D02*
X153330000Y-115100000D01*
X151495000Y-109855000D02*
X151935000Y-109855000D01*
X151935000Y-109855000D02*
X153330000Y-111250000D01*
X150870000Y-109231482D02*
X151118518Y-109480000D01*
X151118518Y-109480000D02*
X151120000Y-109480000D01*
X151120000Y-109480000D02*
X151495000Y-109855000D01*
X150870000Y-108847500D02*
X150870000Y-109231482D01*
%TO.N,RUN*%
X153070000Y-115207696D02*
X153715000Y-115852696D01*
X153070000Y-111550000D02*
X153070000Y-115207696D01*
X152337500Y-110817500D02*
X153070000Y-111550000D01*
X151720000Y-110817500D02*
X152337500Y-110817500D01*
X153715000Y-115852696D02*
X153715000Y-122670000D01*
%TO.N,GPIO22*%
X155440000Y-105740000D02*
X155670000Y-105970000D01*
X154045000Y-106035000D02*
X154340000Y-105740000D01*
X152132500Y-106035000D02*
X154045000Y-106035000D01*
X154340000Y-105740000D02*
X155440000Y-105740000D01*
X152107500Y-106010000D02*
X152132500Y-106035000D01*
%TO.N,+3.3V*%
X153400000Y-106410000D02*
X153500000Y-106510000D01*
%TO.N,GND*%
X153500000Y-105550000D02*
X153500000Y-105460000D01*
%TO.N,+3.3V*%
X152107500Y-106410000D02*
X153400000Y-106410000D01*
%TO.N,GND*%
X153500000Y-105460000D02*
X153210000Y-105170000D01*
%TO.N,RUN*%
X155710000Y-105480000D02*
X156240000Y-104950000D01*
X154360000Y-105480000D02*
X155710000Y-105480000D01*
X153720000Y-104840000D02*
X154360000Y-105480000D01*
X153720000Y-104630000D02*
X153720000Y-104840000D01*
D36*
%TO.N,GPIO22*%
X156400000Y-106680000D02*
X157480000Y-106680000D01*
X155680000Y-105960000D02*
X156400000Y-106680000D01*
D35*
%TO.N,GPIO25*%
X154232500Y-104120000D02*
X154820000Y-104707500D01*
X152723088Y-104810000D02*
X153413088Y-104120000D01*
X152107500Y-104810000D02*
X152723088Y-104810000D01*
X153413088Y-104120000D02*
X154232500Y-104120000D01*
%TO.N,GPIO26*%
X155417022Y-103860000D02*
X156363511Y-102913511D01*
X152755392Y-104410000D02*
X153305392Y-103860000D01*
X152107500Y-104410000D02*
X152755392Y-104410000D01*
X153305392Y-103860000D02*
X155417022Y-103860000D01*
%TO.N,GPIO27*%
X156000000Y-102647696D02*
X156000000Y-100540000D01*
X155047696Y-103600000D02*
X156000000Y-102647696D01*
X156000000Y-100540000D02*
X156465000Y-100075000D01*
X153197696Y-103600000D02*
X155047696Y-103600000D01*
X152107500Y-104010000D02*
X152787696Y-104010000D01*
X152787696Y-104010000D02*
X153197696Y-103600000D01*
%TO.N,GPIO28*%
X156020000Y-95440000D02*
X156300000Y-95160000D01*
X156020000Y-99920000D02*
X156020000Y-95440000D01*
X155550000Y-102730000D02*
X155550000Y-100390000D01*
X154940000Y-103340000D02*
X155550000Y-102730000D01*
X155550000Y-100390000D02*
X156020000Y-99920000D01*
X152820000Y-103610000D02*
X153090000Y-103340000D01*
X152107500Y-103610000D02*
X152820000Y-103610000D01*
X153090000Y-103340000D02*
X154940000Y-103340000D01*
%TO.N,GPIO29*%
X154825000Y-95355000D02*
X154705000Y-95355000D01*
X155760000Y-96290000D02*
X154825000Y-95355000D01*
X155760000Y-98750000D02*
X155760000Y-96290000D01*
X154710000Y-99800000D02*
X155760000Y-98750000D01*
X154710000Y-101540000D02*
X154710000Y-99800000D01*
X154045000Y-102205000D02*
X154710000Y-101540000D01*
X152880000Y-103080000D02*
X154000000Y-103080000D01*
X154045000Y-103035000D02*
X154045000Y-102205000D01*
X152750000Y-103210000D02*
X152880000Y-103080000D01*
X152107500Y-103210000D02*
X152750000Y-103210000D01*
X154000000Y-103080000D02*
X154045000Y-103035000D01*
%TO.N,GND*%
X154560000Y-102530000D02*
X154530000Y-102530000D01*
X155050000Y-102040000D02*
X154560000Y-102530000D01*
%TO.N,+3.3V*%
X153570000Y-102530000D02*
X153570000Y-101372500D01*
X152107500Y-102810000D02*
X153290000Y-102810000D01*
X153570000Y-101372500D02*
X153790000Y-101152500D01*
X153290000Y-102810000D02*
X153570000Y-102530000D01*
%TO.N,ADCVREF*%
X152880000Y-100780000D02*
X153790000Y-99870000D01*
X153790000Y-99870000D02*
X153790000Y-99327500D01*
X152880000Y-101140000D02*
X152880000Y-100780000D01*
X152047500Y-101972500D02*
X152880000Y-101140000D01*
X151270000Y-101972500D02*
X152047500Y-101972500D01*
%TO.N,+3.3V*%
X152160000Y-88310000D02*
X154030000Y-86440000D01*
X152160000Y-98310000D02*
X152160000Y-88310000D01*
X152880000Y-99030000D02*
X152160000Y-98310000D01*
X152880000Y-100220000D02*
X152880000Y-99030000D01*
X152320000Y-100780000D02*
X152880000Y-100220000D01*
X152270000Y-100780000D02*
X152320000Y-100780000D01*
X154030000Y-86440000D02*
X154030000Y-84350000D01*
%TO.N,ADCVREF*%
X153790000Y-98295000D02*
X153285000Y-97790000D01*
X153790000Y-99327500D02*
X153790000Y-98295000D01*
%TO.N,GPIO21*%
X152747696Y-106810000D02*
X152107500Y-106810000D01*
X153320000Y-107382304D02*
X152747696Y-106810000D01*
D36*
%TO.N,GPIO20*%
X157220000Y-114040000D02*
X157480000Y-114300000D01*
X155890000Y-114040000D02*
X157220000Y-114040000D01*
%TO.N,RUN*%
X156450000Y-104740000D02*
X156240000Y-104950000D01*
X157050000Y-104140000D02*
X156450000Y-104740000D01*
%TO.N,Net-(J3-Pad4)*%
X152915000Y-118295000D02*
X152915000Y-116815000D01*
X152470000Y-118740000D02*
X152915000Y-118295000D01*
D35*
%TO.N,+3.3V*%
X152070000Y-116830000D02*
X152070000Y-112992500D01*
X151780000Y-117120000D02*
X152070000Y-116830000D01*
X152070000Y-112992500D02*
X151720000Y-112642500D01*
X147910000Y-117260000D02*
X148050000Y-117120000D01*
X146330000Y-117260000D02*
X147910000Y-117260000D01*
X148050000Y-117120000D02*
X151780000Y-117120000D01*
X149375000Y-110565000D02*
X148850000Y-110040000D01*
X149500000Y-112920000D02*
X149375000Y-112795000D01*
X151442500Y-112920000D02*
X149500000Y-112920000D01*
%TO.N,RUN*%
X151430000Y-110527500D02*
X151720000Y-110817500D01*
%TO.N,+3.3V*%
X151720000Y-112642500D02*
X151442500Y-112920000D01*
X149375000Y-112795000D02*
X149375000Y-110565000D01*
%TO.N,RUN*%
X150470000Y-108847500D02*
X150470000Y-109380000D01*
X150470000Y-109380000D02*
X151430000Y-110340000D01*
X151430000Y-110340000D02*
X151430000Y-110527500D01*
%TO.N,GND*%
X145270000Y-122660000D02*
X144640000Y-122030000D01*
X145140000Y-126960000D02*
X144470000Y-127630000D01*
%TO.N,Net-(R9-Pad2)*%
X142970000Y-122255000D02*
X143375000Y-122660000D01*
X142970000Y-117652500D02*
X142970000Y-122255000D01*
X143375000Y-122660000D02*
X143375000Y-126960000D01*
%TO.N,GND*%
X145525000Y-122660000D02*
X145270000Y-122660000D01*
%TO.N,Net-(R9-Pad2)*%
X144730000Y-115892500D02*
X142970000Y-117652500D01*
%TO.N,GND*%
X145525000Y-126960000D02*
X145140000Y-126960000D01*
X150540000Y-126970000D02*
X151565000Y-126970000D01*
X150750000Y-122670000D02*
X151565000Y-122670000D01*
%TO.N,RUN*%
X153715000Y-122670000D02*
X153715000Y-126970000D01*
D37*
%TO.N,+3.3V*%
X154030000Y-82230000D02*
X154030000Y-84350000D01*
D35*
X148300000Y-107530000D02*
X147450000Y-107530000D01*
X148870000Y-108100000D02*
X148300000Y-107530000D01*
D37*
X148390000Y-90240000D02*
X148390000Y-88480000D01*
D35*
X148870000Y-110020000D02*
X148850000Y-110040000D01*
D37*
X150210000Y-82870000D02*
X150210000Y-81810000D01*
D35*
X146000000Y-106730000D02*
X146000000Y-106680000D01*
X145232500Y-102810000D02*
X143970000Y-102810000D01*
X151210000Y-105910000D02*
X151710000Y-106410000D01*
X148870000Y-108847500D02*
X148870000Y-108100000D01*
X151210000Y-103440000D02*
X151210000Y-105910000D01*
D36*
X154030000Y-85440000D02*
X154030000Y-84350000D01*
X155700000Y-87080000D02*
X155670000Y-87080000D01*
D35*
X145730000Y-102810000D02*
X145232500Y-102810000D01*
D37*
X148390000Y-88480000D02*
X149510000Y-87360000D01*
D35*
X150870000Y-103100000D02*
X150870000Y-101972500D01*
X146870000Y-108110000D02*
X146220000Y-108110000D01*
D37*
X147565000Y-91065000D02*
X148390000Y-90240000D01*
X149510000Y-87360000D02*
X149510000Y-85770000D01*
D35*
X145916482Y-108110000D02*
X144871482Y-109155000D01*
X144871482Y-109155000D02*
X143600000Y-109155000D01*
X150870000Y-103100000D02*
X151160000Y-102810000D01*
X151120000Y-101140000D02*
X151910000Y-101140000D01*
X150870000Y-101390000D02*
X151120000Y-101140000D01*
D36*
X155670000Y-87080000D02*
X154030000Y-85440000D01*
D35*
X147450000Y-107530000D02*
X146870000Y-108110000D01*
D37*
X147450000Y-91065000D02*
X147565000Y-91065000D01*
D35*
X146000000Y-107890000D02*
X146000000Y-106730000D01*
X148870000Y-108847500D02*
X148870000Y-110020000D01*
D37*
X149510000Y-85770000D02*
X148090000Y-84350000D01*
X148090000Y-84350000D02*
X147730000Y-84350000D01*
D35*
X146220000Y-108110000D02*
X146000000Y-107890000D01*
D37*
X153060000Y-81260000D02*
X154030000Y-82230000D01*
X154030000Y-88525000D02*
X154030000Y-84350000D01*
D35*
X151710000Y-106410000D02*
X152107500Y-106410000D01*
D36*
X144850000Y-118710000D02*
X146250000Y-117310000D01*
D35*
X146000000Y-106730000D02*
X145970000Y-106700000D01*
X150870000Y-103100000D02*
X151210000Y-103440000D01*
X150870000Y-101972500D02*
X150870000Y-101390000D01*
X143970000Y-102810000D02*
X143930000Y-102770000D01*
D37*
X150210000Y-81810000D02*
X150760000Y-81260000D01*
D36*
X144850000Y-118740000D02*
X144850000Y-118710000D01*
D37*
X148730000Y-84350000D02*
X150210000Y-82870000D01*
D35*
X145232500Y-106410000D02*
X143890000Y-106410000D01*
X145970000Y-103000000D02*
X145780000Y-102810000D01*
D37*
X150760000Y-81260000D02*
X153060000Y-81260000D01*
D35*
X148870000Y-101972500D02*
X148870000Y-100700000D01*
X145970000Y-106700000D02*
X145970000Y-103000000D01*
X151160000Y-102810000D02*
X152107500Y-102810000D01*
X149310000Y-102900000D02*
X148870000Y-102460000D01*
D37*
X147730000Y-84350000D02*
X148730000Y-84350000D01*
D35*
X149270000Y-100680000D02*
X149080000Y-100490000D01*
D37*
X154635000Y-89130000D02*
X154030000Y-88525000D01*
D35*
X151910000Y-101140000D02*
X152270000Y-100780000D01*
X146000000Y-106680000D02*
X145730000Y-106410000D01*
X149270000Y-101972500D02*
X149270000Y-100680000D01*
X143890000Y-106410000D02*
X143870000Y-106430000D01*
X145730000Y-106410000D02*
X145232500Y-106410000D01*
D37*
X149150000Y-92765000D02*
X147450000Y-91065000D01*
D35*
X148870000Y-102460000D02*
X148870000Y-101972500D01*
X145780000Y-102810000D02*
X145730000Y-102810000D01*
X145820000Y-102900000D02*
X145730000Y-102810000D01*
X148870000Y-100700000D02*
X149080000Y-100490000D01*
X147860000Y-102900000D02*
X145820000Y-102900000D01*
D37*
X149865000Y-92765000D02*
X149150000Y-92765000D01*
D35*
X146220000Y-108110000D02*
X145916482Y-108110000D01*
%TO.N,GND*%
X148960000Y-115000000D02*
X149920000Y-115960000D01*
X150060000Y-112430000D02*
X150060000Y-111740000D01*
D37*
X146850000Y-82050000D02*
X147730000Y-82050000D01*
X143835000Y-88470000D02*
X143835000Y-88425000D01*
D35*
X149790000Y-105410000D02*
X149840000Y-105360000D01*
X149080000Y-98980000D02*
X149160000Y-98900000D01*
X150990000Y-99070000D02*
X151480000Y-99560000D01*
X149960000Y-106700000D02*
X149960000Y-106740000D01*
X151080000Y-115210000D02*
X150330000Y-115960000D01*
X148670000Y-105410000D02*
X147510000Y-104250000D01*
D37*
X153085000Y-89130000D02*
X153085000Y-90085000D01*
D35*
X148850000Y-111380000D02*
X148750000Y-111480000D01*
X148050000Y-99510000D02*
X148490000Y-99510000D01*
D37*
X146360000Y-89750000D02*
X146595000Y-89515000D01*
D35*
X150990000Y-98925000D02*
X150990000Y-99070000D01*
D37*
X146460000Y-88550000D02*
X146770000Y-88550000D01*
D35*
X152270000Y-99820000D02*
X152270000Y-99440000D01*
X144920000Y-96580000D02*
X144915000Y-96575000D01*
X147510000Y-104250000D02*
X147510000Y-104180000D01*
D37*
X147450000Y-89230000D02*
X147450000Y-89515000D01*
D35*
X149080000Y-99530000D02*
X149080000Y-98980000D01*
X143600000Y-110705000D02*
X143600000Y-110640000D01*
X148850000Y-111000000D02*
X148850000Y-111380000D01*
X150060000Y-111740000D02*
X149900000Y-111580000D01*
X148690000Y-115000000D02*
X148960000Y-115000000D01*
X142910000Y-106430000D02*
X142330000Y-106430000D01*
X143960000Y-101090000D02*
X144040000Y-101010000D01*
X146520000Y-96580000D02*
X144920000Y-96580000D01*
D37*
X146770000Y-88550000D02*
X147450000Y-89230000D01*
D35*
X142330000Y-106430000D02*
X142320000Y-106420000D01*
X144470000Y-101760000D02*
X144710000Y-101520000D01*
X151740000Y-99820000D02*
X151480000Y-99560000D01*
X144680000Y-96810000D02*
X144915000Y-96575000D01*
D37*
X146290000Y-82610000D02*
X146850000Y-82050000D01*
D35*
X154835000Y-97790000D02*
X154835000Y-98565000D01*
X150330000Y-115960000D02*
X149920000Y-115960000D01*
X148490000Y-99510000D02*
X148550000Y-99450000D01*
X149080000Y-99530000D02*
X148630000Y-99530000D01*
D37*
X147250000Y-82050000D02*
X145900000Y-80700000D01*
D35*
X148670000Y-105410000D02*
X149960000Y-106700000D01*
D37*
X146050000Y-114160000D02*
X146060000Y-114170000D01*
X143835000Y-88425000D02*
X142940000Y-87530000D01*
D35*
X147670000Y-108847500D02*
X147670000Y-108030000D01*
X147720000Y-114260000D02*
X147950000Y-114260000D01*
D37*
X153085000Y-88345000D02*
X153270000Y-88160000D01*
D35*
X148630000Y-99530000D02*
X148550000Y-99450000D01*
X148670000Y-105410000D02*
X149790000Y-105410000D01*
X148620000Y-105360000D02*
X147380000Y-105360000D01*
D37*
X146595000Y-89515000D02*
X147450000Y-89515000D01*
D35*
X154835000Y-98565000D02*
X155000000Y-98730000D01*
D37*
X153085000Y-89130000D02*
X153085000Y-88345000D01*
D35*
X148050000Y-99510000D02*
X148050000Y-99090000D01*
X152270000Y-99440000D02*
X152000000Y-99170000D01*
X143345000Y-110705000D02*
X142780000Y-110140000D01*
X147950000Y-114260000D02*
X148690000Y-115000000D01*
X150990000Y-98925000D02*
X150990000Y-99270000D01*
D37*
X146060000Y-114170000D02*
X146060000Y-115170000D01*
D35*
X148670000Y-105410000D02*
X148670000Y-105350000D01*
X154835000Y-96935000D02*
X154950000Y-96820000D01*
X151450000Y-114840000D02*
X151080000Y-115210000D01*
X147670000Y-108030000D02*
X147660000Y-108020000D01*
X150990000Y-99270000D02*
X150700000Y-99560000D01*
D37*
X147730000Y-82050000D02*
X147250000Y-82050000D01*
D35*
X143960000Y-101760000D02*
X143960000Y-101090000D01*
D37*
X153085000Y-90085000D02*
X153040000Y-90130000D01*
D35*
X144680000Y-97360000D02*
X144680000Y-96810000D01*
X148050000Y-99090000D02*
X147850000Y-98890000D01*
X143600000Y-110640000D02*
X144270000Y-109970000D01*
X148580000Y-105410000D02*
X147330000Y-106660000D01*
X143600000Y-110705000D02*
X143345000Y-110705000D01*
X143960000Y-101760000D02*
X144470000Y-101760000D01*
X148670000Y-105410000D02*
X148580000Y-105410000D01*
X152270000Y-99820000D02*
X151740000Y-99820000D01*
X148670000Y-105350000D02*
X149800000Y-104220000D01*
X151500000Y-114840000D02*
X151450000Y-114840000D01*
X148670000Y-105410000D02*
X148620000Y-105360000D01*
X154835000Y-97790000D02*
X154835000Y-96935000D01*
%TO.N,+1V1*%
X149270000Y-109460000D02*
X149900000Y-110090000D01*
X149440000Y-108070000D02*
X150270000Y-108070000D01*
X149167035Y-103450000D02*
X149710000Y-103450000D01*
X149970000Y-103190000D02*
X149970000Y-102960000D01*
X149970000Y-102960000D02*
X150460000Y-102470000D01*
X149710000Y-103450000D02*
X149970000Y-103190000D01*
X148470000Y-101972500D02*
X148470000Y-102752965D01*
X150460000Y-102470000D02*
X150460000Y-101982500D01*
X150470000Y-101972500D02*
X150470000Y-100995000D01*
X150270000Y-108070000D02*
X150640000Y-107700000D01*
X150640000Y-107700000D02*
X150640000Y-103630000D01*
X148470000Y-101972500D02*
X148470000Y-100890000D01*
X149900000Y-110090000D02*
X149900000Y-110620000D01*
X149970000Y-102960000D02*
X150640000Y-103630000D01*
X149270000Y-108847500D02*
X149270000Y-109460000D01*
X148470000Y-102752965D02*
X149167035Y-103450000D01*
X149270000Y-108847500D02*
X149270000Y-108240000D01*
X149270000Y-108240000D02*
X149440000Y-108070000D01*
X150470000Y-100995000D02*
X150990000Y-100475000D01*
X148470000Y-100890000D02*
X148050000Y-100470000D01*
X150460000Y-101982500D02*
X150470000Y-101972500D01*
D37*
%TO.N,+5V*%
X149100000Y-83120000D02*
X146660000Y-83120000D01*
X150560000Y-80540000D02*
X149620000Y-81480000D01*
X146660000Y-83120000D02*
X145950000Y-83830000D01*
D36*
X155260000Y-80590000D02*
X155280000Y-80610000D01*
D37*
X145950000Y-83830000D02*
X145950000Y-84770000D01*
X144500000Y-87585000D02*
X144500000Y-86070000D01*
X144650000Y-86070000D02*
X144500000Y-86070000D01*
X147730000Y-86650000D02*
X145080000Y-86650000D01*
X149620000Y-82600000D02*
X149100000Y-83120000D01*
X149620000Y-81480000D02*
X149620000Y-82600000D01*
X155210000Y-80540000D02*
X150560000Y-80540000D01*
X145950000Y-84770000D02*
X144650000Y-86070000D01*
D36*
X156810000Y-80610000D02*
X157480000Y-81280000D01*
X155280000Y-80610000D02*
X156810000Y-80610000D01*
D37*
X145385000Y-88470000D02*
X144500000Y-87585000D01*
X145080000Y-86650000D02*
X144500000Y-86070000D01*
X155260000Y-80590000D02*
X155210000Y-80540000D01*
D35*
%TO.N,Net-(C16-Pad2)*%
X147040000Y-110020000D02*
X146630000Y-110430000D01*
X147470000Y-110020000D02*
X147040000Y-110020000D01*
X147720000Y-115960000D02*
X146520000Y-115960000D01*
X148070000Y-109420000D02*
X147470000Y-110020000D01*
X146520000Y-115960000D02*
X146160000Y-116320000D01*
X146630000Y-110430000D02*
X146630000Y-114870000D01*
X148070000Y-108847500D02*
X148070000Y-109420000D01*
X146630000Y-114870000D02*
X147720000Y-115960000D01*
%TO.N,Net-(C17-Pad2)*%
X147590000Y-112562500D02*
X148222500Y-112562500D01*
X151500000Y-113880000D02*
X151120000Y-114260000D01*
X148222500Y-112562500D02*
X149920000Y-114260000D01*
X151120000Y-114260000D02*
X149920000Y-114260000D01*
%TO.N,ADCVREF*%
X152440000Y-95500000D02*
X152440000Y-93640000D01*
X153285000Y-96345000D02*
X152440000Y-95500000D01*
X155800000Y-93120000D02*
X156390000Y-92530000D01*
D36*
X157480000Y-91440000D02*
X156400000Y-92520000D01*
D35*
X152960000Y-93120000D02*
X155800000Y-93120000D01*
X156390000Y-92530000D02*
X156390000Y-92520000D01*
X152440000Y-93640000D02*
X152960000Y-93120000D01*
D36*
X156400000Y-92520000D02*
X156390000Y-92520000D01*
D35*
X153285000Y-97790000D02*
X153285000Y-96345000D01*
D36*
%TO.N,VBUS*%
X157480000Y-78740000D02*
X156590000Y-79630000D01*
D37*
X147330000Y-78080000D02*
X147290000Y-78040000D01*
X144500000Y-82070000D02*
X144500000Y-81020000D01*
D36*
X156590000Y-79630000D02*
X148880000Y-79630000D01*
X148880000Y-79630000D02*
X147290000Y-78040000D01*
D37*
X147290000Y-78230000D02*
X147290000Y-78040000D01*
X144500000Y-81020000D02*
X147290000Y-78230000D01*
%TO.N,Net-(J2-Pad2)*%
X151220000Y-82160000D02*
X151220000Y-87397500D01*
X151090000Y-82030000D02*
X151220000Y-82160000D01*
X151220000Y-87397500D02*
X149420000Y-89197500D01*
%TO.N,Net-(J2-Pad3)*%
X152230000Y-87787500D02*
X151040000Y-88977500D01*
X152230000Y-82100000D02*
X152230000Y-87787500D01*
X152160000Y-82030000D02*
X152230000Y-82100000D01*
D36*
%TO.N,GPIO0*%
X139700000Y-78740000D02*
X140240000Y-78740000D01*
D35*
X143490000Y-103210000D02*
X143060000Y-102780000D01*
X142450000Y-87327035D02*
X142470000Y-87307035D01*
X142470000Y-87307035D02*
X142470000Y-80970000D01*
X145232500Y-103210000D02*
X143490000Y-103210000D01*
X143060000Y-99616912D02*
X142890000Y-99446912D01*
X143060000Y-102780000D02*
X143060000Y-99616912D01*
X142890000Y-99446912D02*
X142890000Y-94730000D01*
X142890000Y-94730000D02*
X142450000Y-94290000D01*
X142470000Y-80970000D02*
X141200000Y-79700000D01*
X142450000Y-94290000D02*
X142450000Y-87327035D01*
D36*
X140240000Y-78740000D02*
X141200000Y-79700000D01*
D35*
%TO.N,GPIO1*%
X142070000Y-94470000D02*
X142070000Y-83440000D01*
X143340000Y-103480000D02*
X142800000Y-102940000D01*
X145232500Y-103610000D02*
X144848518Y-103610000D01*
X142630000Y-99554608D02*
X142630000Y-95030000D01*
X144718518Y-103480000D02*
X143340000Y-103480000D01*
X142800000Y-102940000D02*
X142800000Y-99724608D01*
X142070000Y-83440000D02*
X142050000Y-83420000D01*
D36*
X139700000Y-81280000D02*
X139960000Y-81280000D01*
D35*
X142800000Y-99724608D02*
X142630000Y-99554608D01*
X142050000Y-83370000D02*
X140790000Y-82110000D01*
X144848518Y-103610000D02*
X144718518Y-103480000D01*
D36*
X139960000Y-81280000D02*
X140790000Y-82110000D01*
D35*
X142630000Y-95030000D02*
X142070000Y-94470000D01*
X142050000Y-83420000D02*
X142050000Y-83370000D01*
%TO.N,GPIO2*%
X141770000Y-88280000D02*
X140670000Y-87180000D01*
X144708518Y-103870000D02*
X143362304Y-103870000D01*
X142540000Y-100010000D02*
X142280000Y-99750000D01*
X142540000Y-103047696D02*
X142540000Y-100010000D01*
X141770000Y-94760000D02*
X141770000Y-88280000D01*
X142280000Y-99750000D02*
X142280000Y-95270000D01*
X144848518Y-104010000D02*
X144708518Y-103870000D01*
D36*
X139850000Y-86360000D02*
X140670000Y-87180000D01*
D35*
X145232500Y-104010000D02*
X144848518Y-104010000D01*
X143362304Y-103870000D02*
X142540000Y-103047696D01*
D36*
X139700000Y-86360000D02*
X139850000Y-86360000D01*
D35*
X142280000Y-95270000D02*
X141770000Y-94760000D01*
%TO.N,GPIO3*%
X142280000Y-103250000D02*
X142280000Y-100160000D01*
X141510000Y-94950000D02*
X141510000Y-90620000D01*
X144658518Y-104220000D02*
X143250000Y-104220000D01*
D36*
X139700000Y-88900000D02*
X140620000Y-89820000D01*
D35*
X142280000Y-100160000D02*
X141960000Y-99840000D01*
X140710000Y-89820000D02*
X140660000Y-89820000D01*
X144848518Y-104410000D02*
X144658518Y-104220000D01*
X145232500Y-104410000D02*
X144848518Y-104410000D01*
X143250000Y-104220000D02*
X142280000Y-103250000D01*
X141510000Y-90620000D02*
X140710000Y-89820000D01*
X141960000Y-95400000D02*
X141510000Y-94950000D01*
X141960000Y-99840000D02*
X141960000Y-95400000D01*
D36*
X140620000Y-89820000D02*
X140660000Y-89820000D01*
D35*
%TO.N,GPIO4*%
X143140000Y-104560000D02*
X142020000Y-103440000D01*
X144848518Y-104810000D02*
X144598518Y-104560000D01*
X141230000Y-95200000D02*
X141230000Y-92940000D01*
X141230000Y-92940000D02*
X140820000Y-92530000D01*
X142020000Y-103440000D02*
X142020000Y-100470000D01*
D36*
X139700000Y-91440000D02*
X140790000Y-92530000D01*
X140790000Y-92530000D02*
X140820000Y-92530000D01*
D35*
X141660000Y-95630000D02*
X141230000Y-95200000D01*
X144598518Y-104560000D02*
X143140000Y-104560000D01*
X145232500Y-104810000D02*
X144848518Y-104810000D01*
X141660000Y-100110000D02*
X141660000Y-95630000D01*
X142020000Y-100470000D02*
X141660000Y-100110000D01*
D36*
%TO.N,GPIO5*%
X139700000Y-94350000D02*
X140520000Y-95170000D01*
D35*
X141760000Y-100970000D02*
X141240000Y-100450000D01*
X141240000Y-100450000D02*
X141240000Y-95890000D01*
X141760000Y-103570000D02*
X141760000Y-100970000D01*
X141240000Y-95890000D02*
X140520000Y-95170000D01*
X145232500Y-105210000D02*
X144848518Y-105210000D01*
D36*
X139700000Y-93980000D02*
X139700000Y-94350000D01*
D35*
X144458518Y-104820000D02*
X143010000Y-104820000D01*
X143010000Y-104820000D02*
X141760000Y-103570000D01*
X144848518Y-105210000D02*
X144458518Y-104820000D01*
D36*
%TO.N,GPIO6*%
X139700000Y-99060000D02*
X139700000Y-99500000D01*
D35*
X144830000Y-105610000D02*
X144410000Y-105190000D01*
X144410000Y-105190000D02*
X142970000Y-105190000D01*
X141500000Y-103720000D02*
X141500000Y-101300000D01*
X142970000Y-105190000D02*
X141500000Y-103720000D01*
D36*
X139700000Y-99500000D02*
X140500000Y-100300000D01*
D35*
X145232500Y-105610000D02*
X144830000Y-105610000D01*
X141500000Y-101300000D02*
X140500000Y-100300000D01*
%TO.N,GPIO7*%
X145232500Y-106010000D02*
X144790000Y-106010000D01*
X144430000Y-105650000D02*
X143020000Y-105650000D01*
X142440000Y-105070000D02*
X142440000Y-105027696D01*
X144790000Y-106010000D02*
X144430000Y-105650000D01*
D36*
X139700000Y-101600000D02*
X140150000Y-101600000D01*
D35*
X143020000Y-105650000D02*
X142440000Y-105070000D01*
X142440000Y-105027696D02*
X141110000Y-103697696D01*
D36*
X140150000Y-101600000D02*
X140920000Y-102370000D01*
D35*
X141110000Y-103697696D02*
X141110000Y-102560000D01*
X141110000Y-102560000D02*
X140920000Y-102370000D01*
%TO.N,GPIO8*%
X144053762Y-107030000D02*
X142200000Y-107030000D01*
X141770000Y-106600000D02*
X141770000Y-105970000D01*
X145232500Y-106810000D02*
X144273762Y-106810000D01*
X141770000Y-105970000D02*
X140730000Y-104930000D01*
X144273762Y-106810000D02*
X144053762Y-107030000D01*
D36*
X139700000Y-104140000D02*
X139940000Y-104140000D01*
D35*
X142200000Y-107030000D02*
X141770000Y-106600000D01*
D36*
X139940000Y-104140000D02*
X140730000Y-104930000D01*
D35*
%TO.N,GPIO9*%
X144110000Y-107420000D02*
X142050000Y-107420000D01*
X142050000Y-107420000D02*
X141310000Y-106680000D01*
D36*
X139700000Y-106680000D02*
X141240000Y-106680000D01*
D35*
X144320000Y-107210000D02*
X144110000Y-107420000D01*
X145232500Y-107210000D02*
X144320000Y-107210000D01*
%TO.N,GPIO10*%
X142560000Y-108250000D02*
X141570000Y-109240000D01*
X140930000Y-110490000D02*
X140590000Y-110830000D01*
X141570000Y-109860000D02*
X140940000Y-110490000D01*
D36*
X139700000Y-111760000D02*
X140590000Y-110870000D01*
D35*
X141570000Y-109240000D02*
X141570000Y-109860000D01*
D36*
X140590000Y-110870000D02*
X140590000Y-110830000D01*
D35*
X140940000Y-110490000D02*
X140930000Y-110490000D01*
X145232500Y-107610000D02*
X144470000Y-107610000D01*
X144470000Y-107610000D02*
X143830000Y-108250000D01*
X143830000Y-108250000D02*
X142560000Y-108250000D01*
%TO.N,GPIO11*%
X144640000Y-108010000D02*
X144140000Y-108510000D01*
X144140000Y-108510000D02*
X142990000Y-108510000D01*
X142290000Y-111710000D02*
X140740000Y-113260000D01*
X142990000Y-108510000D02*
X142290000Y-109210000D01*
X142290000Y-109210000D02*
X142290000Y-111710000D01*
D36*
X139700000Y-114300000D02*
X140740000Y-113260000D01*
D35*
X145232500Y-108010000D02*
X144640000Y-108010000D01*
%TO.N,GPIO12*%
X146070000Y-108847500D02*
X146070000Y-109150000D01*
X145830000Y-109390000D02*
X145583947Y-109390000D01*
D36*
X140680000Y-115860000D02*
X140680000Y-115850000D01*
D35*
X142860000Y-113152304D02*
X142860000Y-113675000D01*
X146070000Y-109150000D02*
X145830000Y-109390000D01*
X142860000Y-113675000D02*
X140685000Y-115850000D01*
D36*
X139700000Y-116840000D02*
X140680000Y-115860000D01*
D35*
X144680000Y-110293947D02*
X144680000Y-111332304D01*
X144680000Y-111332304D02*
X142860000Y-113152304D01*
X145583947Y-109390000D02*
X144680000Y-110293947D01*
X140685000Y-115850000D02*
X140680000Y-115850000D01*
D36*
%TO.N,GPIO13*%
X139700000Y-119380000D02*
X140900000Y-118180000D01*
D35*
X143120000Y-115960000D02*
X140900000Y-118180000D01*
X143120000Y-113260000D02*
X143120000Y-115960000D01*
X144940000Y-110401643D02*
X144940000Y-111440000D01*
X146470000Y-109231482D02*
X146051482Y-109650000D01*
X144940000Y-111440000D02*
X143120000Y-113260000D01*
X146470000Y-108847500D02*
X146470000Y-109231482D01*
X145691643Y-109650000D02*
X144940000Y-110401643D01*
X146051482Y-109650000D02*
X145691643Y-109650000D01*
%TO.N,GPIO14*%
X142449999Y-117437109D02*
X142450000Y-119640000D01*
X142450000Y-119640000D02*
X141080000Y-121010000D01*
X145200000Y-111580000D02*
X143400000Y-113380000D01*
X143400000Y-113380000D02*
X143400000Y-116487108D01*
D36*
X140990000Y-123170000D02*
X141010000Y-123170000D01*
D35*
X146870000Y-109380000D02*
X146340000Y-109910000D01*
X146870000Y-108847500D02*
X146870000Y-109380000D01*
X141080000Y-121010000D02*
X141080000Y-123080000D01*
X145200000Y-110509339D02*
X145200000Y-111580000D01*
D36*
X139700000Y-124460000D02*
X140990000Y-123170000D01*
D35*
X143400000Y-116487108D02*
X142449999Y-117437109D01*
X145799339Y-109910000D02*
X145200000Y-110509339D01*
X146340000Y-109910000D02*
X145799339Y-109910000D01*
%TO.N,GPIO15*%
X141650000Y-125090000D02*
X140900000Y-125840000D01*
X143690000Y-116564804D02*
X142709999Y-117544805D01*
X145907035Y-110170000D02*
X145460000Y-110617035D01*
X147270000Y-109400000D02*
X146500000Y-110170000D01*
X141650000Y-121880000D02*
X141650000Y-125090000D01*
D36*
X139700000Y-127000000D02*
X140860000Y-125840000D01*
D35*
X140900000Y-125840000D02*
X140860000Y-125840000D01*
X146500000Y-110170000D02*
X145907035Y-110170000D01*
X142710000Y-120820000D02*
X141650000Y-121880000D01*
X142709999Y-117544805D02*
X142710000Y-120820000D01*
X147270000Y-108847500D02*
X147270000Y-109400000D01*
X145460000Y-110617035D02*
X145460000Y-111710000D01*
X143690000Y-113480000D02*
X143690000Y-116564804D01*
X145460000Y-111710000D02*
X143690000Y-113480000D01*
D36*
X140860000Y-125840000D02*
X140870000Y-125840000D01*
%TO.N,GPIO16*%
X157260000Y-127000000D02*
X155870000Y-125610000D01*
X157480000Y-127000000D02*
X157260000Y-127000000D01*
%TO.N,GPIO17*%
X157480000Y-124460000D02*
X156370000Y-123350000D01*
%TO.N,GPIO18*%
X156440000Y-118010000D02*
X157480000Y-119050000D01*
X157480000Y-119050000D02*
X157480000Y-119380000D01*
%TO.N,RUN*%
X157480000Y-104140000D02*
X157050000Y-104140000D01*
D35*
X150470000Y-108463518D02*
X151033518Y-107900000D01*
X151090000Y-107900000D02*
X151180000Y-107810000D01*
X151180000Y-107810000D02*
X151180000Y-106660000D01*
X150470000Y-108847500D02*
X150470000Y-108463518D01*
X151033518Y-107900000D02*
X151090000Y-107900000D01*
D36*
%TO.N,GPIO26*%
X157480000Y-101600000D02*
X157480000Y-101797022D01*
X157480000Y-101797022D02*
X156363511Y-102913511D01*
%TO.N,GPIO27*%
X157480000Y-99060000D02*
X156465000Y-100075000D01*
%TO.N,GPIO28*%
X157480000Y-93980000D02*
X156300000Y-95160000D01*
%TO.N,GPIO29*%
X153740000Y-94390000D02*
X154705000Y-95355000D01*
D35*
%TO.N,USBP*%
X151090000Y-90852500D02*
X151040000Y-90802500D01*
X149670000Y-101972500D02*
X149670000Y-98380000D01*
X151620000Y-94540000D02*
X151090000Y-94010000D01*
X151000000Y-98000000D02*
X151620000Y-97380000D01*
X150050000Y-98000000D02*
X151000000Y-98000000D01*
X151620000Y-97380000D02*
X151620000Y-94540000D01*
X151090000Y-94010000D02*
X151090000Y-90852500D01*
X149670000Y-98380000D02*
X150050000Y-98000000D01*
%TO.N,USBM*%
X151700000Y-94252304D02*
X151700000Y-91241647D01*
X150370000Y-98260000D02*
X151690000Y-98260000D01*
X151900000Y-98050000D02*
X151900000Y-94452304D01*
X151440000Y-89890000D02*
X150100000Y-89890000D01*
X151710000Y-91231647D02*
X151710000Y-90160000D01*
X151700000Y-91241647D02*
X151710000Y-91231647D01*
X150070000Y-101972500D02*
X150070000Y-98560000D01*
X150070000Y-98560000D02*
X150370000Y-98260000D01*
X150100000Y-89890000D02*
X149420000Y-90570000D01*
X149420000Y-90570000D02*
X149420000Y-91022500D01*
X151710000Y-90160000D02*
X151440000Y-89890000D01*
X151900000Y-94452304D02*
X151700000Y-94252304D01*
X151690000Y-98260000D02*
X151900000Y-98050000D01*
%TO.N,Net-(R5-Pad2)*%
X148470000Y-109520000D02*
X147590000Y-110400000D01*
X148470000Y-108847500D02*
X148470000Y-109520000D01*
X147590000Y-110400000D02*
X147590000Y-110737500D01*
%TO.N,QSPISS*%
X145410000Y-101510000D02*
X145410000Y-101920000D01*
X146070000Y-110700000D02*
X146070000Y-112840000D01*
X145410000Y-101920000D02*
X145310000Y-102020000D01*
X145872500Y-101972500D02*
X145340000Y-101440000D01*
X146070000Y-101972500D02*
X145872500Y-101972500D01*
X145340000Y-101440000D02*
X143150000Y-99250000D01*
X143150000Y-99250000D02*
X143150000Y-93740000D01*
X146530000Y-107540000D02*
X146510000Y-107560000D01*
X143150000Y-93740000D02*
X144125000Y-92765000D01*
X145340000Y-101440000D02*
X145410000Y-101510000D01*
X144125000Y-92765000D02*
X144915000Y-92765000D01*
X144842500Y-114067500D02*
X144730000Y-114067500D01*
X146530000Y-103920000D02*
X146530000Y-107540000D01*
X146070000Y-112840000D02*
X144842500Y-114067500D01*
%TO.N,QSPISD1*%
X146470000Y-101440000D02*
X146470000Y-101972500D01*
X144915000Y-94035000D02*
X144145000Y-94035000D01*
X143410000Y-94770000D02*
X143410000Y-99110000D01*
X145530000Y-101230000D02*
X146260000Y-101230000D01*
X146260000Y-101230000D02*
X146470000Y-101440000D01*
X143410000Y-99110000D02*
X145530000Y-101230000D01*
X144145000Y-94035000D02*
X143410000Y-94770000D01*
%TO.N,QSPISD2*%
X146470000Y-100940000D02*
X146870000Y-101340000D01*
X145680000Y-100940000D02*
X146470000Y-100940000D01*
X144335000Y-95305000D02*
X143670000Y-95970000D01*
X146870000Y-101340000D02*
X146870000Y-101972500D01*
X143670000Y-98930000D02*
X145680000Y-100940000D01*
X144915000Y-95305000D02*
X144335000Y-95305000D01*
X143670000Y-95970000D02*
X143670000Y-98930000D01*
%TO.N,QSPISD0*%
X146540000Y-100642304D02*
X146540000Y-97902965D01*
X146540000Y-97902965D02*
X147867965Y-96575000D01*
X147867965Y-96575000D02*
X149865000Y-96575000D01*
X147270000Y-101372304D02*
X146540000Y-100642304D01*
X147270000Y-101972500D02*
X147270000Y-101372304D01*
%TO.N,QSPICLK*%
X151080000Y-95650000D02*
X150735000Y-95305000D01*
X146830000Y-98200000D02*
X147680000Y-97350000D01*
X147680000Y-97350000D02*
X150790000Y-97350000D01*
X146830000Y-100520000D02*
X146830000Y-98200000D01*
X151080000Y-97060000D02*
X151080000Y-95650000D01*
X150735000Y-95305000D02*
X149865000Y-95305000D01*
X147670000Y-101360000D02*
X146830000Y-100520000D01*
X147670000Y-101972500D02*
X147670000Y-101360000D01*
X150790000Y-97350000D02*
X151080000Y-97060000D01*
%TO.N,QSPISD3*%
X148250000Y-97720000D02*
X150850000Y-97720000D01*
X147160000Y-100410000D02*
X147160000Y-98810000D01*
X148070000Y-101320000D02*
X147160000Y-100410000D01*
X148070000Y-101972500D02*
X148070000Y-101320000D01*
X151340000Y-97230000D02*
X151340000Y-94740000D01*
X150850000Y-97720000D02*
X151340000Y-97230000D01*
X150635000Y-94035000D02*
X149865000Y-94035000D01*
X151340000Y-94740000D02*
X150635000Y-94035000D01*
X147160000Y-98810000D02*
X148250000Y-97720000D01*
D36*
%TO.N,Net-(J3-Pad2)*%
X148510000Y-117620000D02*
X148690000Y-117620000D01*
X147390000Y-118740000D02*
X148510000Y-117620000D01*
D35*
%TO.N,Net-(J5-Pad17)*%
X155580000Y-88260000D02*
X156410000Y-87430000D01*
D36*
X153740000Y-91850000D02*
X154180000Y-91850000D01*
X157480000Y-86360000D02*
X156410000Y-87430000D01*
D35*
X155580000Y-90440000D02*
X155580000Y-88260000D01*
D36*
X154180000Y-91850000D02*
X155530000Y-90500000D01*
%TD*%
M02*
