%TF.GenerationSoftware,KiCad,Pcbnew,(6.0.11)*%
%TF.CreationDate,2024-02-23T15:03:39-06:00*%
%TF.ProjectId,PicoAlt,5069636f-416c-4742-9e6b-696361645f70,rev?*%
%TF.SameCoordinates,Original*%
%TF.FileFunction,Copper,L2,Bot*%
%TF.FilePolarity,Positive*%
%FSLAX46Y46*%
G04 Gerber Fmt 4.6, Leading zero omitted, Abs format (unit mm)*
G04 Created by KiCad (PCBNEW (6.0.11)) date 2024-02-23 15:03:39*
%MOMM*%
%LPD*%
G01*
G04 APERTURE LIST*
%TA.AperFunction,ComponentPad*%
%ADD10R,1.700000X1.700000*%
%TD*%
%TA.AperFunction,ComponentPad*%
%ADD11C,1.700000*%
%TD*%
%TA.AperFunction,ComponentPad*%
%ADD12C,3.500000*%
%TD*%
%TA.AperFunction,ComponentPad*%
%ADD13O,1.700000X1.700000*%
%TD*%
%TA.AperFunction,ViaPad*%
%ADD14C,0.550000*%
%TD*%
%TA.AperFunction,Conductor*%
%ADD15C,0.130000*%
%TD*%
%TA.AperFunction,Conductor*%
%ADD16C,0.500000*%
%TD*%
%TA.AperFunction,Conductor*%
%ADD17C,0.250000*%
%TD*%
G04 APERTURE END LIST*
D10*
%TO.P,J2,1,VBUS*%
%TO.N,VBUS*%
X147290000Y-78040000D03*
D11*
%TO.P,J2,2,D-*%
%TO.N,Net-(J2-Pad2)*%
X149790000Y-78040000D03*
%TO.P,J2,3,D+*%
%TO.N,Net-(J2-Pad3)*%
X149790000Y-76040000D03*
%TO.P,J2,4,GND*%
%TO.N,GND*%
X147290000Y-76040000D03*
D12*
%TO.P,J2,5,Shield*%
X154560000Y-73330000D03*
X142520000Y-73330000D03*
%TD*%
D10*
%TO.P,J3,1,Pin_1*%
%TO.N,+3.3V*%
X144850000Y-118740000D03*
D13*
%TO.P,J3,2,Pin_2*%
%TO.N,Net-(J3-Pad2)*%
X147390000Y-118740000D03*
%TO.P,J3,3,Pin_3*%
%TO.N,GND*%
X149930000Y-118740000D03*
%TO.P,J3,4,Pin_4*%
%TO.N,Net-(J3-Pad4)*%
X152470000Y-118740000D03*
%TD*%
D10*
%TO.P,JP1,1,A*%
%TO.N,Net-(J5-Pad17)*%
X153740000Y-91850000D03*
D13*
%TO.P,JP1,2,B*%
%TO.N,GPIO29*%
X153740000Y-94390000D03*
%TD*%
D10*
%TO.P,J5,1,Pin_1*%
%TO.N,GPIO16*%
X157480000Y-127000000D03*
D13*
%TO.P,J5,2,Pin_2*%
%TO.N,GPIO17*%
X157480000Y-124460000D03*
%TO.P,J5,3,Pin_3*%
%TO.N,GND*%
X157480000Y-121920000D03*
%TO.P,J5,4,Pin_4*%
%TO.N,GPIO18*%
X157480000Y-119380000D03*
%TO.P,J5,5,Pin_5*%
%TO.N,GPIO19*%
X157480000Y-116840000D03*
%TO.P,J5,6,Pin_6*%
%TO.N,GPIO20*%
X157480000Y-114300000D03*
%TO.P,J5,7,Pin_7*%
%TO.N,GPIO21*%
X157480000Y-111760000D03*
%TO.P,J5,8,Pin_8*%
%TO.N,GND*%
X157480000Y-109220000D03*
%TO.P,J5,9,Pin_9*%
%TO.N,GPIO22*%
X157480000Y-106680000D03*
%TO.P,J5,10,Pin_10*%
%TO.N,RUN*%
X157480000Y-104140000D03*
%TO.P,J5,11,Pin_11*%
%TO.N,GPIO26*%
X157480000Y-101600000D03*
%TO.P,J5,12,Pin_12*%
%TO.N,GPIO27*%
X157480000Y-99060000D03*
%TO.P,J5,13,Pin_13*%
%TO.N,GND*%
X157480000Y-96520000D03*
%TO.P,J5,14,Pin_14*%
%TO.N,GPIO28*%
X157480000Y-93980000D03*
%TO.P,J5,15,Pin_15*%
%TO.N,ADCVREF*%
X157480000Y-91440000D03*
%TO.P,J5,16,Pin_16*%
%TO.N,+3.3V*%
X157480000Y-88900000D03*
%TO.P,J5,17,Pin_17*%
%TO.N,Net-(J5-Pad17)*%
X157480000Y-86360000D03*
%TO.P,J5,18,Pin_18*%
%TO.N,GND*%
X157480000Y-83820000D03*
%TO.P,J5,19,Pin_19*%
%TO.N,+5V*%
X157480000Y-81280000D03*
%TO.P,J5,20,Pin_20*%
%TO.N,VBUS*%
X157480000Y-78740000D03*
%TD*%
D10*
%TO.P,J4,1,Pin_1*%
%TO.N,GPIO0*%
X139700000Y-78740000D03*
D13*
%TO.P,J4,2,Pin_2*%
%TO.N,GPIO1*%
X139700000Y-81280000D03*
%TO.P,J4,3,Pin_3*%
%TO.N,GND*%
X139700000Y-83820000D03*
%TO.P,J4,4,Pin_4*%
%TO.N,GPIO2*%
X139700000Y-86360000D03*
%TO.P,J4,5,Pin_5*%
%TO.N,GPIO3*%
X139700000Y-88900000D03*
%TO.P,J4,6,Pin_6*%
%TO.N,GPIO4*%
X139700000Y-91440000D03*
%TO.P,J4,7,Pin_7*%
%TO.N,GPIO5*%
X139700000Y-93980000D03*
%TO.P,J4,8,Pin_8*%
%TO.N,GND*%
X139700000Y-96520000D03*
%TO.P,J4,9,Pin_9*%
%TO.N,GPIO6*%
X139700000Y-99060000D03*
%TO.P,J4,10,Pin_10*%
%TO.N,GPIO7*%
X139700000Y-101600000D03*
%TO.P,J4,11,Pin_11*%
%TO.N,GPIO8*%
X139700000Y-104140000D03*
%TO.P,J4,12,Pin_12*%
%TO.N,GPIO9*%
X139700000Y-106680000D03*
%TO.P,J4,13,Pin_13*%
%TO.N,GND*%
X139700000Y-109220000D03*
%TO.P,J4,14,Pin_14*%
%TO.N,GPIO10*%
X139700000Y-111760000D03*
%TO.P,J4,15,Pin_15*%
%TO.N,GPIO11*%
X139700000Y-114300000D03*
%TO.P,J4,16,Pin_16*%
%TO.N,GPIO12*%
X139700000Y-116840000D03*
%TO.P,J4,17,Pin_17*%
%TO.N,GPIO13*%
X139700000Y-119380000D03*
%TO.P,J4,18,Pin_18*%
%TO.N,GND*%
X139700000Y-121920000D03*
%TO.P,J4,19,Pin_19*%
%TO.N,GPIO14*%
X139700000Y-124460000D03*
%TO.P,J4,20,Pin_20*%
%TO.N,GPIO15*%
X139700000Y-127000000D03*
%TD*%
D14*
%TO.N,GND*%
X155100000Y-110830000D03*
X153210000Y-105170000D03*
%TO.N,RUN*%
X153720000Y-104630000D03*
%TO.N,GND*%
X150540000Y-126970000D03*
X150750000Y-122670000D03*
X144470000Y-127630000D03*
X144640000Y-122030000D03*
%TO.N,+3.3V*%
X147860000Y-102900000D03*
X149310000Y-102900000D03*
X155700000Y-87080000D03*
X150870000Y-103100000D03*
%TO.N,GND*%
X148690000Y-115000000D03*
X151080000Y-115210000D03*
X146050000Y-114160000D03*
X145900000Y-80700000D03*
X144710000Y-101520000D03*
X150060000Y-112430000D03*
X142320000Y-106420000D03*
X149800000Y-104220000D03*
X155000000Y-98730000D03*
X153270000Y-88160000D03*
X153040000Y-90130000D03*
X144040000Y-101010000D03*
X147660000Y-108020000D03*
X142780000Y-110140000D03*
X152000000Y-99170000D03*
X149840000Y-105360000D03*
X148550000Y-99450000D03*
X142940000Y-87530000D03*
X147850000Y-98890000D03*
X146460000Y-88550000D03*
X144270000Y-109970000D03*
X146290000Y-82610000D03*
X146360000Y-89750000D03*
X150700000Y-99560000D03*
X149160000Y-98900000D03*
X154950000Y-96820000D03*
X147510000Y-104180000D03*
X151480000Y-99560000D03*
X155050000Y-102040000D03*
X149960000Y-106740000D03*
X144680000Y-97360000D03*
X147380000Y-105360000D03*
X147330000Y-106660000D03*
X146520000Y-96580000D03*
X148750000Y-111480000D03*
%TO.N,Net-(J2-Pad2)*%
X151090000Y-82030000D03*
%TO.N,Net-(J2-Pad3)*%
X152160000Y-82030000D03*
%TO.N,RUN*%
X151180000Y-106660000D03*
%TO.N,QSPISS*%
X145310000Y-102020000D03*
X146510000Y-107560000D03*
X146530000Y-103920000D03*
X146070000Y-110700000D03*
%TD*%
D15*
%TO.N,RUN*%
X151180000Y-106320000D02*
X151180000Y-106660000D01*
X153600000Y-104510000D02*
X152990000Y-104510000D01*
X153720000Y-104630000D02*
X153600000Y-104510000D01*
X152990000Y-104510000D02*
X151180000Y-106320000D01*
%TO.N,+3.3V*%
X147860000Y-102900000D02*
X149310000Y-102900000D01*
D16*
X157480000Y-88900000D02*
X157480000Y-88860000D01*
X157480000Y-88860000D02*
X155700000Y-87080000D01*
D15*
X150670000Y-102900000D02*
X150870000Y-103100000D01*
X149310000Y-102900000D02*
X150670000Y-102900000D01*
D17*
%TO.N,Net-(J2-Pad2)*%
X151090000Y-82030000D02*
X151100000Y-82020000D01*
X151100000Y-82020000D02*
X151100000Y-79350000D01*
X151100000Y-79350000D02*
X149790000Y-78040000D01*
%TO.N,Net-(J2-Pad3)*%
X152160000Y-82030000D02*
X152210000Y-81980000D01*
X152210000Y-78460000D02*
X149790000Y-76040000D01*
X152210000Y-81980000D02*
X152210000Y-78460000D01*
D15*
%TO.N,QSPISS*%
X146530000Y-103240000D02*
X145310000Y-102020000D01*
X146510000Y-107560000D02*
X146510000Y-110260000D01*
X146530000Y-103920000D02*
X146530000Y-103240000D01*
X146510000Y-110260000D02*
X146070000Y-110700000D01*
%TD*%
%TA.AperFunction,Conductor*%
%TO.N,GND*%
G36*
X142279080Y-70855502D02*
G01*
X142325573Y-70909158D01*
X142335677Y-70979432D01*
X142306183Y-71044012D01*
X142246457Y-71082396D01*
X142227402Y-71086422D01*
X142220601Y-71087317D01*
X141938383Y-71143454D01*
X141930420Y-71145588D01*
X141657953Y-71238078D01*
X141650349Y-71241228D01*
X141392282Y-71368492D01*
X141385145Y-71372613D01*
X141145901Y-71532470D01*
X141139361Y-71537488D01*
X141124926Y-71550147D01*
X141116528Y-71563386D01*
X141122362Y-71573151D01*
X142507190Y-72957980D01*
X142521131Y-72965592D01*
X142522966Y-72965461D01*
X142529580Y-72961210D01*
X143915884Y-71574905D01*
X143923399Y-71561144D01*
X143916941Y-71551784D01*
X143900639Y-71537488D01*
X143894099Y-71532470D01*
X143654856Y-71372613D01*
X143647719Y-71368492D01*
X143389651Y-71241228D01*
X143382047Y-71238078D01*
X143109580Y-71145588D01*
X143101617Y-71143454D01*
X142819399Y-71087317D01*
X142812598Y-71086422D01*
X142747670Y-71057702D01*
X142708577Y-70998437D01*
X142707730Y-70927446D01*
X142745399Y-70867266D01*
X142809623Y-70837005D01*
X142829041Y-70835500D01*
X154250959Y-70835500D01*
X154319080Y-70855502D01*
X154365573Y-70909158D01*
X154375677Y-70979432D01*
X154346183Y-71044012D01*
X154286457Y-71082396D01*
X154267402Y-71086422D01*
X154260601Y-71087317D01*
X153978383Y-71143454D01*
X153970420Y-71145588D01*
X153697953Y-71238078D01*
X153690349Y-71241228D01*
X153432282Y-71368492D01*
X153425145Y-71372613D01*
X153185901Y-71532470D01*
X153179361Y-71537488D01*
X153164926Y-71550147D01*
X153156528Y-71563386D01*
X153162362Y-71573151D01*
X154547190Y-72957980D01*
X154561131Y-72965592D01*
X154562966Y-72965461D01*
X154569580Y-72961210D01*
X155955884Y-71574905D01*
X155963399Y-71561144D01*
X155956941Y-71551784D01*
X155940639Y-71537488D01*
X155934099Y-71532470D01*
X155694856Y-71372613D01*
X155687719Y-71368492D01*
X155429651Y-71241228D01*
X155422047Y-71238078D01*
X155149580Y-71145588D01*
X155141617Y-71143454D01*
X154859399Y-71087317D01*
X154852598Y-71086422D01*
X154787670Y-71057702D01*
X154748577Y-70998437D01*
X154747730Y-70927446D01*
X154785399Y-70867266D01*
X154849623Y-70837005D01*
X154869041Y-70835500D01*
X158273500Y-70835500D01*
X158341621Y-70855502D01*
X158388114Y-70909158D01*
X158399500Y-70961500D01*
X158399500Y-77672089D01*
X158379498Y-77740210D01*
X158325842Y-77786703D01*
X158255568Y-77796807D01*
X158206265Y-77778651D01*
X158190057Y-77768424D01*
X158027350Y-77665764D01*
X157822421Y-77584006D01*
X157816761Y-77582880D01*
X157816757Y-77582879D01*
X157611691Y-77542089D01*
X157611688Y-77542089D01*
X157606024Y-77540962D01*
X157600249Y-77540886D01*
X157600245Y-77540886D01*
X157489504Y-77539437D01*
X157385406Y-77538074D01*
X157379709Y-77539053D01*
X157379708Y-77539053D01*
X157173654Y-77574459D01*
X157173653Y-77574459D01*
X157167957Y-77575438D01*
X156960957Y-77651804D01*
X156955996Y-77654756D01*
X156955995Y-77654756D01*
X156920644Y-77675788D01*
X156771341Y-77764614D01*
X156605457Y-77910090D01*
X156468863Y-78083360D01*
X156366131Y-78278620D01*
X156300703Y-78489333D01*
X156274770Y-78708440D01*
X156289200Y-78928604D01*
X156290621Y-78934200D01*
X156290622Y-78934205D01*
X156330154Y-79089858D01*
X156343511Y-79142452D01*
X156345928Y-79147694D01*
X156345928Y-79147695D01*
X156385740Y-79234054D01*
X156435883Y-79342821D01*
X156563222Y-79523002D01*
X156721264Y-79676961D01*
X156726060Y-79680166D01*
X156726063Y-79680168D01*
X156810261Y-79736427D01*
X156904717Y-79799540D01*
X156910020Y-79801818D01*
X156910023Y-79801820D01*
X157089507Y-79878932D01*
X157107436Y-79886635D01*
X157113071Y-79887910D01*
X157113074Y-79887911D01*
X157114484Y-79888230D01*
X157115083Y-79888564D01*
X157118562Y-79889694D01*
X157118340Y-79890377D01*
X157176511Y-79922772D01*
X157210016Y-79985366D01*
X157204362Y-80056137D01*
X157161344Y-80112616D01*
X157130287Y-80129335D01*
X156966376Y-80189804D01*
X156966368Y-80189808D01*
X156960957Y-80191804D01*
X156771341Y-80304614D01*
X156605457Y-80450090D01*
X156468863Y-80623360D01*
X156366131Y-80818620D01*
X156300703Y-81029333D01*
X156274770Y-81248440D01*
X156289200Y-81468604D01*
X156290621Y-81474200D01*
X156290622Y-81474205D01*
X156324700Y-81608385D01*
X156343511Y-81682452D01*
X156345928Y-81687694D01*
X156345928Y-81687695D01*
X156384046Y-81770379D01*
X156435883Y-81882821D01*
X156563222Y-82063002D01*
X156721264Y-82216961D01*
X156726060Y-82220166D01*
X156726063Y-82220168D01*
X156810258Y-82276425D01*
X156904717Y-82339540D01*
X156910020Y-82341818D01*
X156910023Y-82341820D01*
X156922546Y-82347200D01*
X156977239Y-82392469D01*
X156998776Y-82460120D01*
X156980319Y-82528675D01*
X156930988Y-82574731D01*
X156758463Y-82664542D01*
X156749738Y-82670036D01*
X156579433Y-82797905D01*
X156571726Y-82804748D01*
X156424590Y-82958717D01*
X156418104Y-82966727D01*
X156298098Y-83142649D01*
X156293000Y-83151623D01*
X156203338Y-83344783D01*
X156199775Y-83354470D01*
X156144389Y-83554183D01*
X156145912Y-83562607D01*
X156158292Y-83566000D01*
X157608000Y-83566000D01*
X157676121Y-83586002D01*
X157722614Y-83639658D01*
X157734000Y-83692000D01*
X157734000Y-83948000D01*
X157713998Y-84016121D01*
X157660342Y-84062614D01*
X157608000Y-84074000D01*
X156163225Y-84074000D01*
X156149694Y-84077973D01*
X156148257Y-84087966D01*
X156178565Y-84222446D01*
X156181645Y-84232275D01*
X156261770Y-84429603D01*
X156266413Y-84438794D01*
X156377694Y-84620388D01*
X156383777Y-84628699D01*
X156523213Y-84789667D01*
X156530580Y-84796883D01*
X156694434Y-84932916D01*
X156702881Y-84938831D01*
X156886756Y-85046279D01*
X156896043Y-85050729D01*
X156918682Y-85059374D01*
X156975186Y-85102362D01*
X156999478Y-85169073D01*
X156983847Y-85238328D01*
X156938156Y-85285369D01*
X156812360Y-85360210D01*
X156771341Y-85384614D01*
X156605457Y-85530090D01*
X156468863Y-85703360D01*
X156366131Y-85898620D01*
X156300703Y-86109333D01*
X156274770Y-86328440D01*
X156275148Y-86334207D01*
X156284295Y-86473774D01*
X156268791Y-86543057D01*
X156218291Y-86592959D01*
X156148828Y-86607637D01*
X156082457Y-86582431D01*
X156074746Y-86576090D01*
X156065275Y-86567651D01*
X156065267Y-86567645D01*
X156059603Y-86562599D01*
X156052897Y-86559048D01*
X156052895Y-86559047D01*
X155992704Y-86527178D01*
X155925805Y-86491757D01*
X155778972Y-86454874D01*
X155771374Y-86454834D01*
X155771372Y-86454834D01*
X155706775Y-86454496D01*
X155627579Y-86454082D01*
X155620200Y-86455854D01*
X155620196Y-86455854D01*
X155487746Y-86487652D01*
X155487742Y-86487653D01*
X155480367Y-86489424D01*
X155473622Y-86492905D01*
X155473623Y-86492905D01*
X155365708Y-86548604D01*
X155345835Y-86558861D01*
X155340113Y-86563853D01*
X155340111Y-86563854D01*
X155237474Y-86653390D01*
X155237471Y-86653393D01*
X155231749Y-86658385D01*
X155227382Y-86664599D01*
X155158610Y-86762452D01*
X155144696Y-86782249D01*
X155089702Y-86923302D01*
X155088711Y-86930831D01*
X155073959Y-87042884D01*
X155069941Y-87073402D01*
X155086554Y-87223883D01*
X155138582Y-87366057D01*
X155142819Y-87372363D01*
X155142821Y-87372366D01*
X155172364Y-87416330D01*
X155223022Y-87491716D01*
X155334998Y-87593607D01*
X155383218Y-87619789D01*
X155412188Y-87641423D01*
X156275193Y-88504428D01*
X156309219Y-88566740D01*
X156306430Y-88630889D01*
X156300703Y-88649333D01*
X156274770Y-88868440D01*
X156289200Y-89088604D01*
X156290621Y-89094200D01*
X156290622Y-89094205D01*
X156342090Y-89296857D01*
X156343511Y-89302452D01*
X156345928Y-89307694D01*
X156345928Y-89307695D01*
X156384046Y-89390379D01*
X156435883Y-89502821D01*
X156563222Y-89683002D01*
X156721264Y-89836961D01*
X156726060Y-89840166D01*
X156726063Y-89840168D01*
X156810261Y-89896427D01*
X156904717Y-89959540D01*
X156910020Y-89961818D01*
X156910023Y-89961820D01*
X157102129Y-90044355D01*
X157107436Y-90046635D01*
X157113071Y-90047910D01*
X157113074Y-90047911D01*
X157114484Y-90048230D01*
X157115083Y-90048564D01*
X157118562Y-90049694D01*
X157118340Y-90050377D01*
X157176511Y-90082772D01*
X157210016Y-90145366D01*
X157204362Y-90216137D01*
X157161344Y-90272616D01*
X157130287Y-90289335D01*
X156966376Y-90349804D01*
X156966368Y-90349808D01*
X156960957Y-90351804D01*
X156771341Y-90464614D01*
X156605457Y-90610090D01*
X156468863Y-90783360D01*
X156366131Y-90978620D01*
X156300703Y-91189333D01*
X156274770Y-91408440D01*
X156289200Y-91628604D01*
X156290621Y-91634200D01*
X156290622Y-91634205D01*
X156342090Y-91836857D01*
X156343511Y-91842452D01*
X156345928Y-91847694D01*
X156345928Y-91847695D01*
X156384046Y-91930379D01*
X156435883Y-92042821D01*
X156563222Y-92223002D01*
X156721264Y-92376961D01*
X156726060Y-92380166D01*
X156726063Y-92380168D01*
X156810261Y-92436427D01*
X156904717Y-92499540D01*
X156910020Y-92501818D01*
X156910023Y-92501820D01*
X157102129Y-92584355D01*
X157107436Y-92586635D01*
X157113071Y-92587910D01*
X157113074Y-92587911D01*
X157114484Y-92588230D01*
X157115083Y-92588564D01*
X157118562Y-92589694D01*
X157118340Y-92590377D01*
X157176511Y-92622772D01*
X157210016Y-92685366D01*
X157204362Y-92756137D01*
X157161344Y-92812616D01*
X157130287Y-92829335D01*
X156966376Y-92889804D01*
X156966368Y-92889808D01*
X156960957Y-92891804D01*
X156955996Y-92894756D01*
X156955995Y-92894756D01*
X156923293Y-92914212D01*
X156771341Y-93004614D01*
X156605457Y-93150090D01*
X156468863Y-93323360D01*
X156366131Y-93518620D01*
X156300703Y-93729333D01*
X156274770Y-93948440D01*
X156289200Y-94168604D01*
X156290621Y-94174200D01*
X156290622Y-94174205D01*
X156335956Y-94352705D01*
X156343511Y-94382452D01*
X156345928Y-94387694D01*
X156345928Y-94387695D01*
X156384046Y-94470379D01*
X156435883Y-94582821D01*
X156563222Y-94763002D01*
X156721264Y-94916961D01*
X156726060Y-94920166D01*
X156726063Y-94920168D01*
X156810258Y-94976425D01*
X156904717Y-95039540D01*
X156910020Y-95041818D01*
X156910023Y-95041820D01*
X156922546Y-95047200D01*
X156977239Y-95092469D01*
X156998776Y-95160120D01*
X156980319Y-95228675D01*
X156930988Y-95274731D01*
X156758463Y-95364542D01*
X156749738Y-95370036D01*
X156579433Y-95497905D01*
X156571726Y-95504748D01*
X156424590Y-95658717D01*
X156418104Y-95666727D01*
X156298098Y-95842649D01*
X156293000Y-95851623D01*
X156203338Y-96044783D01*
X156199775Y-96054470D01*
X156144389Y-96254183D01*
X156145912Y-96262607D01*
X156158292Y-96266000D01*
X157608000Y-96266000D01*
X157676121Y-96286002D01*
X157722614Y-96339658D01*
X157734000Y-96392000D01*
X157734000Y-96648000D01*
X157713998Y-96716121D01*
X157660342Y-96762614D01*
X157608000Y-96774000D01*
X156163225Y-96774000D01*
X156149694Y-96777973D01*
X156148257Y-96787966D01*
X156178565Y-96922446D01*
X156181645Y-96932275D01*
X156261770Y-97129603D01*
X156266413Y-97138794D01*
X156377694Y-97320388D01*
X156383777Y-97328699D01*
X156523213Y-97489667D01*
X156530580Y-97496883D01*
X156694434Y-97632916D01*
X156702881Y-97638831D01*
X156886756Y-97746279D01*
X156896043Y-97750729D01*
X156918682Y-97759374D01*
X156975186Y-97802362D01*
X156999478Y-97869073D01*
X156983847Y-97938328D01*
X156938156Y-97985369D01*
X156812360Y-98060210D01*
X156771341Y-98084614D01*
X156605457Y-98230090D01*
X156468863Y-98403360D01*
X156366131Y-98598620D01*
X156300703Y-98809333D01*
X156274770Y-99028440D01*
X156289200Y-99248604D01*
X156290621Y-99254200D01*
X156290622Y-99254205D01*
X156342090Y-99456857D01*
X156343511Y-99462452D01*
X156345928Y-99467694D01*
X156345928Y-99467695D01*
X156384046Y-99550379D01*
X156435883Y-99662821D01*
X156563222Y-99843002D01*
X156721264Y-99996961D01*
X156726060Y-100000166D01*
X156726063Y-100000168D01*
X156810261Y-100056427D01*
X156904717Y-100119540D01*
X156910020Y-100121818D01*
X156910023Y-100121820D01*
X157102129Y-100204355D01*
X157107436Y-100206635D01*
X157113071Y-100207910D01*
X157113074Y-100207911D01*
X157114484Y-100208230D01*
X157115083Y-100208564D01*
X157118562Y-100209694D01*
X157118340Y-100210377D01*
X157176511Y-100242772D01*
X157210016Y-100305366D01*
X157204362Y-100376137D01*
X157161344Y-100432616D01*
X157130287Y-100449335D01*
X156966376Y-100509804D01*
X156966368Y-100509808D01*
X156960957Y-100511804D01*
X156771341Y-100624614D01*
X156605457Y-100770090D01*
X156468863Y-100943360D01*
X156366131Y-101138620D01*
X156300703Y-101349333D01*
X156274770Y-101568440D01*
X156289200Y-101788604D01*
X156290621Y-101794200D01*
X156290622Y-101794205D01*
X156342090Y-101996857D01*
X156343511Y-102002452D01*
X156345928Y-102007694D01*
X156345928Y-102007695D01*
X156384046Y-102090379D01*
X156435883Y-102202821D01*
X156563222Y-102383002D01*
X156721264Y-102536961D01*
X156726060Y-102540166D01*
X156726063Y-102540168D01*
X156827245Y-102607775D01*
X156904717Y-102659540D01*
X156910020Y-102661818D01*
X156910023Y-102661820D01*
X157083208Y-102736226D01*
X157107436Y-102746635D01*
X157113071Y-102747910D01*
X157113074Y-102747911D01*
X157114484Y-102748230D01*
X157115083Y-102748564D01*
X157118562Y-102749694D01*
X157118340Y-102750377D01*
X157176511Y-102782772D01*
X157210016Y-102845366D01*
X157204362Y-102916137D01*
X157161344Y-102972616D01*
X157130287Y-102989335D01*
X156966376Y-103049804D01*
X156966368Y-103049808D01*
X156960957Y-103051804D01*
X156955996Y-103054756D01*
X156955995Y-103054756D01*
X156857767Y-103113196D01*
X156771341Y-103164614D01*
X156605457Y-103310090D01*
X156468863Y-103483360D01*
X156366131Y-103678620D01*
X156300703Y-103889333D01*
X156274770Y-104108440D01*
X156289200Y-104328604D01*
X156290621Y-104334200D01*
X156290622Y-104334205D01*
X156325770Y-104472598D01*
X156343511Y-104542452D01*
X156345928Y-104547694D01*
X156345928Y-104547695D01*
X156383871Y-104630000D01*
X156435883Y-104742821D01*
X156563222Y-104923002D01*
X156721264Y-105076961D01*
X156726060Y-105080166D01*
X156726063Y-105080168D01*
X156872226Y-105177830D01*
X156904717Y-105199540D01*
X156910020Y-105201818D01*
X156910023Y-105201820D01*
X157037348Y-105256523D01*
X157107436Y-105286635D01*
X157113071Y-105287910D01*
X157113074Y-105287911D01*
X157114484Y-105288230D01*
X157115083Y-105288564D01*
X157118562Y-105289694D01*
X157118340Y-105290377D01*
X157176511Y-105322772D01*
X157210016Y-105385366D01*
X157204362Y-105456137D01*
X157161344Y-105512616D01*
X157130287Y-105529335D01*
X156966376Y-105589804D01*
X156966368Y-105589808D01*
X156960957Y-105591804D01*
X156771341Y-105704614D01*
X156605457Y-105850090D01*
X156468863Y-106023360D01*
X156366131Y-106218620D01*
X156300703Y-106429333D01*
X156274770Y-106648440D01*
X156289200Y-106868604D01*
X156290621Y-106874200D01*
X156290622Y-106874205D01*
X156333708Y-107043854D01*
X156343511Y-107082452D01*
X156345928Y-107087694D01*
X156345928Y-107087695D01*
X156383177Y-107168493D01*
X156435883Y-107282821D01*
X156563222Y-107463002D01*
X156721264Y-107616961D01*
X156726060Y-107620166D01*
X156726063Y-107620168D01*
X156810258Y-107676425D01*
X156904717Y-107739540D01*
X156910020Y-107741818D01*
X156910023Y-107741820D01*
X156922546Y-107747200D01*
X156977239Y-107792469D01*
X156998776Y-107860120D01*
X156980319Y-107928675D01*
X156930988Y-107974731D01*
X156758463Y-108064542D01*
X156749738Y-108070036D01*
X156579433Y-108197905D01*
X156571726Y-108204748D01*
X156424590Y-108358717D01*
X156418104Y-108366727D01*
X156298098Y-108542649D01*
X156293000Y-108551623D01*
X156203338Y-108744783D01*
X156199775Y-108754470D01*
X156144389Y-108954183D01*
X156145912Y-108962607D01*
X156158292Y-108966000D01*
X157608000Y-108966000D01*
X157676121Y-108986002D01*
X157722614Y-109039658D01*
X157734000Y-109092000D01*
X157734000Y-109348000D01*
X157713998Y-109416121D01*
X157660342Y-109462614D01*
X157608000Y-109474000D01*
X156163225Y-109474000D01*
X156149694Y-109477973D01*
X156148257Y-109487966D01*
X156178565Y-109622446D01*
X156181645Y-109632275D01*
X156261770Y-109829603D01*
X156266413Y-109838794D01*
X156377694Y-110020388D01*
X156383777Y-110028699D01*
X156523213Y-110189667D01*
X156530580Y-110196883D01*
X156694434Y-110332916D01*
X156702881Y-110338831D01*
X156886756Y-110446279D01*
X156896043Y-110450729D01*
X156918682Y-110459374D01*
X156975186Y-110502362D01*
X156999478Y-110569073D01*
X156983847Y-110638328D01*
X156938156Y-110685369D01*
X156812360Y-110760210D01*
X156771341Y-110784614D01*
X156605457Y-110930090D01*
X156468863Y-111103360D01*
X156366131Y-111298620D01*
X156300703Y-111509333D01*
X156274770Y-111728440D01*
X156289200Y-111948604D01*
X156290621Y-111954200D01*
X156290622Y-111954205D01*
X156342090Y-112156857D01*
X156343511Y-112162452D01*
X156345928Y-112167694D01*
X156345928Y-112167695D01*
X156384046Y-112250379D01*
X156435883Y-112362821D01*
X156563222Y-112543002D01*
X156721264Y-112696961D01*
X156726060Y-112700166D01*
X156726063Y-112700168D01*
X156810261Y-112756427D01*
X156904717Y-112819540D01*
X156910020Y-112821818D01*
X156910023Y-112821820D01*
X157102129Y-112904355D01*
X157107436Y-112906635D01*
X157113071Y-112907910D01*
X157113074Y-112907911D01*
X157114484Y-112908230D01*
X157115083Y-112908564D01*
X157118562Y-112909694D01*
X157118340Y-112910377D01*
X157176511Y-112942772D01*
X157210016Y-113005366D01*
X157204362Y-113076137D01*
X157161344Y-113132616D01*
X157130287Y-113149335D01*
X156966376Y-113209804D01*
X156966368Y-113209808D01*
X156960957Y-113211804D01*
X156771341Y-113324614D01*
X156605457Y-113470090D01*
X156468863Y-113643360D01*
X156366131Y-113838620D01*
X156300703Y-114049333D01*
X156274770Y-114268440D01*
X156289200Y-114488604D01*
X156290621Y-114494200D01*
X156290622Y-114494205D01*
X156342090Y-114696857D01*
X156343511Y-114702452D01*
X156345928Y-114707694D01*
X156345928Y-114707695D01*
X156384046Y-114790379D01*
X156435883Y-114902821D01*
X156563222Y-115083002D01*
X156721264Y-115236961D01*
X156726060Y-115240166D01*
X156726063Y-115240168D01*
X156810261Y-115296427D01*
X156904717Y-115359540D01*
X156910020Y-115361818D01*
X156910023Y-115361820D01*
X157102129Y-115444355D01*
X157107436Y-115446635D01*
X157113071Y-115447910D01*
X157113074Y-115447911D01*
X157114484Y-115448230D01*
X157115083Y-115448564D01*
X157118562Y-115449694D01*
X157118340Y-115450377D01*
X157176511Y-115482772D01*
X157210016Y-115545366D01*
X157204362Y-115616137D01*
X157161344Y-115672616D01*
X157130287Y-115689335D01*
X156966376Y-115749804D01*
X156966368Y-115749808D01*
X156960957Y-115751804D01*
X156771341Y-115864614D01*
X156605457Y-116010090D01*
X156468863Y-116183360D01*
X156366131Y-116378620D01*
X156300703Y-116589333D01*
X156274770Y-116808440D01*
X156289200Y-117028604D01*
X156290621Y-117034200D01*
X156290622Y-117034205D01*
X156342090Y-117236857D01*
X156343511Y-117242452D01*
X156345928Y-117247694D01*
X156345928Y-117247695D01*
X156423542Y-117416051D01*
X156435883Y-117442821D01*
X156563222Y-117623002D01*
X156721264Y-117776961D01*
X156726060Y-117780166D01*
X156726063Y-117780168D01*
X156810261Y-117836427D01*
X156904717Y-117899540D01*
X156910020Y-117901818D01*
X156910023Y-117901820D01*
X157102129Y-117984355D01*
X157107436Y-117986635D01*
X157113071Y-117987910D01*
X157113074Y-117987911D01*
X157114484Y-117988230D01*
X157115083Y-117988564D01*
X157118562Y-117989694D01*
X157118340Y-117990377D01*
X157176511Y-118022772D01*
X157210016Y-118085366D01*
X157204362Y-118156137D01*
X157161344Y-118212616D01*
X157130287Y-118229335D01*
X156966376Y-118289804D01*
X156966368Y-118289808D01*
X156960957Y-118291804D01*
X156955996Y-118294756D01*
X156955995Y-118294756D01*
X156933842Y-118307936D01*
X156771341Y-118404614D01*
X156605457Y-118550090D01*
X156468863Y-118723360D01*
X156366131Y-118918620D01*
X156300703Y-119129333D01*
X156274770Y-119348440D01*
X156289200Y-119568604D01*
X156290621Y-119574200D01*
X156290622Y-119574205D01*
X156331822Y-119736427D01*
X156343511Y-119782452D01*
X156345928Y-119787694D01*
X156345928Y-119787695D01*
X156386371Y-119875422D01*
X156435883Y-119982821D01*
X156563222Y-120163002D01*
X156721264Y-120316961D01*
X156726060Y-120320166D01*
X156726063Y-120320168D01*
X156810258Y-120376425D01*
X156904717Y-120439540D01*
X156910020Y-120441818D01*
X156910023Y-120441820D01*
X156922546Y-120447200D01*
X156977239Y-120492469D01*
X156998776Y-120560120D01*
X156980319Y-120628675D01*
X156930988Y-120674731D01*
X156758463Y-120764542D01*
X156749738Y-120770036D01*
X156579433Y-120897905D01*
X156571726Y-120904748D01*
X156424590Y-121058717D01*
X156418104Y-121066727D01*
X156298098Y-121242649D01*
X156293000Y-121251623D01*
X156203338Y-121444783D01*
X156199775Y-121454470D01*
X156144389Y-121654183D01*
X156145912Y-121662607D01*
X156158292Y-121666000D01*
X157608000Y-121666000D01*
X157676121Y-121686002D01*
X157722614Y-121739658D01*
X157734000Y-121792000D01*
X157734000Y-122048000D01*
X157713998Y-122116121D01*
X157660342Y-122162614D01*
X157608000Y-122174000D01*
X156163225Y-122174000D01*
X156149694Y-122177973D01*
X156148257Y-122187966D01*
X156178565Y-122322446D01*
X156181645Y-122332275D01*
X156261770Y-122529603D01*
X156266413Y-122538794D01*
X156377694Y-122720388D01*
X156383777Y-122728699D01*
X156523213Y-122889667D01*
X156530580Y-122896883D01*
X156694434Y-123032916D01*
X156702881Y-123038831D01*
X156886756Y-123146279D01*
X156896043Y-123150729D01*
X156918682Y-123159374D01*
X156975186Y-123202362D01*
X156999478Y-123269073D01*
X156983847Y-123338328D01*
X156938156Y-123385369D01*
X156812360Y-123460210D01*
X156771341Y-123484614D01*
X156605457Y-123630090D01*
X156468863Y-123803360D01*
X156366131Y-123998620D01*
X156300703Y-124209333D01*
X156274770Y-124428440D01*
X156289200Y-124648604D01*
X156290621Y-124654200D01*
X156290622Y-124654205D01*
X156342090Y-124856857D01*
X156343511Y-124862452D01*
X156345928Y-124867694D01*
X156345928Y-124867695D01*
X156384046Y-124950379D01*
X156435883Y-125062821D01*
X156563222Y-125243002D01*
X156721264Y-125396961D01*
X156726060Y-125400166D01*
X156726063Y-125400168D01*
X156810261Y-125456427D01*
X156904717Y-125519540D01*
X156910020Y-125521818D01*
X156910023Y-125521820D01*
X156993611Y-125557732D01*
X157048304Y-125603000D01*
X157069841Y-125670652D01*
X157051384Y-125739207D01*
X156998793Y-125786901D01*
X156943873Y-125799500D01*
X156596782Y-125799500D01*
X156592232Y-125800170D01*
X156592229Y-125800170D01*
X156537574Y-125808216D01*
X156537573Y-125808216D01*
X156527888Y-125809642D01*
X156481095Y-125832616D01*
X156432493Y-125856478D01*
X156432491Y-125856479D01*
X156423145Y-125861068D01*
X156340707Y-125943650D01*
X156289464Y-126048482D01*
X156279500Y-126116782D01*
X156279500Y-127793500D01*
X156259498Y-127861621D01*
X156205842Y-127908114D01*
X156153500Y-127919500D01*
X140765487Y-127919500D01*
X140697366Y-127899498D01*
X140650873Y-127845842D01*
X140640769Y-127775568D01*
X140668613Y-127712931D01*
X140689904Y-127687332D01*
X140689911Y-127687322D01*
X140693602Y-127682884D01*
X140801410Y-127490379D01*
X140803266Y-127484912D01*
X140803268Y-127484907D01*
X140870475Y-127286921D01*
X140870476Y-127286916D01*
X140872331Y-127281452D01*
X140873159Y-127275743D01*
X140873160Y-127275738D01*
X140903458Y-127066772D01*
X140903991Y-127063098D01*
X140905643Y-127000000D01*
X140885454Y-126780289D01*
X140825565Y-126567936D01*
X140727980Y-126370053D01*
X140595967Y-126193267D01*
X140498586Y-126103249D01*
X140438189Y-126047418D01*
X140438186Y-126047416D01*
X140433949Y-126043499D01*
X140247350Y-125925764D01*
X140044955Y-125845017D01*
X139989096Y-125801196D01*
X139965795Y-125734132D01*
X139982451Y-125665117D01*
X140033775Y-125616063D01*
X140051144Y-125608674D01*
X140184907Y-125563268D01*
X140184912Y-125563266D01*
X140190379Y-125561410D01*
X140382884Y-125453602D01*
X140387331Y-125449904D01*
X140548086Y-125316204D01*
X140552518Y-125312518D01*
X140693602Y-125142884D01*
X140801410Y-124950379D01*
X140803266Y-124944912D01*
X140803268Y-124944907D01*
X140870475Y-124746921D01*
X140870476Y-124746916D01*
X140872331Y-124741452D01*
X140873159Y-124735743D01*
X140873160Y-124735738D01*
X140903458Y-124526772D01*
X140903991Y-124523098D01*
X140905643Y-124460000D01*
X140885454Y-124240289D01*
X140825565Y-124027936D01*
X140727980Y-123830053D01*
X140595967Y-123653267D01*
X140433949Y-123503499D01*
X140248702Y-123386617D01*
X140248700Y-123386615D01*
X140247350Y-123385764D01*
X140247517Y-123385499D01*
X140198071Y-123338802D01*
X140181002Y-123269888D01*
X140203901Y-123202686D01*
X140251454Y-123162129D01*
X140393095Y-123092739D01*
X140401945Y-123087464D01*
X140575328Y-122963792D01*
X140583200Y-122957139D01*
X140734052Y-122806812D01*
X140740730Y-122798965D01*
X140865003Y-122626020D01*
X140870313Y-122617183D01*
X140964670Y-122426267D01*
X140968469Y-122416672D01*
X141030377Y-122212910D01*
X141032555Y-122202837D01*
X141033986Y-122191962D01*
X141031775Y-122177778D01*
X141018617Y-122174000D01*
X139572000Y-122174000D01*
X139503879Y-122153998D01*
X139457386Y-122100342D01*
X139446000Y-122048000D01*
X139446000Y-121792000D01*
X139466002Y-121723879D01*
X139519658Y-121677386D01*
X139572000Y-121666000D01*
X141018344Y-121666000D01*
X141031875Y-121662027D01*
X141033180Y-121652947D01*
X140991214Y-121485875D01*
X140987894Y-121476124D01*
X140902972Y-121280814D01*
X140898105Y-121271739D01*
X140782426Y-121092926D01*
X140776136Y-121084757D01*
X140632806Y-120927240D01*
X140625273Y-120920215D01*
X140458139Y-120788222D01*
X140449552Y-120782517D01*
X140263115Y-120679598D01*
X140254687Y-120675810D01*
X140200752Y-120629641D01*
X140180340Y-120561642D01*
X140199932Y-120493402D01*
X140244771Y-120450949D01*
X140270875Y-120436330D01*
X140382884Y-120373602D01*
X140387331Y-120369904D01*
X140548086Y-120236204D01*
X140552518Y-120232518D01*
X140684030Y-120074393D01*
X140689908Y-120067326D01*
X140689910Y-120067323D01*
X140693602Y-120062884D01*
X140767022Y-119931784D01*
X140798586Y-119875422D01*
X140798587Y-119875420D01*
X140801410Y-119870379D01*
X140803266Y-119864912D01*
X140803268Y-119864907D01*
X140870475Y-119666921D01*
X140870476Y-119666916D01*
X140872331Y-119661452D01*
X140873159Y-119655743D01*
X140873160Y-119655738D01*
X140877875Y-119623218D01*
X143649500Y-119623218D01*
X143650170Y-119627768D01*
X143650170Y-119627771D01*
X143658216Y-119682426D01*
X143659642Y-119692112D01*
X143684140Y-119742008D01*
X143703997Y-119782452D01*
X143711068Y-119796855D01*
X143793650Y-119879293D01*
X143803006Y-119883866D01*
X143803007Y-119883867D01*
X143835460Y-119899730D01*
X143898482Y-119930536D01*
X143922597Y-119934054D01*
X143962256Y-119939840D01*
X143962260Y-119939840D01*
X143966782Y-119940500D01*
X145733218Y-119940500D01*
X145737768Y-119939830D01*
X145737771Y-119939830D01*
X145792426Y-119931784D01*
X145792427Y-119931784D01*
X145802112Y-119930358D01*
X145896804Y-119883867D01*
X145897507Y-119883522D01*
X145897509Y-119883521D01*
X145906855Y-119878932D01*
X145989293Y-119796350D01*
X145995432Y-119783792D01*
X146019965Y-119733602D01*
X146040536Y-119691518D01*
X146050500Y-119623218D01*
X146050500Y-119276362D01*
X146070502Y-119208241D01*
X146124158Y-119161748D01*
X146194432Y-119151644D01*
X146259012Y-119181138D01*
X146290926Y-119223611D01*
X146294046Y-119230379D01*
X146345883Y-119342821D01*
X146473222Y-119523002D01*
X146631264Y-119676961D01*
X146636060Y-119680166D01*
X146636063Y-119680168D01*
X146720261Y-119736427D01*
X146814717Y-119799540D01*
X146820020Y-119801818D01*
X146820023Y-119801820D01*
X146983221Y-119871935D01*
X147017436Y-119886635D01*
X147097088Y-119904658D01*
X147226995Y-119934054D01*
X147227001Y-119934055D01*
X147232632Y-119935329D01*
X147238403Y-119935556D01*
X147238405Y-119935556D01*
X147306211Y-119938220D01*
X147453098Y-119943991D01*
X147575524Y-119926240D01*
X147665738Y-119913160D01*
X147665743Y-119913159D01*
X147671452Y-119912331D01*
X147676916Y-119910476D01*
X147676921Y-119910475D01*
X147874907Y-119843268D01*
X147874912Y-119843266D01*
X147880379Y-119841410D01*
X148072884Y-119733602D01*
X148092987Y-119716883D01*
X148238086Y-119596204D01*
X148242518Y-119592518D01*
X148304256Y-119518287D01*
X148379908Y-119427326D01*
X148379910Y-119427323D01*
X148383602Y-119422884D01*
X148463020Y-119281073D01*
X148513754Y-119231414D01*
X148583286Y-119217066D01*
X148649537Y-119242588D01*
X148689695Y-119295238D01*
X148711770Y-119349603D01*
X148716413Y-119358794D01*
X148827694Y-119540388D01*
X148833777Y-119548699D01*
X148973213Y-119709667D01*
X148980580Y-119716883D01*
X149144434Y-119852916D01*
X149152881Y-119858831D01*
X149336756Y-119966279D01*
X149346042Y-119970729D01*
X149545001Y-120046703D01*
X149554899Y-120049579D01*
X149658250Y-120070606D01*
X149672299Y-120069410D01*
X149676000Y-120059065D01*
X149676000Y-120058517D01*
X150184000Y-120058517D01*
X150188064Y-120072359D01*
X150201478Y-120074393D01*
X150208184Y-120073534D01*
X150218262Y-120071392D01*
X150422255Y-120010191D01*
X150431842Y-120006433D01*
X150623095Y-119912739D01*
X150631945Y-119907464D01*
X150805328Y-119783792D01*
X150813200Y-119777139D01*
X150964052Y-119626812D01*
X150970730Y-119618965D01*
X151095003Y-119446020D01*
X151100313Y-119437183D01*
X151174355Y-119287371D01*
X151222469Y-119235164D01*
X151291170Y-119217257D01*
X151358646Y-119239335D01*
X151401737Y-119290445D01*
X151425883Y-119342821D01*
X151553222Y-119523002D01*
X151711264Y-119676961D01*
X151716060Y-119680166D01*
X151716063Y-119680168D01*
X151800261Y-119736427D01*
X151894717Y-119799540D01*
X151900020Y-119801818D01*
X151900023Y-119801820D01*
X152063221Y-119871935D01*
X152097436Y-119886635D01*
X152177088Y-119904658D01*
X152306995Y-119934054D01*
X152307001Y-119934055D01*
X152312632Y-119935329D01*
X152318403Y-119935556D01*
X152318405Y-119935556D01*
X152386211Y-119938220D01*
X152533098Y-119943991D01*
X152655524Y-119926240D01*
X152745738Y-119913160D01*
X152745743Y-119913159D01*
X152751452Y-119912331D01*
X152756916Y-119910476D01*
X152756921Y-119910475D01*
X152954907Y-119843268D01*
X152954912Y-119843266D01*
X152960379Y-119841410D01*
X153152884Y-119733602D01*
X153172987Y-119716883D01*
X153318086Y-119596204D01*
X153322518Y-119592518D01*
X153384256Y-119518287D01*
X153459908Y-119427326D01*
X153459910Y-119427323D01*
X153463602Y-119422884D01*
X153564573Y-119242588D01*
X153568586Y-119235422D01*
X153568587Y-119235420D01*
X153571410Y-119230379D01*
X153573266Y-119224912D01*
X153573268Y-119224907D01*
X153640475Y-119026921D01*
X153640476Y-119026916D01*
X153642331Y-119021452D01*
X153643159Y-119015743D01*
X153643160Y-119015738D01*
X153673458Y-118806772D01*
X153673991Y-118803098D01*
X153675643Y-118740000D01*
X153655454Y-118520289D01*
X153595565Y-118307936D01*
X153497980Y-118110053D01*
X153407260Y-117988564D01*
X153369420Y-117937891D01*
X153369420Y-117937890D01*
X153365967Y-117933267D01*
X153222347Y-117800506D01*
X153208189Y-117787418D01*
X153208186Y-117787416D01*
X153203949Y-117783499D01*
X153017350Y-117665764D01*
X152812421Y-117584006D01*
X152806761Y-117582880D01*
X152806757Y-117582879D01*
X152601691Y-117542089D01*
X152601688Y-117542089D01*
X152596024Y-117540962D01*
X152590249Y-117540886D01*
X152590245Y-117540886D01*
X152479504Y-117539437D01*
X152375406Y-117538074D01*
X152369709Y-117539053D01*
X152369708Y-117539053D01*
X152163654Y-117574459D01*
X152163653Y-117574459D01*
X152157957Y-117575438D01*
X151950957Y-117651804D01*
X151945996Y-117654756D01*
X151945995Y-117654756D01*
X151828350Y-117724748D01*
X151761341Y-117764614D01*
X151595457Y-117910090D01*
X151458863Y-118083360D01*
X151420573Y-118156137D01*
X151398589Y-118197921D01*
X151349169Y-118248893D01*
X151280037Y-118265056D01*
X151213141Y-118241277D01*
X151171531Y-118189495D01*
X151132972Y-118100814D01*
X151128105Y-118091739D01*
X151012426Y-117912926D01*
X151006136Y-117904757D01*
X150862806Y-117747240D01*
X150855273Y-117740215D01*
X150688139Y-117608222D01*
X150679552Y-117602517D01*
X150493117Y-117499599D01*
X150483705Y-117495369D01*
X150282959Y-117424280D01*
X150272988Y-117421646D01*
X150201837Y-117408972D01*
X150188540Y-117410432D01*
X150184000Y-117424989D01*
X150184000Y-120058517D01*
X149676000Y-120058517D01*
X149676000Y-117423102D01*
X149672082Y-117409758D01*
X149657806Y-117407771D01*
X149619324Y-117413660D01*
X149609288Y-117416051D01*
X149406868Y-117482212D01*
X149397359Y-117486209D01*
X149208463Y-117584542D01*
X149199738Y-117590036D01*
X149029433Y-117717905D01*
X149021726Y-117724748D01*
X148874590Y-117878717D01*
X148868104Y-117886727D01*
X148748098Y-118062649D01*
X148743000Y-118071623D01*
X148687066Y-118192122D01*
X148640242Y-118245489D01*
X148571998Y-118265070D01*
X148504003Y-118244646D01*
X148459773Y-118194801D01*
X148420535Y-118115234D01*
X148420535Y-118115233D01*
X148420532Y-118115229D01*
X148417980Y-118110053D01*
X148327260Y-117988564D01*
X148289420Y-117937891D01*
X148289420Y-117937890D01*
X148285967Y-117933267D01*
X148142347Y-117800506D01*
X148128189Y-117787418D01*
X148128186Y-117787416D01*
X148123949Y-117783499D01*
X147937350Y-117665764D01*
X147732421Y-117584006D01*
X147726761Y-117582880D01*
X147726757Y-117582879D01*
X147521691Y-117542089D01*
X147521688Y-117542089D01*
X147516024Y-117540962D01*
X147510249Y-117540886D01*
X147510245Y-117540886D01*
X147399504Y-117539437D01*
X147295406Y-117538074D01*
X147289709Y-117539053D01*
X147289708Y-117539053D01*
X147083654Y-117574459D01*
X147083653Y-117574459D01*
X147077957Y-117575438D01*
X146870957Y-117651804D01*
X146865996Y-117654756D01*
X146865995Y-117654756D01*
X146748350Y-117724748D01*
X146681341Y-117764614D01*
X146515457Y-117910090D01*
X146378863Y-118083360D01*
X146321640Y-118192122D01*
X146288008Y-118256046D01*
X146238589Y-118307018D01*
X146169456Y-118323181D01*
X146102560Y-118299402D01*
X146059140Y-118243231D01*
X146050500Y-118197378D01*
X146050500Y-117856782D01*
X146047960Y-117839524D01*
X146041784Y-117797574D01*
X146041784Y-117797573D01*
X146040358Y-117787888D01*
X145988932Y-117683145D01*
X145906350Y-117600707D01*
X145884520Y-117590036D01*
X145852652Y-117574459D01*
X145801518Y-117549464D01*
X145771027Y-117545016D01*
X145737744Y-117540160D01*
X145737740Y-117540160D01*
X145733218Y-117539500D01*
X143966782Y-117539500D01*
X143962232Y-117540170D01*
X143962229Y-117540170D01*
X143907574Y-117548216D01*
X143907573Y-117548216D01*
X143897888Y-117549642D01*
X143847992Y-117574140D01*
X143802493Y-117596478D01*
X143802491Y-117596479D01*
X143793145Y-117601068D01*
X143710707Y-117683650D01*
X143659464Y-117788482D01*
X143658052Y-117798162D01*
X143652470Y-117836427D01*
X143649500Y-117856782D01*
X143649500Y-119623218D01*
X140877875Y-119623218D01*
X140903458Y-119446772D01*
X140903991Y-119443098D01*
X140905643Y-119380000D01*
X140885454Y-119160289D01*
X140825565Y-118947936D01*
X140727980Y-118750053D01*
X140595967Y-118573267D01*
X140433949Y-118423499D01*
X140247350Y-118305764D01*
X140044955Y-118225017D01*
X139989096Y-118181196D01*
X139965795Y-118114132D01*
X139982451Y-118045117D01*
X140033775Y-117996063D01*
X140051144Y-117988674D01*
X140184907Y-117943268D01*
X140184912Y-117943266D01*
X140190379Y-117941410D01*
X140204920Y-117933267D01*
X140270875Y-117896330D01*
X140382884Y-117833602D01*
X140387331Y-117829904D01*
X140548086Y-117696204D01*
X140552518Y-117692518D01*
X140642767Y-117584006D01*
X140689908Y-117527326D01*
X140689910Y-117527323D01*
X140693602Y-117522884D01*
X140801410Y-117330379D01*
X140803266Y-117324912D01*
X140803268Y-117324907D01*
X140870475Y-117126921D01*
X140870476Y-117126916D01*
X140872331Y-117121452D01*
X140873159Y-117115743D01*
X140873160Y-117115738D01*
X140903458Y-116906772D01*
X140903991Y-116903098D01*
X140905643Y-116840000D01*
X140885454Y-116620289D01*
X140825565Y-116407936D01*
X140727980Y-116210053D01*
X140595967Y-116033267D01*
X140433949Y-115883499D01*
X140247350Y-115765764D01*
X140044955Y-115685017D01*
X139989096Y-115641196D01*
X139965795Y-115574132D01*
X139982451Y-115505117D01*
X140033775Y-115456063D01*
X140051144Y-115448674D01*
X140184907Y-115403268D01*
X140184912Y-115403266D01*
X140190379Y-115401410D01*
X140382884Y-115293602D01*
X140387331Y-115289904D01*
X140548086Y-115156204D01*
X140552518Y-115152518D01*
X140693602Y-114982884D01*
X140801410Y-114790379D01*
X140803266Y-114784912D01*
X140803268Y-114784907D01*
X140870475Y-114586921D01*
X140870476Y-114586916D01*
X140872331Y-114581452D01*
X140873159Y-114575743D01*
X140873160Y-114575738D01*
X140903458Y-114366772D01*
X140903991Y-114363098D01*
X140905643Y-114300000D01*
X140885454Y-114080289D01*
X140825565Y-113867936D01*
X140727980Y-113670053D01*
X140595967Y-113493267D01*
X140433949Y-113343499D01*
X140247350Y-113225764D01*
X140044955Y-113145017D01*
X139989096Y-113101196D01*
X139965795Y-113034132D01*
X139982451Y-112965117D01*
X140033775Y-112916063D01*
X140051144Y-112908674D01*
X140184907Y-112863268D01*
X140184912Y-112863266D01*
X140190379Y-112861410D01*
X140382884Y-112753602D01*
X140387331Y-112749904D01*
X140548086Y-112616204D01*
X140552518Y-112612518D01*
X140693602Y-112442884D01*
X140801410Y-112250379D01*
X140803266Y-112244912D01*
X140803268Y-112244907D01*
X140870475Y-112046921D01*
X140870476Y-112046916D01*
X140872331Y-112041452D01*
X140873159Y-112035743D01*
X140873160Y-112035738D01*
X140903458Y-111826772D01*
X140903991Y-111823098D01*
X140905643Y-111760000D01*
X140885454Y-111540289D01*
X140825565Y-111327936D01*
X140727980Y-111130053D01*
X140718105Y-111116828D01*
X140599420Y-110957891D01*
X140599420Y-110957890D01*
X140595967Y-110953267D01*
X140490269Y-110855561D01*
X140438189Y-110807418D01*
X140438186Y-110807416D01*
X140433949Y-110803499D01*
X140259456Y-110693402D01*
X145439941Y-110693402D01*
X145456554Y-110843883D01*
X145508582Y-110986057D01*
X145512819Y-110992363D01*
X145512821Y-110992366D01*
X145551412Y-111049794D01*
X145593022Y-111111716D01*
X145704998Y-111213607D01*
X145711675Y-111217232D01*
X145711676Y-111217233D01*
X145831370Y-111282222D01*
X145831372Y-111282223D01*
X145838047Y-111285847D01*
X145845396Y-111287775D01*
X145977136Y-111322336D01*
X145977138Y-111322336D01*
X145984486Y-111324264D01*
X146064562Y-111325522D01*
X146128266Y-111326523D01*
X146128269Y-111326523D01*
X146135863Y-111326642D01*
X146283437Y-111292843D01*
X146350731Y-111258998D01*
X146411906Y-111228231D01*
X146411909Y-111228229D01*
X146418689Y-111224819D01*
X146533810Y-111126495D01*
X146622156Y-111003550D01*
X146678624Y-110863080D01*
X146699956Y-110713196D01*
X146700005Y-110708487D01*
X146700056Y-110708319D01*
X146700312Y-110704959D01*
X146701064Y-110705016D01*
X146720713Y-110640579D01*
X146736903Y-110620702D01*
X146850336Y-110507269D01*
X146860865Y-110486606D01*
X146871193Y-110469752D01*
X146879000Y-110459006D01*
X146884828Y-110450985D01*
X146887893Y-110441553D01*
X146891997Y-110428923D01*
X146899564Y-110410655D01*
X146905587Y-110398835D01*
X146905588Y-110398833D01*
X146910090Y-110389997D01*
X146913718Y-110367089D01*
X146918333Y-110347867D01*
X146922435Y-110335242D01*
X146922435Y-110335240D01*
X146925500Y-110325808D01*
X146925500Y-108085843D01*
X146945502Y-108017722D01*
X146963268Y-107997366D01*
X146962892Y-107997020D01*
X146968032Y-107991430D01*
X146973810Y-107986495D01*
X147038225Y-107896853D01*
X147057724Y-107869718D01*
X147057725Y-107869717D01*
X147062156Y-107863550D01*
X147118624Y-107723080D01*
X147139956Y-107573196D01*
X147140094Y-107560000D01*
X147137215Y-107536204D01*
X147122818Y-107417241D01*
X147121906Y-107409701D01*
X147102309Y-107357839D01*
X147071076Y-107275182D01*
X147071075Y-107275179D01*
X147068392Y-107268080D01*
X146982640Y-107143311D01*
X146869603Y-107042599D01*
X146862897Y-107039048D01*
X146862895Y-107039047D01*
X146802704Y-107007178D01*
X146735805Y-106971757D01*
X146588972Y-106934874D01*
X146581374Y-106934834D01*
X146581372Y-106934834D01*
X146516775Y-106934496D01*
X146437579Y-106934082D01*
X146430200Y-106935854D01*
X146430196Y-106935854D01*
X146297746Y-106967652D01*
X146297742Y-106967653D01*
X146290367Y-106969424D01*
X146155835Y-107038861D01*
X146150113Y-107043853D01*
X146150111Y-107043854D01*
X146047474Y-107133390D01*
X146047471Y-107133393D01*
X146041749Y-107138385D01*
X146037382Y-107144599D01*
X145961307Y-107252843D01*
X145954696Y-107262249D01*
X145899702Y-107403302D01*
X145879941Y-107553402D01*
X145896554Y-107703883D01*
X145948582Y-107846057D01*
X145952819Y-107852363D01*
X145952821Y-107852366D01*
X145968252Y-107875329D01*
X146033022Y-107971716D01*
X146053302Y-107990169D01*
X146090223Y-108050809D01*
X146094500Y-108083361D01*
X146094500Y-109951524D01*
X146074498Y-110019645D01*
X146020842Y-110066138D01*
X145997252Y-110072721D01*
X145997579Y-110074082D01*
X145857746Y-110107652D01*
X145857742Y-110107653D01*
X145850367Y-110109424D01*
X145715835Y-110178861D01*
X145710113Y-110183853D01*
X145710111Y-110183854D01*
X145607474Y-110273390D01*
X145607471Y-110273393D01*
X145601749Y-110278385D01*
X145597382Y-110284599D01*
X145521380Y-110392739D01*
X145514696Y-110402249D01*
X145459702Y-110543302D01*
X145458711Y-110550831D01*
X145440947Y-110685764D01*
X145439941Y-110693402D01*
X140259456Y-110693402D01*
X140248702Y-110686617D01*
X140248700Y-110686615D01*
X140247350Y-110685764D01*
X140247517Y-110685499D01*
X140198071Y-110638802D01*
X140181002Y-110569888D01*
X140203901Y-110502686D01*
X140251454Y-110462129D01*
X140393095Y-110392739D01*
X140401945Y-110387464D01*
X140575328Y-110263792D01*
X140583200Y-110257139D01*
X140734052Y-110106812D01*
X140740730Y-110098965D01*
X140865003Y-109926020D01*
X140870313Y-109917183D01*
X140964670Y-109726267D01*
X140968469Y-109716672D01*
X141030377Y-109512910D01*
X141032555Y-109502837D01*
X141033986Y-109491962D01*
X141031775Y-109477778D01*
X141018617Y-109474000D01*
X139572000Y-109474000D01*
X139503879Y-109453998D01*
X139457386Y-109400342D01*
X139446000Y-109348000D01*
X139446000Y-109092000D01*
X139466002Y-109023879D01*
X139519658Y-108977386D01*
X139572000Y-108966000D01*
X141018344Y-108966000D01*
X141031875Y-108962027D01*
X141033180Y-108952947D01*
X140991214Y-108785875D01*
X140987894Y-108776124D01*
X140902972Y-108580814D01*
X140898105Y-108571739D01*
X140782426Y-108392926D01*
X140776136Y-108384757D01*
X140632806Y-108227240D01*
X140625273Y-108220215D01*
X140458139Y-108088222D01*
X140449552Y-108082517D01*
X140263115Y-107979598D01*
X140254687Y-107975810D01*
X140200752Y-107929641D01*
X140180340Y-107861642D01*
X140199932Y-107793402D01*
X140244771Y-107750949D01*
X140342293Y-107696334D01*
X140382884Y-107673602D01*
X140387331Y-107669904D01*
X140548086Y-107536204D01*
X140552518Y-107532518D01*
X140619500Y-107451981D01*
X140689908Y-107367326D01*
X140689910Y-107367323D01*
X140693602Y-107362884D01*
X140761176Y-107242222D01*
X140798586Y-107175422D01*
X140798587Y-107175420D01*
X140801410Y-107170379D01*
X140803266Y-107164912D01*
X140803268Y-107164907D01*
X140870475Y-106966921D01*
X140870476Y-106966916D01*
X140872331Y-106961452D01*
X140873159Y-106955743D01*
X140873160Y-106955738D01*
X140894143Y-106811015D01*
X140903991Y-106743098D01*
X140905643Y-106680000D01*
X140903199Y-106653402D01*
X150549941Y-106653402D01*
X150566554Y-106803883D01*
X150618582Y-106946057D01*
X150622819Y-106952363D01*
X150622821Y-106952366D01*
X150661412Y-107009794D01*
X150703022Y-107071716D01*
X150814998Y-107173607D01*
X150821675Y-107177232D01*
X150821676Y-107177233D01*
X150941370Y-107242222D01*
X150941372Y-107242223D01*
X150948047Y-107245847D01*
X150955396Y-107247775D01*
X151087136Y-107282336D01*
X151087138Y-107282336D01*
X151094486Y-107284264D01*
X151174562Y-107285522D01*
X151238266Y-107286523D01*
X151238269Y-107286523D01*
X151245863Y-107286642D01*
X151393437Y-107252843D01*
X151460731Y-107218998D01*
X151521906Y-107188231D01*
X151521909Y-107188229D01*
X151528689Y-107184819D01*
X151643810Y-107086495D01*
X151732156Y-106963550D01*
X151788624Y-106823080D01*
X151809956Y-106673196D01*
X151810094Y-106660000D01*
X151791906Y-106509701D01*
X151761975Y-106430490D01*
X151756607Y-106359699D01*
X151790746Y-106296859D01*
X153056463Y-105031143D01*
X153118775Y-104997117D01*
X153189591Y-105002182D01*
X153240044Y-105037284D01*
X153243022Y-105041716D01*
X153354998Y-105143607D01*
X153361675Y-105147232D01*
X153361676Y-105147233D01*
X153481370Y-105212222D01*
X153481372Y-105212223D01*
X153488047Y-105215847D01*
X153495396Y-105217775D01*
X153627136Y-105252336D01*
X153627138Y-105252336D01*
X153634486Y-105254264D01*
X153714562Y-105255522D01*
X153778266Y-105256523D01*
X153778269Y-105256523D01*
X153785863Y-105256642D01*
X153933437Y-105222843D01*
X154000731Y-105188998D01*
X154061906Y-105158231D01*
X154061909Y-105158229D01*
X154068689Y-105154819D01*
X154183810Y-105056495D01*
X154272156Y-104933550D01*
X154328624Y-104793080D01*
X154349956Y-104643196D01*
X154350094Y-104630000D01*
X154331906Y-104479701D01*
X154309896Y-104421452D01*
X154281076Y-104345182D01*
X154281075Y-104345179D01*
X154278392Y-104338080D01*
X154192640Y-104213311D01*
X154106210Y-104136305D01*
X154085270Y-104117648D01*
X154085269Y-104117648D01*
X154079603Y-104112599D01*
X154072897Y-104109048D01*
X154072895Y-104109047D01*
X153973336Y-104056334D01*
X153945805Y-104041757D01*
X153798972Y-104004874D01*
X153791374Y-104004834D01*
X153791372Y-104004834D01*
X153726775Y-104004496D01*
X153647579Y-104004082D01*
X153640200Y-104005854D01*
X153640196Y-104005854D01*
X153507746Y-104037652D01*
X153507742Y-104037653D01*
X153500367Y-104039424D01*
X153493622Y-104042905D01*
X153493623Y-104042905D01*
X153420849Y-104080466D01*
X153363059Y-104094500D01*
X152924192Y-104094500D01*
X152902135Y-104101667D01*
X152882912Y-104106282D01*
X152860003Y-104109910D01*
X152845580Y-104117259D01*
X152839336Y-104120440D01*
X152821074Y-104128004D01*
X152808448Y-104132107D01*
X152808446Y-104132108D01*
X152799016Y-104135172D01*
X152790996Y-104140999D01*
X152790994Y-104141000D01*
X152780253Y-104148804D01*
X152763396Y-104159134D01*
X152751566Y-104165162D01*
X152751564Y-104165163D01*
X152742731Y-104169664D01*
X152719324Y-104193071D01*
X152719320Y-104193074D01*
X150932731Y-105979664D01*
X150839664Y-106072731D01*
X150835160Y-106081569D01*
X150835160Y-106081570D01*
X150829135Y-106093394D01*
X150818807Y-106110248D01*
X150805172Y-106129015D01*
X150802107Y-106138449D01*
X150797606Y-106147282D01*
X150795691Y-106146306D01*
X150766292Y-106190802D01*
X150717476Y-106233388D01*
X150717472Y-106233393D01*
X150711749Y-106238385D01*
X150624696Y-106362249D01*
X150569702Y-106503302D01*
X150549941Y-106653402D01*
X140903199Y-106653402D01*
X140885454Y-106460289D01*
X140877051Y-106430492D01*
X140855510Y-106354113D01*
X140825565Y-106247936D01*
X140727980Y-106050053D01*
X140595967Y-105873267D01*
X140433949Y-105723499D01*
X140247350Y-105605764D01*
X140044955Y-105525017D01*
X139989096Y-105481196D01*
X139965795Y-105414132D01*
X139982451Y-105345117D01*
X140033775Y-105296063D01*
X140051144Y-105288674D01*
X140184907Y-105243268D01*
X140184912Y-105243266D01*
X140190379Y-105241410D01*
X140232583Y-105217775D01*
X140270875Y-105196330D01*
X140382884Y-105133602D01*
X140387331Y-105129904D01*
X140548086Y-104996204D01*
X140552518Y-104992518D01*
X140596432Y-104939718D01*
X140689908Y-104827326D01*
X140689910Y-104827323D01*
X140693602Y-104822884D01*
X140801410Y-104630379D01*
X140803266Y-104624912D01*
X140803268Y-104624907D01*
X140870475Y-104426921D01*
X140870476Y-104426916D01*
X140872331Y-104421452D01*
X140873159Y-104415743D01*
X140873160Y-104415738D01*
X140900131Y-104229718D01*
X140903991Y-104203098D01*
X140905643Y-104140000D01*
X140885454Y-103920289D01*
X140825565Y-103707936D01*
X140727980Y-103510053D01*
X140723005Y-103503390D01*
X140599420Y-103337891D01*
X140599420Y-103337890D01*
X140595967Y-103333267D01*
X140447514Y-103196038D01*
X140438189Y-103187418D01*
X140438186Y-103187416D01*
X140433949Y-103183499D01*
X140247350Y-103065764D01*
X140044955Y-102985017D01*
X139989096Y-102941196D01*
X139965795Y-102874132D01*
X139982451Y-102805117D01*
X140033775Y-102756063D01*
X140051144Y-102748674D01*
X140184907Y-102703268D01*
X140184912Y-102703266D01*
X140190379Y-102701410D01*
X140382884Y-102593602D01*
X140387331Y-102589904D01*
X140548086Y-102456204D01*
X140552518Y-102452518D01*
X140610334Y-102383002D01*
X140689908Y-102287326D01*
X140689910Y-102287323D01*
X140693602Y-102282884D01*
X140801410Y-102090379D01*
X140803266Y-102084912D01*
X140803268Y-102084907D01*
X140827541Y-102013402D01*
X144679941Y-102013402D01*
X144696554Y-102163883D01*
X144748582Y-102306057D01*
X144752819Y-102312363D01*
X144752821Y-102312366D01*
X144754799Y-102315309D01*
X144833022Y-102431716D01*
X144944998Y-102533607D01*
X144951675Y-102537232D01*
X144951676Y-102537233D01*
X145071370Y-102602222D01*
X145071372Y-102602223D01*
X145078047Y-102605847D01*
X145085396Y-102607775D01*
X145217136Y-102642336D01*
X145217138Y-102642336D01*
X145224486Y-102644264D01*
X145297580Y-102645412D01*
X145365377Y-102666481D01*
X145384696Y-102682301D01*
X146044239Y-103341845D01*
X146078264Y-103404157D01*
X146073199Y-103474973D01*
X146058230Y-103503390D01*
X145979068Y-103616028D01*
X145974696Y-103622249D01*
X145919702Y-103763302D01*
X145918711Y-103770831D01*
X145903110Y-103889333D01*
X145899941Y-103913402D01*
X145916554Y-104063883D01*
X145968582Y-104206057D01*
X145972819Y-104212363D01*
X145972821Y-104212366D01*
X146011412Y-104269794D01*
X146053022Y-104331716D01*
X146164998Y-104433607D01*
X146171675Y-104437232D01*
X146171676Y-104437233D01*
X146291370Y-104502222D01*
X146291372Y-104502223D01*
X146298047Y-104505847D01*
X146305396Y-104507775D01*
X146437136Y-104542336D01*
X146437138Y-104542336D01*
X146444486Y-104544264D01*
X146524562Y-104545522D01*
X146588266Y-104546523D01*
X146588269Y-104546523D01*
X146595863Y-104546642D01*
X146743437Y-104512843D01*
X146823456Y-104472598D01*
X146871906Y-104448231D01*
X146871909Y-104448229D01*
X146878689Y-104444819D01*
X146993810Y-104346495D01*
X147082156Y-104223550D01*
X147138624Y-104083080D01*
X147159956Y-103933196D01*
X147160094Y-103920000D01*
X147141906Y-103769701D01*
X147125635Y-103726642D01*
X147091076Y-103635182D01*
X147091075Y-103635179D01*
X147088392Y-103628080D01*
X147002640Y-103503311D01*
X146987681Y-103489983D01*
X146950125Y-103429733D01*
X146945500Y-103395907D01*
X146945500Y-103174192D01*
X146938333Y-103152135D01*
X146933718Y-103132912D01*
X146931641Y-103119799D01*
X146930090Y-103110003D01*
X146919560Y-103089336D01*
X146911996Y-103071074D01*
X146907893Y-103058448D01*
X146907892Y-103058446D01*
X146904828Y-103049016D01*
X146891196Y-103030253D01*
X146880866Y-103013396D01*
X146874838Y-103001566D01*
X146874837Y-103001564D01*
X146870336Y-102992731D01*
X146846929Y-102969324D01*
X146846926Y-102969320D01*
X146771008Y-102893402D01*
X147229941Y-102893402D01*
X147246554Y-103043883D01*
X147298582Y-103186057D01*
X147302819Y-103192363D01*
X147302821Y-103192366D01*
X147341412Y-103249794D01*
X147383022Y-103311716D01*
X147494998Y-103413607D01*
X147501675Y-103417232D01*
X147501676Y-103417233D01*
X147621370Y-103482222D01*
X147621372Y-103482223D01*
X147628047Y-103485847D01*
X147635396Y-103487775D01*
X147767136Y-103522336D01*
X147767138Y-103522336D01*
X147774486Y-103524264D01*
X147854562Y-103525522D01*
X147918266Y-103526523D01*
X147918269Y-103526523D01*
X147925863Y-103526642D01*
X148073437Y-103492843D01*
X148153848Y-103452401D01*
X148201906Y-103428231D01*
X148201909Y-103428229D01*
X148208689Y-103424819D01*
X148301337Y-103345689D01*
X148366126Y-103316658D01*
X148383168Y-103315500D01*
X148788435Y-103315500D01*
X148856556Y-103335502D01*
X148873235Y-103348307D01*
X148944998Y-103413607D01*
X148951675Y-103417232D01*
X148951676Y-103417233D01*
X149071370Y-103482222D01*
X149071372Y-103482223D01*
X149078047Y-103485847D01*
X149085396Y-103487775D01*
X149217136Y-103522336D01*
X149217138Y-103522336D01*
X149224486Y-103524264D01*
X149304562Y-103525522D01*
X149368266Y-103526523D01*
X149368269Y-103526523D01*
X149375863Y-103526642D01*
X149523437Y-103492843D01*
X149603848Y-103452401D01*
X149651906Y-103428231D01*
X149651909Y-103428229D01*
X149658689Y-103424819D01*
X149751337Y-103345689D01*
X149816126Y-103316658D01*
X149833168Y-103315500D01*
X150196443Y-103315500D01*
X150264564Y-103335502D01*
X150307414Y-103382864D01*
X150308582Y-103386057D01*
X150312817Y-103392360D01*
X150312819Y-103392363D01*
X150334629Y-103424819D01*
X150393022Y-103511716D01*
X150504998Y-103613607D01*
X150511675Y-103617232D01*
X150511676Y-103617233D01*
X150631370Y-103682222D01*
X150631372Y-103682223D01*
X150638047Y-103685847D01*
X150645396Y-103687775D01*
X150777136Y-103722336D01*
X150777138Y-103722336D01*
X150784486Y-103724264D01*
X150864562Y-103725522D01*
X150928266Y-103726523D01*
X150928269Y-103726523D01*
X150935863Y-103726642D01*
X151083437Y-103692843D01*
X151150731Y-103658998D01*
X151211906Y-103628231D01*
X151211909Y-103628229D01*
X151218689Y-103624819D01*
X151333810Y-103526495D01*
X151404421Y-103428231D01*
X151417724Y-103409718D01*
X151417725Y-103409717D01*
X151422156Y-103403550D01*
X151478624Y-103263080D01*
X151499956Y-103113196D01*
X151500094Y-103100000D01*
X151496717Y-103072089D01*
X151486702Y-102989335D01*
X151481906Y-102949701D01*
X151463485Y-102900952D01*
X151431076Y-102815182D01*
X151431075Y-102815179D01*
X151428392Y-102808080D01*
X151342640Y-102683311D01*
X151251658Y-102602249D01*
X151235270Y-102587648D01*
X151235269Y-102587648D01*
X151229603Y-102582599D01*
X151222897Y-102579048D01*
X151222895Y-102579047D01*
X151143407Y-102536961D01*
X151095805Y-102511757D01*
X150948972Y-102474874D01*
X150941374Y-102474834D01*
X150941372Y-102474834D01*
X150876775Y-102474496D01*
X150797579Y-102474082D01*
X150790198Y-102475854D01*
X150790197Y-102475854D01*
X150783584Y-102477442D01*
X150767304Y-102481350D01*
X150735808Y-102482588D01*
X150735808Y-102484501D01*
X150702704Y-102484501D01*
X150702700Y-102484500D01*
X149831964Y-102484500D01*
X149763843Y-102464498D01*
X149748145Y-102452577D01*
X149675270Y-102387648D01*
X149675269Y-102387648D01*
X149669603Y-102382599D01*
X149662897Y-102379048D01*
X149662895Y-102379047D01*
X149602704Y-102347178D01*
X149535805Y-102311757D01*
X149388972Y-102274874D01*
X149381374Y-102274834D01*
X149381372Y-102274834D01*
X149316775Y-102274496D01*
X149237579Y-102274082D01*
X149230200Y-102275854D01*
X149230196Y-102275854D01*
X149097746Y-102307652D01*
X149097742Y-102307653D01*
X149090367Y-102309424D01*
X148955835Y-102378861D01*
X148870332Y-102453450D01*
X148805853Y-102483157D01*
X148787505Y-102484500D01*
X148381964Y-102484500D01*
X148313843Y-102464498D01*
X148298145Y-102452577D01*
X148225270Y-102387648D01*
X148225269Y-102387648D01*
X148219603Y-102382599D01*
X148212897Y-102379048D01*
X148212895Y-102379047D01*
X148152704Y-102347178D01*
X148085805Y-102311757D01*
X147938972Y-102274874D01*
X147931374Y-102274834D01*
X147931372Y-102274834D01*
X147866775Y-102274496D01*
X147787579Y-102274082D01*
X147780200Y-102275854D01*
X147780196Y-102275854D01*
X147647746Y-102307652D01*
X147647742Y-102307653D01*
X147640367Y-102309424D01*
X147505835Y-102378861D01*
X147500115Y-102383851D01*
X147500111Y-102383854D01*
X147397474Y-102473390D01*
X147397471Y-102473393D01*
X147391749Y-102478385D01*
X147369594Y-102509908D01*
X147314958Y-102587648D01*
X147304696Y-102602249D01*
X147249702Y-102743302D01*
X147229941Y-102893402D01*
X146771008Y-102893402D01*
X145976349Y-102098743D01*
X145942323Y-102036431D01*
X145940099Y-102019999D01*
X145940094Y-102020000D01*
X145940050Y-102019639D01*
X145921906Y-101869701D01*
X145868392Y-101728080D01*
X145782640Y-101603311D01*
X145669603Y-101502599D01*
X145662897Y-101499048D01*
X145662895Y-101499047D01*
X145602704Y-101467178D01*
X145535805Y-101431757D01*
X145388972Y-101394874D01*
X145381374Y-101394834D01*
X145381372Y-101394834D01*
X145316775Y-101394496D01*
X145237579Y-101394082D01*
X145230200Y-101395854D01*
X145230196Y-101395854D01*
X145097746Y-101427652D01*
X145097742Y-101427653D01*
X145090367Y-101429424D01*
X144955835Y-101498861D01*
X144950113Y-101503853D01*
X144950111Y-101503854D01*
X144847474Y-101593390D01*
X144847471Y-101593393D01*
X144841749Y-101598385D01*
X144754696Y-101722249D01*
X144699702Y-101863302D01*
X144698711Y-101870831D01*
X144681383Y-102002452D01*
X144679941Y-102013402D01*
X140827541Y-102013402D01*
X140870475Y-101886921D01*
X140870476Y-101886916D01*
X140872331Y-101881452D01*
X140873159Y-101875743D01*
X140873160Y-101875738D01*
X140903458Y-101666772D01*
X140903991Y-101663098D01*
X140905643Y-101600000D01*
X140885454Y-101380289D01*
X140825565Y-101167936D01*
X140727980Y-100970053D01*
X140595967Y-100793267D01*
X140433949Y-100643499D01*
X140247350Y-100525764D01*
X140044955Y-100445017D01*
X139989096Y-100401196D01*
X139965795Y-100334132D01*
X139982451Y-100265117D01*
X140033775Y-100216063D01*
X140051144Y-100208674D01*
X140184907Y-100163268D01*
X140184912Y-100163266D01*
X140190379Y-100161410D01*
X140382884Y-100053602D01*
X140387331Y-100049904D01*
X140548086Y-99916204D01*
X140552518Y-99912518D01*
X140693602Y-99742884D01*
X140801410Y-99550379D01*
X140803266Y-99544912D01*
X140803268Y-99544907D01*
X140870475Y-99346921D01*
X140870476Y-99346916D01*
X140872331Y-99341452D01*
X140873159Y-99335743D01*
X140873160Y-99335738D01*
X140903458Y-99126772D01*
X140903991Y-99123098D01*
X140905643Y-99060000D01*
X140885454Y-98840289D01*
X140825565Y-98627936D01*
X140727980Y-98430053D01*
X140595967Y-98253267D01*
X140433949Y-98103499D01*
X140248702Y-97986617D01*
X140248700Y-97986615D01*
X140247350Y-97985764D01*
X140247517Y-97985499D01*
X140198071Y-97938802D01*
X140181002Y-97869888D01*
X140203901Y-97802686D01*
X140251454Y-97762129D01*
X140393095Y-97692739D01*
X140401945Y-97687464D01*
X140575328Y-97563792D01*
X140583200Y-97557139D01*
X140734052Y-97406812D01*
X140740730Y-97398965D01*
X140865003Y-97226020D01*
X140870313Y-97217183D01*
X140964670Y-97026267D01*
X140968469Y-97016672D01*
X141030377Y-96812910D01*
X141032555Y-96802837D01*
X141033986Y-96791962D01*
X141031775Y-96777778D01*
X141018617Y-96774000D01*
X139572000Y-96774000D01*
X139503879Y-96753998D01*
X139457386Y-96700342D01*
X139446000Y-96648000D01*
X139446000Y-96392000D01*
X139466002Y-96323879D01*
X139519658Y-96277386D01*
X139572000Y-96266000D01*
X141018344Y-96266000D01*
X141031875Y-96262027D01*
X141033180Y-96252947D01*
X140991214Y-96085875D01*
X140987894Y-96076124D01*
X140902972Y-95880814D01*
X140898105Y-95871739D01*
X140782426Y-95692926D01*
X140776136Y-95684757D01*
X140632806Y-95527240D01*
X140625273Y-95520215D01*
X140458139Y-95388222D01*
X140449552Y-95382517D01*
X140263115Y-95279598D01*
X140254687Y-95275810D01*
X140200752Y-95229641D01*
X140180340Y-95161642D01*
X140199932Y-95093402D01*
X140244771Y-95050949D01*
X140348566Y-94992821D01*
X140382884Y-94973602D01*
X140387331Y-94969904D01*
X140548086Y-94836204D01*
X140552518Y-94832518D01*
X140619500Y-94751981D01*
X140689908Y-94667326D01*
X140689910Y-94667323D01*
X140693602Y-94662884D01*
X140801410Y-94470379D01*
X140803266Y-94464912D01*
X140803268Y-94464907D01*
X140839409Y-94358440D01*
X152534770Y-94358440D01*
X152549200Y-94578604D01*
X152550621Y-94584200D01*
X152550622Y-94584205D01*
X152597054Y-94767029D01*
X152603511Y-94792452D01*
X152605928Y-94797694D01*
X152605928Y-94797695D01*
X152644046Y-94880379D01*
X152695883Y-94992821D01*
X152823222Y-95173002D01*
X152981264Y-95326961D01*
X152986060Y-95330166D01*
X152986063Y-95330168D01*
X153071975Y-95387572D01*
X153164717Y-95449540D01*
X153170020Y-95451818D01*
X153170023Y-95451820D01*
X153362129Y-95534355D01*
X153367436Y-95536635D01*
X153447088Y-95554658D01*
X153576995Y-95584054D01*
X153577001Y-95584055D01*
X153582632Y-95585329D01*
X153588403Y-95585556D01*
X153588405Y-95585556D01*
X153656211Y-95588220D01*
X153803098Y-95593991D01*
X153912275Y-95578161D01*
X154015738Y-95563160D01*
X154015743Y-95563159D01*
X154021452Y-95562331D01*
X154026916Y-95560476D01*
X154026921Y-95560475D01*
X154224907Y-95493268D01*
X154224912Y-95493266D01*
X154230379Y-95491410D01*
X154422884Y-95383602D01*
X154430260Y-95377468D01*
X154588086Y-95246204D01*
X154592518Y-95242518D01*
X154667526Y-95152331D01*
X154729908Y-95077326D01*
X154729910Y-95077323D01*
X154733602Y-95072884D01*
X154807737Y-94940506D01*
X154838586Y-94885422D01*
X154838587Y-94885420D01*
X154841410Y-94880379D01*
X154843266Y-94874912D01*
X154843268Y-94874907D01*
X154910475Y-94676921D01*
X154910476Y-94676916D01*
X154912331Y-94671452D01*
X154913159Y-94665743D01*
X154913160Y-94665738D01*
X154943458Y-94456772D01*
X154943991Y-94453098D01*
X154945643Y-94390000D01*
X154925454Y-94170289D01*
X154923353Y-94162837D01*
X154872832Y-93983704D01*
X154865565Y-93957936D01*
X154767980Y-93760053D01*
X154764002Y-93754725D01*
X154639420Y-93587891D01*
X154639420Y-93587890D01*
X154635967Y-93583267D01*
X154473949Y-93433499D01*
X154287350Y-93315764D01*
X154247348Y-93299805D01*
X154231620Y-93293530D01*
X154175760Y-93249709D01*
X154152460Y-93182645D01*
X154169116Y-93113630D01*
X154220440Y-93064576D01*
X154278310Y-93050500D01*
X154623218Y-93050500D01*
X154627768Y-93049830D01*
X154627771Y-93049830D01*
X154682426Y-93041784D01*
X154682427Y-93041784D01*
X154692112Y-93040358D01*
X154742008Y-93015860D01*
X154787507Y-92993522D01*
X154787509Y-92993521D01*
X154796855Y-92988932D01*
X154879293Y-92906350D01*
X154930536Y-92801518D01*
X154934984Y-92771027D01*
X154939840Y-92737744D01*
X154939840Y-92737740D01*
X154940500Y-92733218D01*
X154940500Y-90966782D01*
X154931871Y-90908162D01*
X154931784Y-90907574D01*
X154931784Y-90907573D01*
X154930358Y-90897888D01*
X154889777Y-90815234D01*
X154883522Y-90802493D01*
X154883521Y-90802491D01*
X154878932Y-90793145D01*
X154796350Y-90710707D01*
X154691518Y-90659464D01*
X154661027Y-90655016D01*
X154627744Y-90650160D01*
X154627740Y-90650160D01*
X154623218Y-90649500D01*
X152856782Y-90649500D01*
X152852232Y-90650170D01*
X152852229Y-90650170D01*
X152797574Y-90658216D01*
X152797573Y-90658216D01*
X152787888Y-90659642D01*
X152737992Y-90684140D01*
X152692493Y-90706478D01*
X152692491Y-90706479D01*
X152683145Y-90711068D01*
X152600707Y-90793650D01*
X152596134Y-90803006D01*
X152596133Y-90803007D01*
X152580270Y-90835460D01*
X152549464Y-90898482D01*
X152539500Y-90966782D01*
X152539500Y-92733218D01*
X152540170Y-92737768D01*
X152540170Y-92737771D01*
X152548216Y-92792426D01*
X152549642Y-92802112D01*
X152560888Y-92825017D01*
X152595128Y-92894756D01*
X152601068Y-92906855D01*
X152683650Y-92989293D01*
X152788482Y-93040536D01*
X152818973Y-93044984D01*
X152852256Y-93049840D01*
X152852260Y-93049840D01*
X152856782Y-93050500D01*
X153196570Y-93050500D01*
X153264691Y-93070502D01*
X153311184Y-93124158D01*
X153321288Y-93194432D01*
X153291794Y-93259012D01*
X153240180Y-93294712D01*
X153231382Y-93297958D01*
X153220957Y-93301804D01*
X153215996Y-93304756D01*
X153215995Y-93304756D01*
X153131150Y-93355234D01*
X153031341Y-93414614D01*
X152865457Y-93560090D01*
X152728863Y-93733360D01*
X152626131Y-93928620D01*
X152560703Y-94139333D01*
X152534770Y-94358440D01*
X140839409Y-94358440D01*
X140870475Y-94266921D01*
X140870476Y-94266916D01*
X140872331Y-94261452D01*
X140873159Y-94255743D01*
X140873160Y-94255738D01*
X140903458Y-94046772D01*
X140903991Y-94043098D01*
X140905643Y-93980000D01*
X140885454Y-93760289D01*
X140879301Y-93738470D01*
X140828993Y-93560090D01*
X140825565Y-93547936D01*
X140727980Y-93350053D01*
X140595967Y-93173267D01*
X140478386Y-93064576D01*
X140438189Y-93027418D01*
X140438186Y-93027416D01*
X140433949Y-93023499D01*
X140247350Y-92905764D01*
X140044955Y-92825017D01*
X139989096Y-92781196D01*
X139965795Y-92714132D01*
X139982451Y-92645117D01*
X140033775Y-92596063D01*
X140051144Y-92588674D01*
X140184907Y-92543268D01*
X140184912Y-92543266D01*
X140190379Y-92541410D01*
X140382884Y-92433602D01*
X140387331Y-92429904D01*
X140548086Y-92296204D01*
X140552518Y-92292518D01*
X140693602Y-92122884D01*
X140801410Y-91930379D01*
X140803266Y-91924912D01*
X140803268Y-91924907D01*
X140870475Y-91726921D01*
X140870476Y-91726916D01*
X140872331Y-91721452D01*
X140873159Y-91715743D01*
X140873160Y-91715738D01*
X140903458Y-91506772D01*
X140903991Y-91503098D01*
X140905643Y-91440000D01*
X140885454Y-91220289D01*
X140825565Y-91007936D01*
X140727980Y-90810053D01*
X140722719Y-90803007D01*
X140599420Y-90637891D01*
X140599420Y-90637890D01*
X140595967Y-90633267D01*
X140433949Y-90483499D01*
X140247350Y-90365764D01*
X140044955Y-90285017D01*
X139989096Y-90241196D01*
X139965795Y-90174132D01*
X139982451Y-90105117D01*
X140033775Y-90056063D01*
X140051144Y-90048674D01*
X140184907Y-90003268D01*
X140184912Y-90003266D01*
X140190379Y-90001410D01*
X140382884Y-89893602D01*
X140387331Y-89889904D01*
X140548086Y-89756204D01*
X140552518Y-89752518D01*
X140693602Y-89582884D01*
X140801410Y-89390379D01*
X140803266Y-89384912D01*
X140803268Y-89384907D01*
X140870475Y-89186921D01*
X140870476Y-89186916D01*
X140872331Y-89181452D01*
X140873159Y-89175743D01*
X140873160Y-89175738D01*
X140903458Y-88966772D01*
X140903991Y-88963098D01*
X140905643Y-88900000D01*
X140885454Y-88680289D01*
X140825565Y-88467936D01*
X140727980Y-88270053D01*
X140595967Y-88093267D01*
X140433949Y-87943499D01*
X140247350Y-87825764D01*
X140044955Y-87745017D01*
X139989096Y-87701196D01*
X139965795Y-87634132D01*
X139982451Y-87565117D01*
X140033775Y-87516063D01*
X140051144Y-87508674D01*
X140184907Y-87463268D01*
X140184912Y-87463266D01*
X140190379Y-87461410D01*
X140382884Y-87353602D01*
X140387331Y-87349904D01*
X140548086Y-87216204D01*
X140552518Y-87212518D01*
X140661941Y-87080952D01*
X140689908Y-87047326D01*
X140689910Y-87047323D01*
X140693602Y-87042884D01*
X140801410Y-86850379D01*
X140803266Y-86844912D01*
X140803268Y-86844907D01*
X140870475Y-86646921D01*
X140870476Y-86646916D01*
X140872331Y-86641452D01*
X140873159Y-86635743D01*
X140873160Y-86635738D01*
X140899115Y-86456725D01*
X140903991Y-86423098D01*
X140905643Y-86360000D01*
X140885454Y-86140289D01*
X140825565Y-85927936D01*
X140727980Y-85730053D01*
X140595967Y-85553267D01*
X140433949Y-85403499D01*
X140248702Y-85286617D01*
X140248700Y-85286615D01*
X140247350Y-85285764D01*
X140247517Y-85285499D01*
X140198071Y-85238802D01*
X140181002Y-85169888D01*
X140203901Y-85102686D01*
X140251454Y-85062129D01*
X140393095Y-84992739D01*
X140401945Y-84987464D01*
X140575328Y-84863792D01*
X140583200Y-84857139D01*
X140734052Y-84706812D01*
X140740730Y-84698965D01*
X140865003Y-84526020D01*
X140870313Y-84517183D01*
X140964670Y-84326267D01*
X140968469Y-84316672D01*
X141030377Y-84112910D01*
X141032555Y-84102837D01*
X141033986Y-84091962D01*
X141031775Y-84077778D01*
X141018617Y-84074000D01*
X139572000Y-84074000D01*
X139503879Y-84053998D01*
X139457386Y-84000342D01*
X139446000Y-83948000D01*
X139446000Y-83692000D01*
X139466002Y-83623879D01*
X139519658Y-83577386D01*
X139572000Y-83566000D01*
X141018344Y-83566000D01*
X141031875Y-83562027D01*
X141033180Y-83552947D01*
X140991214Y-83385875D01*
X140987894Y-83376124D01*
X140902972Y-83180814D01*
X140898105Y-83171739D01*
X140782426Y-82992926D01*
X140776136Y-82984757D01*
X140632806Y-82827240D01*
X140625273Y-82820215D01*
X140458139Y-82688222D01*
X140449552Y-82682517D01*
X140263115Y-82579598D01*
X140254687Y-82575810D01*
X140200752Y-82529641D01*
X140180340Y-82461642D01*
X140199932Y-82393402D01*
X140244771Y-82350949D01*
X140319817Y-82308921D01*
X140382884Y-82273602D01*
X140387331Y-82269904D01*
X140548086Y-82136204D01*
X140552518Y-82132518D01*
X140630236Y-82039073D01*
X140689908Y-81967326D01*
X140689910Y-81967323D01*
X140693602Y-81962884D01*
X140801410Y-81770379D01*
X140803266Y-81764912D01*
X140803268Y-81764907D01*
X140870475Y-81566921D01*
X140870476Y-81566916D01*
X140872331Y-81561452D01*
X140873159Y-81555743D01*
X140873160Y-81555738D01*
X140903458Y-81346772D01*
X140903991Y-81343098D01*
X140905643Y-81280000D01*
X140885454Y-81060289D01*
X140825565Y-80847936D01*
X140727980Y-80650053D01*
X140595967Y-80473267D01*
X140433949Y-80323499D01*
X140247350Y-80205764D01*
X140207346Y-80189804D01*
X140191620Y-80183530D01*
X140135760Y-80139709D01*
X140112460Y-80072645D01*
X140129116Y-80003630D01*
X140180440Y-79954576D01*
X140238310Y-79940500D01*
X140583218Y-79940500D01*
X140587768Y-79939830D01*
X140587771Y-79939830D01*
X140642426Y-79931784D01*
X140642427Y-79931784D01*
X140652112Y-79930358D01*
X140721963Y-79896063D01*
X140747507Y-79883522D01*
X140747509Y-79883521D01*
X140756855Y-79878932D01*
X140839293Y-79796350D01*
X140890536Y-79691518D01*
X140900500Y-79623218D01*
X140900500Y-77856782D01*
X140890358Y-77787888D01*
X140838932Y-77683145D01*
X140756350Y-77600707D01*
X140726562Y-77586146D01*
X140702652Y-77574459D01*
X140651518Y-77549464D01*
X140619829Y-77544841D01*
X140587744Y-77540160D01*
X140587740Y-77540160D01*
X140583218Y-77539500D01*
X138906500Y-77539500D01*
X138838379Y-77519498D01*
X138791886Y-77465842D01*
X138780500Y-77413500D01*
X138780500Y-76011863D01*
X145928050Y-76011863D01*
X145940309Y-76224477D01*
X145941745Y-76234697D01*
X145988565Y-76442446D01*
X145991645Y-76452275D01*
X146071770Y-76649603D01*
X146076413Y-76658794D01*
X146176169Y-76821582D01*
X146194707Y-76890116D01*
X146173250Y-76957793D01*
X146158242Y-76976031D01*
X146158065Y-76976279D01*
X146150707Y-76983650D01*
X146099464Y-77088482D01*
X146089500Y-77156782D01*
X146089500Y-78923218D01*
X146090170Y-78927768D01*
X146090170Y-78927771D01*
X146098216Y-78982426D01*
X146099642Y-78992112D01*
X146103958Y-79000902D01*
X146144944Y-79084381D01*
X146151068Y-79096855D01*
X146233650Y-79179293D01*
X146243006Y-79183866D01*
X146243007Y-79183867D01*
X146275460Y-79199730D01*
X146338482Y-79230536D01*
X146362597Y-79234054D01*
X146402256Y-79239840D01*
X146402260Y-79239840D01*
X146406782Y-79240500D01*
X148173218Y-79240500D01*
X148177768Y-79239830D01*
X148177771Y-79239830D01*
X148232426Y-79231784D01*
X148232427Y-79231784D01*
X148242112Y-79230358D01*
X148336804Y-79183867D01*
X148337507Y-79183522D01*
X148337509Y-79183521D01*
X148346855Y-79178932D01*
X148429293Y-79096350D01*
X148480536Y-78991518D01*
X148488897Y-78934205D01*
X148489840Y-78927744D01*
X148489840Y-78927740D01*
X148490500Y-78923218D01*
X148490500Y-78663128D01*
X148510502Y-78595007D01*
X148564158Y-78548514D01*
X148634432Y-78538410D01*
X148699012Y-78567904D01*
X148730926Y-78610377D01*
X148745883Y-78642821D01*
X148873222Y-78823002D01*
X149031264Y-78976961D01*
X149036060Y-78980166D01*
X149036063Y-78980168D01*
X149125556Y-79039965D01*
X149214717Y-79099540D01*
X149220020Y-79101818D01*
X149220023Y-79101820D01*
X149383221Y-79171935D01*
X149417436Y-79186635D01*
X149497088Y-79204658D01*
X149626995Y-79234054D01*
X149627001Y-79234055D01*
X149632632Y-79235329D01*
X149638403Y-79235556D01*
X149638405Y-79235556D01*
X149706211Y-79238220D01*
X149853098Y-79243991D01*
X149981748Y-79225338D01*
X150065730Y-79213161D01*
X150065734Y-79213160D01*
X150071452Y-79212331D01*
X150076925Y-79210473D01*
X150076930Y-79210472D01*
X150160326Y-79182163D01*
X150231261Y-79179207D01*
X150289923Y-79212381D01*
X150587596Y-79510055D01*
X150621621Y-79572367D01*
X150624500Y-79599150D01*
X150624500Y-81564622D01*
X150601587Y-81637073D01*
X150541572Y-81722466D01*
X150534696Y-81732249D01*
X150479702Y-81873302D01*
X150478711Y-81880831D01*
X150467324Y-81967326D01*
X150459941Y-82023402D01*
X150476554Y-82173883D01*
X150528582Y-82316057D01*
X150532819Y-82322363D01*
X150532821Y-82322366D01*
X150555713Y-82356432D01*
X150613022Y-82441716D01*
X150724998Y-82543607D01*
X150731675Y-82547232D01*
X150731676Y-82547233D01*
X150851370Y-82612222D01*
X150851372Y-82612223D01*
X150858047Y-82615847D01*
X150865396Y-82617775D01*
X150997136Y-82652336D01*
X150997138Y-82652336D01*
X151004486Y-82654264D01*
X151084562Y-82655522D01*
X151148266Y-82656523D01*
X151148269Y-82656523D01*
X151155863Y-82656642D01*
X151303437Y-82622843D01*
X151396953Y-82575810D01*
X151431906Y-82558231D01*
X151431909Y-82558229D01*
X151438689Y-82554819D01*
X151444462Y-82549888D01*
X151444467Y-82549885D01*
X151544370Y-82464558D01*
X151609159Y-82435526D01*
X151679359Y-82446130D01*
X151711001Y-82467175D01*
X151794998Y-82543607D01*
X151801675Y-82547232D01*
X151801676Y-82547233D01*
X151921370Y-82612222D01*
X151921372Y-82612223D01*
X151928047Y-82615847D01*
X151935396Y-82617775D01*
X152067136Y-82652336D01*
X152067138Y-82652336D01*
X152074486Y-82654264D01*
X152154562Y-82655522D01*
X152218266Y-82656523D01*
X152218269Y-82656523D01*
X152225863Y-82656642D01*
X152373437Y-82622843D01*
X152466953Y-82575810D01*
X152501906Y-82558231D01*
X152501909Y-82558229D01*
X152508689Y-82554819D01*
X152623810Y-82456495D01*
X152695713Y-82356432D01*
X152707724Y-82339718D01*
X152707725Y-82339717D01*
X152712156Y-82333550D01*
X152768624Y-82193080D01*
X152789956Y-82043196D01*
X152790094Y-82030000D01*
X152771906Y-81879701D01*
X152718392Y-81738080D01*
X152707659Y-81722464D01*
X152685500Y-81651098D01*
X152685500Y-78527373D01*
X152686739Y-78516277D01*
X152686141Y-78516229D01*
X152686861Y-78507283D01*
X152688842Y-78498527D01*
X152685742Y-78448553D01*
X152685500Y-78440752D01*
X152685500Y-78425855D01*
X152684159Y-78416490D01*
X152683129Y-78406430D01*
X152680965Y-78371546D01*
X152680409Y-78362583D01*
X152677359Y-78354135D01*
X152676067Y-78347896D01*
X152674138Y-78340158D01*
X152672353Y-78334054D01*
X152671081Y-78325171D01*
X152652893Y-78285167D01*
X152649081Y-78275803D01*
X152637209Y-78242919D01*
X152637209Y-78242918D01*
X152634159Y-78234471D01*
X152628860Y-78227218D01*
X152625856Y-78221569D01*
X152621856Y-78214725D01*
X152618424Y-78209358D01*
X152614706Y-78201180D01*
X152586021Y-78167890D01*
X152579731Y-78159969D01*
X152572423Y-78149965D01*
X152562382Y-78139924D01*
X152556024Y-78133077D01*
X152531657Y-78104798D01*
X152525796Y-78097996D01*
X152518261Y-78093112D01*
X152511499Y-78087213D01*
X152511569Y-78087133D01*
X152501206Y-78078748D01*
X150962380Y-76539922D01*
X150928354Y-76477610D01*
X150932162Y-76410327D01*
X150954629Y-76344141D01*
X150960473Y-76326926D01*
X150960473Y-76326924D01*
X150962331Y-76321452D01*
X150993991Y-76103098D01*
X150995643Y-76040000D01*
X150975454Y-75820289D01*
X150915565Y-75607936D01*
X150817980Y-75410053D01*
X150811086Y-75400820D01*
X150689420Y-75237891D01*
X150689420Y-75237890D01*
X150685967Y-75233267D01*
X150588586Y-75143249D01*
X150540562Y-75098856D01*
X153156601Y-75098856D01*
X153163059Y-75108216D01*
X153179361Y-75122512D01*
X153185901Y-75127530D01*
X153425144Y-75287387D01*
X153432281Y-75291508D01*
X153690349Y-75418772D01*
X153697953Y-75421922D01*
X153970420Y-75514412D01*
X153978383Y-75516546D01*
X154260600Y-75572683D01*
X154268751Y-75573756D01*
X154555881Y-75592575D01*
X154564119Y-75592575D01*
X154851249Y-75573756D01*
X154859400Y-75572683D01*
X155141617Y-75516546D01*
X155149580Y-75514412D01*
X155422047Y-75421922D01*
X155429651Y-75418772D01*
X155687719Y-75291508D01*
X155694856Y-75287387D01*
X155934099Y-75127530D01*
X155940639Y-75122512D01*
X155955074Y-75109853D01*
X155963472Y-75096614D01*
X155957638Y-75086849D01*
X154572810Y-73702020D01*
X154558869Y-73694408D01*
X154557034Y-73694539D01*
X154550420Y-73698790D01*
X153164116Y-75085095D01*
X153156601Y-75098856D01*
X150540562Y-75098856D01*
X150528189Y-75087418D01*
X150528186Y-75087416D01*
X150523949Y-75083499D01*
X150337350Y-74965764D01*
X150132421Y-74884006D01*
X150126761Y-74882880D01*
X150126757Y-74882879D01*
X149921691Y-74842089D01*
X149921688Y-74842089D01*
X149916024Y-74840962D01*
X149910249Y-74840886D01*
X149910245Y-74840886D01*
X149799504Y-74839437D01*
X149695406Y-74838074D01*
X149689709Y-74839053D01*
X149689708Y-74839053D01*
X149483654Y-74874459D01*
X149483653Y-74874459D01*
X149477957Y-74875438D01*
X149270957Y-74951804D01*
X149081341Y-75064614D01*
X148915457Y-75210090D01*
X148778863Y-75383360D01*
X148776174Y-75388471D01*
X148776172Y-75388474D01*
X148740490Y-75456294D01*
X148691071Y-75507267D01*
X148621938Y-75523430D01*
X148555042Y-75499651D01*
X148513433Y-75447870D01*
X148492975Y-75400820D01*
X148488105Y-75391739D01*
X148423063Y-75291197D01*
X148412377Y-75281995D01*
X148402812Y-75286398D01*
X147379095Y-76310115D01*
X147316783Y-76344141D01*
X147245968Y-76339076D01*
X147200905Y-76310115D01*
X146179849Y-75289059D01*
X146168313Y-75282759D01*
X146156031Y-75292382D01*
X146108089Y-75362662D01*
X146103004Y-75371613D01*
X146013338Y-75564783D01*
X146009775Y-75574470D01*
X145952864Y-75779681D01*
X145950933Y-75789800D01*
X145928302Y-76001574D01*
X145928050Y-76011863D01*
X138780500Y-76011863D01*
X138780500Y-75098856D01*
X141116601Y-75098856D01*
X141123059Y-75108216D01*
X141139361Y-75122512D01*
X141145901Y-75127530D01*
X141385144Y-75287387D01*
X141392281Y-75291508D01*
X141650349Y-75418772D01*
X141657953Y-75421922D01*
X141930420Y-75514412D01*
X141938383Y-75516546D01*
X142220600Y-75572683D01*
X142228751Y-75573756D01*
X142515881Y-75592575D01*
X142524119Y-75592575D01*
X142811249Y-75573756D01*
X142819400Y-75572683D01*
X143101617Y-75516546D01*
X143109580Y-75514412D01*
X143382047Y-75421922D01*
X143389651Y-75418772D01*
X143647719Y-75291508D01*
X143654856Y-75287387D01*
X143894099Y-75127530D01*
X143900639Y-75122512D01*
X143915074Y-75109853D01*
X143923472Y-75096614D01*
X143917638Y-75086849D01*
X143747216Y-74916427D01*
X146531223Y-74916427D01*
X146537968Y-74928758D01*
X147277188Y-75667978D01*
X147291132Y-75675592D01*
X147292965Y-75675461D01*
X147299580Y-75671210D01*
X148043389Y-74927401D01*
X148050410Y-74914544D01*
X148043611Y-74905213D01*
X148039554Y-74902518D01*
X147853117Y-74799599D01*
X147843705Y-74795369D01*
X147642959Y-74724280D01*
X147632989Y-74721646D01*
X147423327Y-74684301D01*
X147413073Y-74683331D01*
X147200116Y-74680728D01*
X147189832Y-74681448D01*
X146979321Y-74713661D01*
X146969293Y-74716050D01*
X146766868Y-74782212D01*
X146757359Y-74786209D01*
X146568466Y-74884540D01*
X146559734Y-74890039D01*
X146539677Y-74905099D01*
X146531223Y-74916427D01*
X143747216Y-74916427D01*
X142532810Y-73702020D01*
X142518869Y-73694408D01*
X142517034Y-73694539D01*
X142510420Y-73698790D01*
X141124116Y-75085095D01*
X141116601Y-75098856D01*
X138780500Y-75098856D01*
X138780500Y-73334119D01*
X140257425Y-73334119D01*
X140276244Y-73621249D01*
X140277317Y-73629400D01*
X140333454Y-73911617D01*
X140335588Y-73919580D01*
X140428078Y-74192047D01*
X140431228Y-74199651D01*
X140558492Y-74457718D01*
X140562613Y-74464855D01*
X140722470Y-74704099D01*
X140727488Y-74710639D01*
X140740147Y-74725074D01*
X140753386Y-74733472D01*
X140763151Y-74727638D01*
X142147980Y-73342810D01*
X142154357Y-73331131D01*
X142884408Y-73331131D01*
X142884539Y-73332966D01*
X142888790Y-73339580D01*
X144275095Y-74725884D01*
X144288856Y-74733399D01*
X144298216Y-74726941D01*
X144312512Y-74710639D01*
X144317530Y-74704099D01*
X144477387Y-74464855D01*
X144481508Y-74457718D01*
X144608772Y-74199651D01*
X144611922Y-74192047D01*
X144704412Y-73919580D01*
X144706546Y-73911617D01*
X144762683Y-73629400D01*
X144763756Y-73621249D01*
X144782575Y-73334119D01*
X152297425Y-73334119D01*
X152316244Y-73621249D01*
X152317317Y-73629400D01*
X152373454Y-73911617D01*
X152375588Y-73919580D01*
X152468078Y-74192047D01*
X152471228Y-74199651D01*
X152598492Y-74457718D01*
X152602613Y-74464855D01*
X152762470Y-74704099D01*
X152767488Y-74710639D01*
X152780147Y-74725074D01*
X152793386Y-74733472D01*
X152803151Y-74727638D01*
X154187980Y-73342810D01*
X154194357Y-73331131D01*
X154924408Y-73331131D01*
X154924539Y-73332966D01*
X154928790Y-73339580D01*
X156315095Y-74725884D01*
X156328856Y-74733399D01*
X156338216Y-74726941D01*
X156352512Y-74710639D01*
X156357530Y-74704099D01*
X156517387Y-74464855D01*
X156521508Y-74457718D01*
X156648772Y-74199651D01*
X156651922Y-74192047D01*
X156744412Y-73919580D01*
X156746546Y-73911617D01*
X156802683Y-73629400D01*
X156803756Y-73621249D01*
X156822575Y-73334119D01*
X156822575Y-73325881D01*
X156803756Y-73038751D01*
X156802683Y-73030600D01*
X156746546Y-72748383D01*
X156744412Y-72740420D01*
X156651922Y-72467953D01*
X156648772Y-72460349D01*
X156521508Y-72202282D01*
X156517387Y-72195145D01*
X156357530Y-71955901D01*
X156352512Y-71949361D01*
X156339853Y-71934926D01*
X156326614Y-71926528D01*
X156316849Y-71932362D01*
X154932020Y-73317190D01*
X154924408Y-73331131D01*
X154194357Y-73331131D01*
X154195592Y-73328869D01*
X154195461Y-73327034D01*
X154191210Y-73320420D01*
X152804905Y-71934116D01*
X152791144Y-71926601D01*
X152781784Y-71933059D01*
X152767488Y-71949361D01*
X152762470Y-71955901D01*
X152602613Y-72195145D01*
X152598492Y-72202282D01*
X152471228Y-72460349D01*
X152468078Y-72467953D01*
X152375588Y-72740420D01*
X152373454Y-72748383D01*
X152317317Y-73030600D01*
X152316244Y-73038751D01*
X152297425Y-73325881D01*
X152297425Y-73334119D01*
X144782575Y-73334119D01*
X144782575Y-73325881D01*
X144763756Y-73038751D01*
X144762683Y-73030600D01*
X144706546Y-72748383D01*
X144704412Y-72740420D01*
X144611922Y-72467953D01*
X144608772Y-72460349D01*
X144481508Y-72202282D01*
X144477387Y-72195145D01*
X144317530Y-71955901D01*
X144312512Y-71949361D01*
X144299853Y-71934926D01*
X144286614Y-71926528D01*
X144276849Y-71932362D01*
X142892020Y-73317190D01*
X142884408Y-73331131D01*
X142154357Y-73331131D01*
X142155592Y-73328869D01*
X142155461Y-73327034D01*
X142151210Y-73320420D01*
X140764905Y-71934116D01*
X140751144Y-71926601D01*
X140741784Y-71933059D01*
X140727488Y-71949361D01*
X140722470Y-71955901D01*
X140562613Y-72195145D01*
X140558492Y-72202282D01*
X140431228Y-72460349D01*
X140428078Y-72467953D01*
X140335588Y-72740420D01*
X140333454Y-72748383D01*
X140277317Y-73030600D01*
X140276244Y-73038751D01*
X140257425Y-73325881D01*
X140257425Y-73334119D01*
X138780500Y-73334119D01*
X138780500Y-70961500D01*
X138800502Y-70893379D01*
X138854158Y-70846886D01*
X138906500Y-70835500D01*
X142210959Y-70835500D01*
X142279080Y-70855502D01*
G37*
%TD.AperFunction*%
%TD*%
M02*
