M48
; DRILL file {KiCad (6.0.11)} date Fri Feb 23 15:03:41 2024
; FORMAT={-:-/ absolute / inch / decimal}
; #@! TF.CreationDate,2024-02-23T15:03:41-06:00
; #@! TF.GenerationSoftware,Kicad,Pcbnew,(6.0.11)
; #@! TF.FileFunction,Plated,1,2,PTH
FMAT,2
INCH
; #@! TA.AperFunction,Plated,PTH,ViaDrill
T1C0.0138
; #@! TA.AperFunction,Plated,PTH,ComponentDrill
T2C0.0362
; #@! TA.AperFunction,Plated,PTH,ComponentDrill
T3C0.0394
; #@! TA.AperFunction,Plated,PTH,ComponentDrill
T4C0.0917
%
G90
G05
T1
X5.6031Y-4.1898
X5.6213Y-4.3362
X5.6276Y-3.4461
X5.6709Y-3.9768
X5.6799Y-4.3295
X5.6878Y-5.0248
X5.6945Y-4.8043
X5.6961Y-3.8331
X5.6972Y-3.9969
X5.7209Y-4.0165
X5.7441Y-3.1772
X5.75Y-4.4945
X5.7508Y-4.3583
X5.7594Y-3.2524
X5.7622Y-3.5335
X5.7661Y-3.4862
X5.7681Y-4.2346
X5.7685Y-3.8024
X5.7689Y-4.0913
X5.8004Y-4.1992
X5.8024Y-4.148
X5.8075Y-4.1016
X5.8134Y-4.2528
X5.8209Y-3.8933
X5.8213Y-4.0512
X5.8484Y-3.9154
X5.8539Y-4.5276
X5.8563Y-4.389
X5.8724Y-3.8937
X5.8783Y-4.0512
X5.8976Y-4.1031
X5.8992Y-4.148
X5.9039Y-4.2024
X5.9079Y-4.4264
X5.9268Y-4.9988
X5.9331Y-3.9197
X5.935Y-4.8295
X5.9398Y-4.0591
X5.948Y-4.5358
X5.9484Y-3.2295
X5.952Y-4.1992
X5.9638Y-3.9197
X5.9843Y-3.9043
X5.9906Y-3.2295
X6.0252Y-3.5484
X6.0319Y-4.1406
X6.0343Y-3.4709
X6.052Y-4.1193
X6.1004Y-3.8118
X6.1024Y-3.887
X6.1043Y-4.0173
X6.1063Y-4.3634
X6.1299Y-3.4283
T2
X5.7988Y-2.9937
X5.7988Y-3.0724
X5.8972Y-2.9937
X5.8972Y-3.0724
T3
X5.5Y-3.1
X5.5Y-3.2
X5.5Y-3.3
X5.5Y-3.4
X5.5Y-3.5
X5.5Y-3.6
X5.5Y-3.7
X5.5Y-3.8
X5.5Y-3.9
X5.5Y-4.0
X5.5Y-4.1
X5.5Y-4.2
X5.5Y-4.3
X5.5Y-4.4
X5.5Y-4.5
X5.5Y-4.6
X5.5Y-4.7
X5.5Y-4.8
X5.5Y-4.9
X5.5Y-5.0
X5.7028Y-4.6748
X5.8028Y-4.6748
X5.9028Y-4.6748
X6.0028Y-4.6748
X6.0528Y-3.6161
X6.0528Y-3.7161
X6.2Y-3.1
X6.2Y-3.2
X6.2Y-3.3
X6.2Y-3.4
X6.2Y-3.5
X6.2Y-3.6
X6.2Y-3.7
X6.2Y-3.8
X6.2Y-3.9
X6.2Y-4.0
X6.2Y-4.1
X6.2Y-4.2
X6.2Y-4.3
X6.2Y-4.4
X6.2Y-4.5
X6.2Y-4.6
X6.2Y-4.7
X6.2Y-4.8
X6.2Y-4.9
X6.2Y-5.0
T4
X5.611Y-2.887
X6.085Y-2.887
T0
M30
