%TF.GenerationSoftware,KiCad,Pcbnew,(6.0.11)*%
%TF.CreationDate,2024-02-24T09:55:02-06:00*%
%TF.ProjectId,PicoAlt,5069636f-416c-4742-9e6b-696361645f70,rev?*%
%TF.SameCoordinates,Original*%
%TF.FileFunction,Legend,Top*%
%TF.FilePolarity,Positive*%
%FSLAX46Y46*%
G04 Gerber Fmt 4.6, Leading zero omitted, Abs format (unit mm)*
G04 Created by KiCad (PCBNEW (6.0.11)) date 2024-02-24 09:55:02*
%MOMM*%
%LPD*%
G01*
G04 APERTURE LIST*
G04 Aperture macros list*
%AMRoundRect*
0 Rectangle with rounded corners*
0 $1 Rounding radius*
0 $2 $3 $4 $5 $6 $7 $8 $9 X,Y pos of 4 corners*
0 Add a 4 corners polygon primitive as box body*
4,1,4,$2,$3,$4,$5,$6,$7,$8,$9,$2,$3,0*
0 Add four circle primitives for the rounded corners*
1,1,$1+$1,$2,$3*
1,1,$1+$1,$4,$5*
1,1,$1+$1,$6,$7*
1,1,$1+$1,$8,$9*
0 Add four rect primitives between the rounded corners*
20,1,$1+$1,$2,$3,$4,$5,0*
20,1,$1+$1,$4,$5,$6,$7,0*
20,1,$1+$1,$6,$7,$8,$9,0*
20,1,$1+$1,$8,$9,$2,$3,0*%
G04 Aperture macros list end*
%ADD10C,0.125000*%
%ADD11C,0.150000*%
%ADD12C,0.120000*%
%ADD13RoundRect,0.150000X-1.125000X-0.150000X1.125000X-0.150000X1.125000X0.150000X-1.125000X0.150000X0*%
%ADD14R,1.400000X1.200000*%
%ADD15RoundRect,0.140000X0.140000X0.170000X-0.140000X0.170000X-0.140000X-0.170000X0.140000X-0.170000X0*%
%ADD16R,1.700000X1.700000*%
%ADD17C,1.700000*%
%ADD18C,3.500000*%
%ADD19RoundRect,0.237500X-0.237500X0.250000X-0.237500X-0.250000X0.237500X-0.250000X0.237500X0.250000X0*%
%ADD20RoundRect,0.225000X0.225000X0.250000X-0.225000X0.250000X-0.225000X-0.250000X0.225000X-0.250000X0*%
%ADD21RoundRect,0.237500X0.237500X-0.250000X0.237500X0.250000X-0.237500X0.250000X-0.237500X-0.250000X0*%
%ADD22RoundRect,0.140000X0.170000X-0.140000X0.170000X0.140000X-0.170000X0.140000X-0.170000X-0.140000X0*%
%ADD23RoundRect,0.225000X0.250000X-0.225000X0.250000X0.225000X-0.250000X0.225000X-0.250000X-0.225000X0*%
%ADD24R,2.000000X1.500000*%
%ADD25R,2.000000X3.800000*%
%ADD26O,1.700000X1.700000*%
%ADD27R,1.800000X2.500000*%
%ADD28RoundRect,0.162500X0.162500X-0.437500X0.162500X0.437500X-0.162500X0.437500X-0.162500X-0.437500X0*%
%ADD29RoundRect,0.237500X0.237500X-0.287500X0.237500X0.287500X-0.237500X0.287500X-0.237500X-0.287500X0*%
%ADD30RoundRect,0.140000X-0.140000X-0.170000X0.140000X-0.170000X0.140000X0.170000X-0.140000X0.170000X0*%
%ADD31RoundRect,0.225000X-0.225000X-0.250000X0.225000X-0.250000X0.225000X0.250000X-0.225000X0.250000X0*%
%ADD32RoundRect,0.140000X-0.170000X0.140000X-0.170000X-0.140000X0.170000X-0.140000X0.170000X0.140000X0*%
%ADD33RoundRect,0.050000X-0.387500X-0.050000X0.387500X-0.050000X0.387500X0.050000X-0.387500X0.050000X0*%
%ADD34RoundRect,0.050000X-0.050000X-0.387500X0.050000X-0.387500X0.050000X0.387500X-0.050000X0.387500X0*%
%ADD35R,3.200000X3.200000*%
%ADD36RoundRect,0.225000X-0.250000X0.225000X-0.250000X-0.225000X0.250000X-0.225000X0.250000X0.225000X0*%
G04 APERTURE END LIST*
D10*
X149579047Y-120270000D02*
X149531428Y-120246190D01*
X149460000Y-120246190D01*
X149388571Y-120270000D01*
X149340952Y-120317619D01*
X149317142Y-120365238D01*
X149293333Y-120460476D01*
X149293333Y-120531904D01*
X149317142Y-120627142D01*
X149340952Y-120674761D01*
X149388571Y-120722380D01*
X149460000Y-120746190D01*
X149507619Y-120746190D01*
X149579047Y-120722380D01*
X149602857Y-120698571D01*
X149602857Y-120531904D01*
X149507619Y-120531904D01*
X149817142Y-120746190D02*
X149817142Y-120246190D01*
X150102857Y-120746190D01*
X150102857Y-120246190D01*
X150340952Y-120746190D02*
X150340952Y-120246190D01*
X150460000Y-120246190D01*
X150531428Y-120270000D01*
X150579047Y-120317619D01*
X150602857Y-120365238D01*
X150626666Y-120460476D01*
X150626666Y-120531904D01*
X150602857Y-120627142D01*
X150579047Y-120674761D01*
X150531428Y-120722380D01*
X150460000Y-120746190D01*
X150340952Y-120746190D01*
X151700476Y-120742380D02*
X151771904Y-120766190D01*
X151890952Y-120766190D01*
X151938571Y-120742380D01*
X151962380Y-120718571D01*
X151986190Y-120670952D01*
X151986190Y-120623333D01*
X151962380Y-120575714D01*
X151938571Y-120551904D01*
X151890952Y-120528095D01*
X151795714Y-120504285D01*
X151748095Y-120480476D01*
X151724285Y-120456666D01*
X151700476Y-120409047D01*
X151700476Y-120361428D01*
X151724285Y-120313809D01*
X151748095Y-120290000D01*
X151795714Y-120266190D01*
X151914761Y-120266190D01*
X151986190Y-120290000D01*
X152152857Y-120266190D02*
X152271904Y-120766190D01*
X152367142Y-120409047D01*
X152462380Y-120766190D01*
X152581428Y-120266190D01*
X152771904Y-120766190D02*
X152771904Y-120266190D01*
X153105238Y-120266190D02*
X153200476Y-120266190D01*
X153248095Y-120290000D01*
X153295714Y-120337619D01*
X153319523Y-120432857D01*
X153319523Y-120599523D01*
X153295714Y-120694761D01*
X153248095Y-120742380D01*
X153200476Y-120766190D01*
X153105238Y-120766190D01*
X153057619Y-120742380D01*
X153010000Y-120694761D01*
X152986190Y-120599523D01*
X152986190Y-120432857D01*
X153010000Y-120337619D01*
X153057619Y-120290000D01*
X153105238Y-120266190D01*
X144932857Y-91826190D02*
X144647142Y-91826190D01*
X144790000Y-91826190D02*
X144790000Y-91326190D01*
X144742380Y-91397619D01*
X144694761Y-91445238D01*
X144647142Y-91469047D01*
X144392857Y-103786190D02*
X144107142Y-103786190D01*
X144250000Y-103786190D02*
X144250000Y-103286190D01*
X144202380Y-103357619D01*
X144154761Y-103405238D01*
X144107142Y-103429047D01*
X144120952Y-120236190D02*
X144430476Y-120236190D01*
X144263809Y-120426666D01*
X144335238Y-120426666D01*
X144382857Y-120450476D01*
X144406666Y-120474285D01*
X144430476Y-120521904D01*
X144430476Y-120640952D01*
X144406666Y-120688571D01*
X144382857Y-120712380D01*
X144335238Y-120736190D01*
X144192380Y-120736190D01*
X144144761Y-120712380D01*
X144120952Y-120688571D01*
X144573333Y-120236190D02*
X144740000Y-120736190D01*
X144906666Y-120236190D01*
X145025714Y-120236190D02*
X145335238Y-120236190D01*
X145168571Y-120426666D01*
X145240000Y-120426666D01*
X145287619Y-120450476D01*
X145311428Y-120474285D01*
X145335238Y-120521904D01*
X145335238Y-120640952D01*
X145311428Y-120688571D01*
X145287619Y-120712380D01*
X145240000Y-120736190D01*
X145097142Y-120736190D01*
X145049523Y-120712380D01*
X145025714Y-120688571D01*
X150006190Y-125416190D02*
X149768095Y-125582857D01*
X150006190Y-125701904D02*
X149506190Y-125701904D01*
X149506190Y-125511428D01*
X149530000Y-125463809D01*
X149553809Y-125440000D01*
X149601428Y-125416190D01*
X149672857Y-125416190D01*
X149720476Y-125440000D01*
X149744285Y-125463809D01*
X149768095Y-125511428D01*
X149768095Y-125701904D01*
X149744285Y-125201904D02*
X149744285Y-125035238D01*
X150006190Y-124963809D02*
X150006190Y-125201904D01*
X149506190Y-125201904D01*
X149506190Y-124963809D01*
X149982380Y-124773333D02*
X150006190Y-124701904D01*
X150006190Y-124582857D01*
X149982380Y-124535238D01*
X149958571Y-124511428D01*
X149910952Y-124487619D01*
X149863333Y-124487619D01*
X149815714Y-124511428D01*
X149791904Y-124535238D01*
X149768095Y-124582857D01*
X149744285Y-124678095D01*
X149720476Y-124725714D01*
X149696666Y-124749523D01*
X149649047Y-124773333D01*
X149601428Y-124773333D01*
X149553809Y-124749523D01*
X149530000Y-124725714D01*
X149506190Y-124678095D01*
X149506190Y-124559047D01*
X149530000Y-124487619D01*
X149744285Y-124273333D02*
X149744285Y-124106666D01*
X150006190Y-124035238D02*
X150006190Y-124273333D01*
X149506190Y-124273333D01*
X149506190Y-124035238D01*
X149506190Y-123892380D02*
X149506190Y-123606666D01*
X150006190Y-123749523D02*
X149506190Y-123749523D01*
X142306190Y-125622857D02*
X141806190Y-125622857D01*
X141806190Y-125432380D01*
X141830000Y-125384761D01*
X141853809Y-125360952D01*
X141901428Y-125337142D01*
X141972857Y-125337142D01*
X142020476Y-125360952D01*
X142044285Y-125384761D01*
X142068095Y-125432380D01*
X142068095Y-125622857D01*
X142306190Y-124837142D02*
X142068095Y-125003809D01*
X142306190Y-125122857D02*
X141806190Y-125122857D01*
X141806190Y-124932380D01*
X141830000Y-124884761D01*
X141853809Y-124860952D01*
X141901428Y-124837142D01*
X141972857Y-124837142D01*
X142020476Y-124860952D01*
X142044285Y-124884761D01*
X142068095Y-124932380D01*
X142068095Y-125122857D01*
X141806190Y-124527619D02*
X141806190Y-124432380D01*
X141830000Y-124384761D01*
X141877619Y-124337142D01*
X141972857Y-124313333D01*
X142139523Y-124313333D01*
X142234761Y-124337142D01*
X142282380Y-124384761D01*
X142306190Y-124432380D01*
X142306190Y-124527619D01*
X142282380Y-124575238D01*
X142234761Y-124622857D01*
X142139523Y-124646666D01*
X141972857Y-124646666D01*
X141877619Y-124622857D01*
X141830000Y-124575238D01*
X141806190Y-124527619D01*
X141830000Y-123837142D02*
X141806190Y-123884761D01*
X141806190Y-123956190D01*
X141830000Y-124027619D01*
X141877619Y-124075238D01*
X141925238Y-124099047D01*
X142020476Y-124122857D01*
X142091904Y-124122857D01*
X142187142Y-124099047D01*
X142234761Y-124075238D01*
X142282380Y-124027619D01*
X142306190Y-123956190D01*
X142306190Y-123908571D01*
X142282380Y-123837142D01*
X142258571Y-123813333D01*
X142091904Y-123813333D01*
X142091904Y-123908571D01*
X146159047Y-120702380D02*
X146230476Y-120726190D01*
X146349523Y-120726190D01*
X146397142Y-120702380D01*
X146420952Y-120678571D01*
X146444761Y-120630952D01*
X146444761Y-120583333D01*
X146420952Y-120535714D01*
X146397142Y-120511904D01*
X146349523Y-120488095D01*
X146254285Y-120464285D01*
X146206666Y-120440476D01*
X146182857Y-120416666D01*
X146159047Y-120369047D01*
X146159047Y-120321428D01*
X146182857Y-120273809D01*
X146206666Y-120250000D01*
X146254285Y-120226190D01*
X146373333Y-120226190D01*
X146444761Y-120250000D01*
X146611428Y-120226190D02*
X146730476Y-120726190D01*
X146825714Y-120369047D01*
X146920952Y-120726190D01*
X147040000Y-120226190D01*
X147516190Y-120678571D02*
X147492380Y-120702380D01*
X147420952Y-120726190D01*
X147373333Y-120726190D01*
X147301904Y-120702380D01*
X147254285Y-120654761D01*
X147230476Y-120607142D01*
X147206666Y-120511904D01*
X147206666Y-120440476D01*
X147230476Y-120345238D01*
X147254285Y-120297619D01*
X147301904Y-120250000D01*
X147373333Y-120226190D01*
X147420952Y-120226190D01*
X147492380Y-120250000D01*
X147516190Y-120273809D01*
X147968571Y-120726190D02*
X147730476Y-120726190D01*
X147730476Y-120226190D01*
X148135238Y-120726190D02*
X148135238Y-120226190D01*
X148420952Y-120726190D02*
X148206666Y-120440476D01*
X148420952Y-120226190D02*
X148135238Y-120511904D01*
X148382857Y-80706190D02*
X148097142Y-80706190D01*
X148240000Y-80706190D02*
X148240000Y-80206190D01*
X148192380Y-80277619D01*
X148144761Y-80325238D01*
X148097142Y-80349047D01*
X141970476Y-90033690D02*
X141970476Y-89533690D01*
X142160952Y-89533690D01*
X142208571Y-89557500D01*
X142232380Y-89581309D01*
X142256190Y-89628928D01*
X142256190Y-89700357D01*
X142232380Y-89747976D01*
X142208571Y-89771785D01*
X142160952Y-89795595D01*
X141970476Y-89795595D01*
X142470476Y-90033690D02*
X142470476Y-89533690D01*
X142994285Y-89986071D02*
X142970476Y-90009880D01*
X142899047Y-90033690D01*
X142851428Y-90033690D01*
X142780000Y-90009880D01*
X142732380Y-89962261D01*
X142708571Y-89914642D01*
X142684761Y-89819404D01*
X142684761Y-89747976D01*
X142708571Y-89652738D01*
X142732380Y-89605119D01*
X142780000Y-89557500D01*
X142851428Y-89533690D01*
X142899047Y-89533690D01*
X142970476Y-89557500D01*
X142994285Y-89581309D01*
X143303809Y-89533690D02*
X143399047Y-89533690D01*
X143446666Y-89557500D01*
X143494285Y-89605119D01*
X143518095Y-89700357D01*
X143518095Y-89867023D01*
X143494285Y-89962261D01*
X143446666Y-90009880D01*
X143399047Y-90033690D01*
X143303809Y-90033690D01*
X143256190Y-90009880D01*
X143208571Y-89962261D01*
X143184761Y-89867023D01*
X143184761Y-89700357D01*
X143208571Y-89605119D01*
X143256190Y-89557500D01*
X143303809Y-89533690D01*
X144089523Y-89890833D02*
X144327619Y-89890833D01*
X144041904Y-90033690D02*
X144208571Y-89533690D01*
X144375238Y-90033690D01*
X144780000Y-90033690D02*
X144541904Y-90033690D01*
X144541904Y-89533690D01*
X144875238Y-89533690D02*
X145160952Y-89533690D01*
X145018095Y-90033690D02*
X145018095Y-89533690D01*
X141541904Y-90838690D02*
X141541904Y-90338690D01*
X141660952Y-90338690D01*
X141732380Y-90362500D01*
X141780000Y-90410119D01*
X141803809Y-90457738D01*
X141827619Y-90552976D01*
X141827619Y-90624404D01*
X141803809Y-90719642D01*
X141780000Y-90767261D01*
X141732380Y-90814880D01*
X141660952Y-90838690D01*
X141541904Y-90838690D01*
X142041904Y-90576785D02*
X142208571Y-90576785D01*
X142280000Y-90838690D02*
X142041904Y-90838690D01*
X142041904Y-90338690D01*
X142280000Y-90338690D01*
X142422857Y-90338690D02*
X142589523Y-90838690D01*
X142756190Y-90338690D01*
X143470476Y-90576785D02*
X143541904Y-90600595D01*
X143565714Y-90624404D01*
X143589523Y-90672023D01*
X143589523Y-90743452D01*
X143565714Y-90791071D01*
X143541904Y-90814880D01*
X143494285Y-90838690D01*
X143303809Y-90838690D01*
X143303809Y-90338690D01*
X143470476Y-90338690D01*
X143518095Y-90362500D01*
X143541904Y-90386309D01*
X143565714Y-90433928D01*
X143565714Y-90481547D01*
X143541904Y-90529166D01*
X143518095Y-90552976D01*
X143470476Y-90576785D01*
X143303809Y-90576785D01*
X143899047Y-90338690D02*
X143994285Y-90338690D01*
X144041904Y-90362500D01*
X144089523Y-90410119D01*
X144113333Y-90505357D01*
X144113333Y-90672023D01*
X144089523Y-90767261D01*
X144041904Y-90814880D01*
X143994285Y-90838690D01*
X143899047Y-90838690D01*
X143851428Y-90814880D01*
X143803809Y-90767261D01*
X143780000Y-90672023D01*
X143780000Y-90505357D01*
X143803809Y-90410119D01*
X143851428Y-90362500D01*
X143899047Y-90338690D01*
X144303809Y-90695833D02*
X144541904Y-90695833D01*
X144256190Y-90838690D02*
X144422857Y-90338690D01*
X144589523Y-90838690D01*
X145041904Y-90838690D02*
X144875238Y-90600595D01*
X144756190Y-90838690D02*
X144756190Y-90338690D01*
X144946666Y-90338690D01*
X144994285Y-90362500D01*
X145018095Y-90386309D01*
X145041904Y-90433928D01*
X145041904Y-90505357D01*
X145018095Y-90552976D01*
X144994285Y-90576785D01*
X144946666Y-90600595D01*
X144756190Y-90600595D01*
X145256190Y-90838690D02*
X145256190Y-90338690D01*
X145375238Y-90338690D01*
X145446666Y-90362500D01*
X145494285Y-90410119D01*
X145518095Y-90457738D01*
X145541904Y-90552976D01*
X145541904Y-90624404D01*
X145518095Y-90719642D01*
X145494285Y-90767261D01*
X145446666Y-90814880D01*
X145375238Y-90838690D01*
X145256190Y-90838690D01*
X155673333Y-93907142D02*
X155673333Y-93669047D01*
X155816190Y-93954761D02*
X155316190Y-93788095D01*
X155816190Y-93621428D01*
X155816190Y-93454761D02*
X155316190Y-93454761D01*
X155316190Y-93335714D01*
X155340000Y-93264285D01*
X155387619Y-93216666D01*
X155435238Y-93192857D01*
X155530476Y-93169047D01*
X155601904Y-93169047D01*
X155697142Y-93192857D01*
X155744761Y-93216666D01*
X155792380Y-93264285D01*
X155816190Y-93335714D01*
X155816190Y-93454761D01*
X155768571Y-92669047D02*
X155792380Y-92692857D01*
X155816190Y-92764285D01*
X155816190Y-92811904D01*
X155792380Y-92883333D01*
X155744761Y-92930952D01*
X155697142Y-92954761D01*
X155601904Y-92978571D01*
X155530476Y-92978571D01*
X155435238Y-92954761D01*
X155387619Y-92930952D01*
X155340000Y-92883333D01*
X155316190Y-92811904D01*
X155316190Y-92764285D01*
X155340000Y-92692857D01*
X155363809Y-92669047D01*
X155316190Y-92502380D02*
X155316190Y-92192857D01*
X155506666Y-92359523D01*
X155506666Y-92288095D01*
X155530476Y-92240476D01*
X155554285Y-92216666D01*
X155601904Y-92192857D01*
X155720952Y-92192857D01*
X155768571Y-92216666D01*
X155792380Y-92240476D01*
X155816190Y-92288095D01*
X155816190Y-92430952D01*
X155792380Y-92478571D01*
X155768571Y-92502380D01*
%TO.C,U2*%
X141929047Y-92506190D02*
X141929047Y-92910952D01*
X141952857Y-92958571D01*
X141976666Y-92982380D01*
X142024285Y-93006190D01*
X142119523Y-93006190D01*
X142167142Y-92982380D01*
X142190952Y-92958571D01*
X142214761Y-92910952D01*
X142214761Y-92506190D01*
X142429047Y-92553809D02*
X142452857Y-92530000D01*
X142500476Y-92506190D01*
X142619523Y-92506190D01*
X142667142Y-92530000D01*
X142690952Y-92553809D01*
X142714761Y-92601428D01*
X142714761Y-92649047D01*
X142690952Y-92720476D01*
X142405238Y-93006190D01*
X142714761Y-93006190D01*
%TO.C,Y1*%
X145941904Y-113508095D02*
X145941904Y-113746190D01*
X145775238Y-113246190D02*
X145941904Y-113508095D01*
X146108571Y-113246190D01*
X146537142Y-113746190D02*
X146251428Y-113746190D01*
X146394285Y-113746190D02*
X146394285Y-113246190D01*
X146346666Y-113317619D01*
X146299047Y-113365238D01*
X146251428Y-113389047D01*
%TO.C,C13*%
X142958571Y-105668571D02*
X142934761Y-105692380D01*
X142863333Y-105716190D01*
X142815714Y-105716190D01*
X142744285Y-105692380D01*
X142696666Y-105644761D01*
X142672857Y-105597142D01*
X142649047Y-105501904D01*
X142649047Y-105430476D01*
X142672857Y-105335238D01*
X142696666Y-105287619D01*
X142744285Y-105240000D01*
X142815714Y-105216190D01*
X142863333Y-105216190D01*
X142934761Y-105240000D01*
X142958571Y-105263809D01*
X143434761Y-105716190D02*
X143149047Y-105716190D01*
X143291904Y-105716190D02*
X143291904Y-105216190D01*
X143244285Y-105287619D01*
X143196666Y-105335238D01*
X143149047Y-105359047D01*
X143601428Y-105216190D02*
X143910952Y-105216190D01*
X143744285Y-105406666D01*
X143815714Y-105406666D01*
X143863333Y-105430476D01*
X143887142Y-105454285D01*
X143910952Y-105501904D01*
X143910952Y-105620952D01*
X143887142Y-105668571D01*
X143863333Y-105692380D01*
X143815714Y-105716190D01*
X143672857Y-105716190D01*
X143625238Y-105692380D01*
X143601428Y-105668571D01*
D11*
%TO.C,J2*%
X148256666Y-71842380D02*
X148256666Y-72556666D01*
X148209047Y-72699523D01*
X148113809Y-72794761D01*
X147970952Y-72842380D01*
X147875714Y-72842380D01*
X148685238Y-71937619D02*
X148732857Y-71890000D01*
X148828095Y-71842380D01*
X149066190Y-71842380D01*
X149161428Y-71890000D01*
X149209047Y-71937619D01*
X149256666Y-72032857D01*
X149256666Y-72128095D01*
X149209047Y-72270952D01*
X148637619Y-72842380D01*
X149256666Y-72842380D01*
D10*
%TO.C,R9*%
X144576666Y-113136190D02*
X144410000Y-112898095D01*
X144290952Y-113136190D02*
X144290952Y-112636190D01*
X144481428Y-112636190D01*
X144529047Y-112660000D01*
X144552857Y-112683809D01*
X144576666Y-112731428D01*
X144576666Y-112802857D01*
X144552857Y-112850476D01*
X144529047Y-112874285D01*
X144481428Y-112898095D01*
X144290952Y-112898095D01*
X144814761Y-113136190D02*
X144910000Y-113136190D01*
X144957619Y-113112380D01*
X144981428Y-113088571D01*
X145029047Y-113017142D01*
X145052857Y-112921904D01*
X145052857Y-112731428D01*
X145029047Y-112683809D01*
X145005238Y-112660000D01*
X144957619Y-112636190D01*
X144862380Y-112636190D01*
X144814761Y-112660000D01*
X144790952Y-112683809D01*
X144767142Y-112731428D01*
X144767142Y-112850476D01*
X144790952Y-112898095D01*
X144814761Y-112921904D01*
X144862380Y-112945714D01*
X144957619Y-112945714D01*
X145005238Y-112921904D01*
X145029047Y-112898095D01*
X145052857Y-112850476D01*
%TO.C,C12*%
X154108571Y-88178571D02*
X154084761Y-88202380D01*
X154013333Y-88226190D01*
X153965714Y-88226190D01*
X153894285Y-88202380D01*
X153846666Y-88154761D01*
X153822857Y-88107142D01*
X153799047Y-88011904D01*
X153799047Y-87940476D01*
X153822857Y-87845238D01*
X153846666Y-87797619D01*
X153894285Y-87750000D01*
X153965714Y-87726190D01*
X154013333Y-87726190D01*
X154084761Y-87750000D01*
X154108571Y-87773809D01*
X154584761Y-88226190D02*
X154299047Y-88226190D01*
X154441904Y-88226190D02*
X154441904Y-87726190D01*
X154394285Y-87797619D01*
X154346666Y-87845238D01*
X154299047Y-87869047D01*
X154775238Y-87773809D02*
X154799047Y-87750000D01*
X154846666Y-87726190D01*
X154965714Y-87726190D01*
X155013333Y-87750000D01*
X155037142Y-87773809D01*
X155060952Y-87821428D01*
X155060952Y-87869047D01*
X155037142Y-87940476D01*
X154751428Y-88226190D01*
X155060952Y-88226190D01*
%TO.C,R1*%
X154796666Y-103836190D02*
X154630000Y-103598095D01*
X154510952Y-103836190D02*
X154510952Y-103336190D01*
X154701428Y-103336190D01*
X154749047Y-103360000D01*
X154772857Y-103383809D01*
X154796666Y-103431428D01*
X154796666Y-103502857D01*
X154772857Y-103550476D01*
X154749047Y-103574285D01*
X154701428Y-103598095D01*
X154510952Y-103598095D01*
X155272857Y-103836190D02*
X154987142Y-103836190D01*
X155130000Y-103836190D02*
X155130000Y-103336190D01*
X155082380Y-103407619D01*
X155034761Y-103455238D01*
X154987142Y-103479047D01*
%TO.C,R3*%
X150966666Y-92216190D02*
X150800000Y-91978095D01*
X150680952Y-92216190D02*
X150680952Y-91716190D01*
X150871428Y-91716190D01*
X150919047Y-91740000D01*
X150942857Y-91763809D01*
X150966666Y-91811428D01*
X150966666Y-91882857D01*
X150942857Y-91930476D01*
X150919047Y-91954285D01*
X150871428Y-91978095D01*
X150680952Y-91978095D01*
X151133333Y-91716190D02*
X151442857Y-91716190D01*
X151276190Y-91906666D01*
X151347619Y-91906666D01*
X151395238Y-91930476D01*
X151419047Y-91954285D01*
X151442857Y-92001904D01*
X151442857Y-92120952D01*
X151419047Y-92168571D01*
X151395238Y-92192380D01*
X151347619Y-92216190D01*
X151204761Y-92216190D01*
X151157142Y-92192380D01*
X151133333Y-92168571D01*
%TO.C,C1*%
X149006666Y-98488571D02*
X148982857Y-98512380D01*
X148911428Y-98536190D01*
X148863809Y-98536190D01*
X148792380Y-98512380D01*
X148744761Y-98464761D01*
X148720952Y-98417142D01*
X148697142Y-98321904D01*
X148697142Y-98250476D01*
X148720952Y-98155238D01*
X148744761Y-98107619D01*
X148792380Y-98060000D01*
X148863809Y-98036190D01*
X148911428Y-98036190D01*
X148982857Y-98060000D01*
X149006666Y-98083809D01*
X149482857Y-98536190D02*
X149197142Y-98536190D01*
X149340000Y-98536190D02*
X149340000Y-98036190D01*
X149292380Y-98107619D01*
X149244761Y-98155238D01*
X149197142Y-98179047D01*
%TO.C,C10*%
X150658571Y-98128571D02*
X150634761Y-98152380D01*
X150563333Y-98176190D01*
X150515714Y-98176190D01*
X150444285Y-98152380D01*
X150396666Y-98104761D01*
X150372857Y-98057142D01*
X150349047Y-97961904D01*
X150349047Y-97890476D01*
X150372857Y-97795238D01*
X150396666Y-97747619D01*
X150444285Y-97700000D01*
X150515714Y-97676190D01*
X150563333Y-97676190D01*
X150634761Y-97700000D01*
X150658571Y-97723809D01*
X151134761Y-98176190D02*
X150849047Y-98176190D01*
X150991904Y-98176190D02*
X150991904Y-97676190D01*
X150944285Y-97747619D01*
X150896666Y-97795238D01*
X150849047Y-97819047D01*
X151444285Y-97676190D02*
X151491904Y-97676190D01*
X151539523Y-97700000D01*
X151563333Y-97723809D01*
X151587142Y-97771428D01*
X151610952Y-97866666D01*
X151610952Y-97985714D01*
X151587142Y-98080952D01*
X151563333Y-98128571D01*
X151539523Y-98152380D01*
X151491904Y-98176190D01*
X151444285Y-98176190D01*
X151396666Y-98152380D01*
X151372857Y-98128571D01*
X151349047Y-98080952D01*
X151325238Y-97985714D01*
X151325238Y-97866666D01*
X151349047Y-97771428D01*
X151372857Y-97723809D01*
X151396666Y-97700000D01*
X151444285Y-97676190D01*
%TO.C,R6*%
X152956190Y-111833333D02*
X152718095Y-112000000D01*
X152956190Y-112119047D02*
X152456190Y-112119047D01*
X152456190Y-111928571D01*
X152480000Y-111880952D01*
X152503809Y-111857142D01*
X152551428Y-111833333D01*
X152622857Y-111833333D01*
X152670476Y-111857142D01*
X152694285Y-111880952D01*
X152718095Y-111928571D01*
X152718095Y-112119047D01*
X152456190Y-111404761D02*
X152456190Y-111500000D01*
X152480000Y-111547619D01*
X152503809Y-111571428D01*
X152575238Y-111619047D01*
X152670476Y-111642857D01*
X152860952Y-111642857D01*
X152908571Y-111619047D01*
X152932380Y-111595238D01*
X152956190Y-111547619D01*
X152956190Y-111452380D01*
X152932380Y-111404761D01*
X152908571Y-111380952D01*
X152860952Y-111357142D01*
X152741904Y-111357142D01*
X152694285Y-111380952D01*
X152670476Y-111404761D01*
X152646666Y-111452380D01*
X152646666Y-111547619D01*
X152670476Y-111595238D01*
X152694285Y-111619047D01*
X152741904Y-111642857D01*
D11*
%TO.C,U1*%
X150432380Y-85171904D02*
X151241904Y-85171904D01*
X151337142Y-85124285D01*
X151384761Y-85076666D01*
X151432380Y-84981428D01*
X151432380Y-84790952D01*
X151384761Y-84695714D01*
X151337142Y-84648095D01*
X151241904Y-84600476D01*
X150432380Y-84600476D01*
X151432380Y-83600476D02*
X151432380Y-84171904D01*
X151432380Y-83886190D02*
X150432380Y-83886190D01*
X150575238Y-83981428D01*
X150670476Y-84076666D01*
X150718095Y-84171904D01*
D10*
%TO.C,J3*%
X142246190Y-118906666D02*
X142603333Y-118906666D01*
X142674761Y-118930476D01*
X142722380Y-118978095D01*
X142746190Y-119049523D01*
X142746190Y-119097142D01*
X142246190Y-118716190D02*
X142246190Y-118406666D01*
X142436666Y-118573333D01*
X142436666Y-118501904D01*
X142460476Y-118454285D01*
X142484285Y-118430476D01*
X142531904Y-118406666D01*
X142650952Y-118406666D01*
X142698571Y-118430476D01*
X142722380Y-118454285D01*
X142746190Y-118501904D01*
X142746190Y-118644761D01*
X142722380Y-118692380D01*
X142698571Y-118716190D01*
%TO.C,C4*%
X142988571Y-88593333D02*
X143012380Y-88617142D01*
X143036190Y-88688571D01*
X143036190Y-88736190D01*
X143012380Y-88807619D01*
X142964761Y-88855238D01*
X142917142Y-88879047D01*
X142821904Y-88902857D01*
X142750476Y-88902857D01*
X142655238Y-88879047D01*
X142607619Y-88855238D01*
X142560000Y-88807619D01*
X142536190Y-88736190D01*
X142536190Y-88688571D01*
X142560000Y-88617142D01*
X142583809Y-88593333D01*
X142702857Y-88164761D02*
X143036190Y-88164761D01*
X142512380Y-88283809D02*
X142869523Y-88402857D01*
X142869523Y-88093333D01*
%TO.C,D2*%
X142226190Y-84439047D02*
X141726190Y-84439047D01*
X141726190Y-84320000D01*
X141750000Y-84248571D01*
X141797619Y-84200952D01*
X141845238Y-84177142D01*
X141940476Y-84153333D01*
X142011904Y-84153333D01*
X142107142Y-84177142D01*
X142154761Y-84200952D01*
X142202380Y-84248571D01*
X142226190Y-84320000D01*
X142226190Y-84439047D01*
X141773809Y-83962857D02*
X141750000Y-83939047D01*
X141726190Y-83891428D01*
X141726190Y-83772380D01*
X141750000Y-83724761D01*
X141773809Y-83700952D01*
X141821428Y-83677142D01*
X141869047Y-83677142D01*
X141940476Y-83700952D01*
X142226190Y-83986666D01*
X142226190Y-83677142D01*
%TO.C,R7*%
X155166190Y-100353333D02*
X154928095Y-100520000D01*
X155166190Y-100639047D02*
X154666190Y-100639047D01*
X154666190Y-100448571D01*
X154690000Y-100400952D01*
X154713809Y-100377142D01*
X154761428Y-100353333D01*
X154832857Y-100353333D01*
X154880476Y-100377142D01*
X154904285Y-100400952D01*
X154928095Y-100448571D01*
X154928095Y-100639047D01*
X154666190Y-100186666D02*
X154666190Y-99853333D01*
X155166190Y-100067619D01*
%TO.C,R5*%
X147496666Y-110116190D02*
X147330000Y-109878095D01*
X147210952Y-110116190D02*
X147210952Y-109616190D01*
X147401428Y-109616190D01*
X147449047Y-109640000D01*
X147472857Y-109663809D01*
X147496666Y-109711428D01*
X147496666Y-109782857D01*
X147472857Y-109830476D01*
X147449047Y-109854285D01*
X147401428Y-109878095D01*
X147210952Y-109878095D01*
X147949047Y-109616190D02*
X147710952Y-109616190D01*
X147687142Y-109854285D01*
X147710952Y-109830476D01*
X147758571Y-109806666D01*
X147877619Y-109806666D01*
X147925238Y-109830476D01*
X147949047Y-109854285D01*
X147972857Y-109901904D01*
X147972857Y-110020952D01*
X147949047Y-110068571D01*
X147925238Y-110092380D01*
X147877619Y-110116190D01*
X147758571Y-110116190D01*
X147710952Y-110092380D01*
X147687142Y-110068571D01*
D11*
%TO.C,SW1*%
X153044761Y-125953333D02*
X153092380Y-125810476D01*
X153092380Y-125572380D01*
X153044761Y-125477142D01*
X152997142Y-125429523D01*
X152901904Y-125381904D01*
X152806666Y-125381904D01*
X152711428Y-125429523D01*
X152663809Y-125477142D01*
X152616190Y-125572380D01*
X152568571Y-125762857D01*
X152520952Y-125858095D01*
X152473333Y-125905714D01*
X152378095Y-125953333D01*
X152282857Y-125953333D01*
X152187619Y-125905714D01*
X152140000Y-125858095D01*
X152092380Y-125762857D01*
X152092380Y-125524761D01*
X152140000Y-125381904D01*
X152092380Y-125048571D02*
X153092380Y-124810476D01*
X152378095Y-124620000D01*
X153092380Y-124429523D01*
X152092380Y-124191428D01*
X153092380Y-123286666D02*
X153092380Y-123858095D01*
X153092380Y-123572380D02*
X152092380Y-123572380D01*
X152235238Y-123667619D01*
X152330476Y-123762857D01*
X152378095Y-123858095D01*
D10*
%TO.C,D1*%
X153966190Y-109559047D02*
X153466190Y-109559047D01*
X153466190Y-109440000D01*
X153490000Y-109368571D01*
X153537619Y-109320952D01*
X153585238Y-109297142D01*
X153680476Y-109273333D01*
X153751904Y-109273333D01*
X153847142Y-109297142D01*
X153894761Y-109320952D01*
X153942380Y-109368571D01*
X153966190Y-109440000D01*
X153966190Y-109559047D01*
X153966190Y-108797142D02*
X153966190Y-109082857D01*
X153966190Y-108940000D02*
X153466190Y-108940000D01*
X153537619Y-108987619D01*
X153585238Y-109035238D01*
X153609047Y-109082857D01*
%TO.C,C8*%
X155548571Y-102853333D02*
X155572380Y-102877142D01*
X155596190Y-102948571D01*
X155596190Y-102996190D01*
X155572380Y-103067619D01*
X155524761Y-103115238D01*
X155477142Y-103139047D01*
X155381904Y-103162857D01*
X155310476Y-103162857D01*
X155215238Y-103139047D01*
X155167619Y-103115238D01*
X155120000Y-103067619D01*
X155096190Y-102996190D01*
X155096190Y-102948571D01*
X155120000Y-102877142D01*
X155143809Y-102853333D01*
X155310476Y-102567619D02*
X155286666Y-102615238D01*
X155262857Y-102639047D01*
X155215238Y-102662857D01*
X155191428Y-102662857D01*
X155143809Y-102639047D01*
X155120000Y-102615238D01*
X155096190Y-102567619D01*
X155096190Y-102472380D01*
X155120000Y-102424761D01*
X155143809Y-102400952D01*
X155191428Y-102377142D01*
X155215238Y-102377142D01*
X155262857Y-102400952D01*
X155286666Y-102424761D01*
X155310476Y-102472380D01*
X155310476Y-102567619D01*
X155334285Y-102615238D01*
X155358095Y-102639047D01*
X155405714Y-102662857D01*
X155500952Y-102662857D01*
X155548571Y-102639047D01*
X155572380Y-102615238D01*
X155596190Y-102567619D01*
X155596190Y-102472380D01*
X155572380Y-102424761D01*
X155548571Y-102400952D01*
X155500952Y-102377142D01*
X155405714Y-102377142D01*
X155358095Y-102400952D01*
X155334285Y-102424761D01*
X155310476Y-102472380D01*
%TO.C,C15*%
X147188571Y-88588571D02*
X147164761Y-88612380D01*
X147093333Y-88636190D01*
X147045714Y-88636190D01*
X146974285Y-88612380D01*
X146926666Y-88564761D01*
X146902857Y-88517142D01*
X146879047Y-88421904D01*
X146879047Y-88350476D01*
X146902857Y-88255238D01*
X146926666Y-88207619D01*
X146974285Y-88160000D01*
X147045714Y-88136190D01*
X147093333Y-88136190D01*
X147164761Y-88160000D01*
X147188571Y-88183809D01*
X147664761Y-88636190D02*
X147379047Y-88636190D01*
X147521904Y-88636190D02*
X147521904Y-88136190D01*
X147474285Y-88207619D01*
X147426666Y-88255238D01*
X147379047Y-88279047D01*
X148117142Y-88136190D02*
X147879047Y-88136190D01*
X147855238Y-88374285D01*
X147879047Y-88350476D01*
X147926666Y-88326666D01*
X148045714Y-88326666D01*
X148093333Y-88350476D01*
X148117142Y-88374285D01*
X148140952Y-88421904D01*
X148140952Y-88540952D01*
X148117142Y-88588571D01*
X148093333Y-88612380D01*
X148045714Y-88636190D01*
X147926666Y-88636190D01*
X147879047Y-88612380D01*
X147855238Y-88588571D01*
%TO.C,C18*%
X153648571Y-96848571D02*
X153624761Y-96872380D01*
X153553333Y-96896190D01*
X153505714Y-96896190D01*
X153434285Y-96872380D01*
X153386666Y-96824761D01*
X153362857Y-96777142D01*
X153339047Y-96681904D01*
X153339047Y-96610476D01*
X153362857Y-96515238D01*
X153386666Y-96467619D01*
X153434285Y-96420000D01*
X153505714Y-96396190D01*
X153553333Y-96396190D01*
X153624761Y-96420000D01*
X153648571Y-96443809D01*
X154124761Y-96896190D02*
X153839047Y-96896190D01*
X153981904Y-96896190D02*
X153981904Y-96396190D01*
X153934285Y-96467619D01*
X153886666Y-96515238D01*
X153839047Y-96539047D01*
X154410476Y-96610476D02*
X154362857Y-96586666D01*
X154339047Y-96562857D01*
X154315238Y-96515238D01*
X154315238Y-96491428D01*
X154339047Y-96443809D01*
X154362857Y-96420000D01*
X154410476Y-96396190D01*
X154505714Y-96396190D01*
X154553333Y-96420000D01*
X154577142Y-96443809D01*
X154600952Y-96491428D01*
X154600952Y-96515238D01*
X154577142Y-96562857D01*
X154553333Y-96586666D01*
X154505714Y-96610476D01*
X154410476Y-96610476D01*
X154362857Y-96634285D01*
X154339047Y-96658095D01*
X154315238Y-96705714D01*
X154315238Y-96800952D01*
X154339047Y-96848571D01*
X154362857Y-96872380D01*
X154410476Y-96896190D01*
X154505714Y-96896190D01*
X154553333Y-96872380D01*
X154577142Y-96848571D01*
X154600952Y-96800952D01*
X154600952Y-96705714D01*
X154577142Y-96658095D01*
X154553333Y-96634285D01*
X154505714Y-96610476D01*
%TO.C,JP1*%
X151536190Y-94786666D02*
X151893333Y-94786666D01*
X151964761Y-94810476D01*
X152012380Y-94858095D01*
X152036190Y-94929523D01*
X152036190Y-94977142D01*
X152036190Y-94548571D02*
X151536190Y-94548571D01*
X151536190Y-94358095D01*
X151560000Y-94310476D01*
X151583809Y-94286666D01*
X151631428Y-94262857D01*
X151702857Y-94262857D01*
X151750476Y-94286666D01*
X151774285Y-94310476D01*
X151798095Y-94358095D01*
X151798095Y-94548571D01*
X152036190Y-93786666D02*
X152036190Y-94072380D01*
X152036190Y-93929523D02*
X151536190Y-93929523D01*
X151607619Y-93977142D01*
X151655238Y-94024761D01*
X151679047Y-94072380D01*
D11*
%TO.C,J5*%
X157146666Y-128782380D02*
X157146666Y-129496666D01*
X157099047Y-129639523D01*
X157003809Y-129734761D01*
X156860952Y-129782380D01*
X156765714Y-129782380D01*
X158099047Y-128782380D02*
X157622857Y-128782380D01*
X157575238Y-129258571D01*
X157622857Y-129210952D01*
X157718095Y-129163333D01*
X157956190Y-129163333D01*
X158051428Y-129210952D01*
X158099047Y-129258571D01*
X158146666Y-129353809D01*
X158146666Y-129591904D01*
X158099047Y-129687142D01*
X158051428Y-129734761D01*
X157956190Y-129782380D01*
X157718095Y-129782380D01*
X157622857Y-129734761D01*
X157575238Y-129687142D01*
D10*
%TO.C,R4*%
X149306666Y-88426190D02*
X149140000Y-88188095D01*
X149020952Y-88426190D02*
X149020952Y-87926190D01*
X149211428Y-87926190D01*
X149259047Y-87950000D01*
X149282857Y-87973809D01*
X149306666Y-88021428D01*
X149306666Y-88092857D01*
X149282857Y-88140476D01*
X149259047Y-88164285D01*
X149211428Y-88188095D01*
X149020952Y-88188095D01*
X149735238Y-88092857D02*
X149735238Y-88426190D01*
X149616190Y-87902380D02*
X149497142Y-88259523D01*
X149806666Y-88259523D01*
%TO.C,C16*%
X145728571Y-117148571D02*
X145704761Y-117172380D01*
X145633333Y-117196190D01*
X145585714Y-117196190D01*
X145514285Y-117172380D01*
X145466666Y-117124761D01*
X145442857Y-117077142D01*
X145419047Y-116981904D01*
X145419047Y-116910476D01*
X145442857Y-116815238D01*
X145466666Y-116767619D01*
X145514285Y-116720000D01*
X145585714Y-116696190D01*
X145633333Y-116696190D01*
X145704761Y-116720000D01*
X145728571Y-116743809D01*
X146204761Y-117196190D02*
X145919047Y-117196190D01*
X146061904Y-117196190D02*
X146061904Y-116696190D01*
X146014285Y-116767619D01*
X145966666Y-116815238D01*
X145919047Y-116839047D01*
X146633333Y-116696190D02*
X146538095Y-116696190D01*
X146490476Y-116720000D01*
X146466666Y-116743809D01*
X146419047Y-116815238D01*
X146395238Y-116910476D01*
X146395238Y-117100952D01*
X146419047Y-117148571D01*
X146442857Y-117172380D01*
X146490476Y-117196190D01*
X146585714Y-117196190D01*
X146633333Y-117172380D01*
X146657142Y-117148571D01*
X146680952Y-117100952D01*
X146680952Y-116981904D01*
X146657142Y-116934285D01*
X146633333Y-116910476D01*
X146585714Y-116886666D01*
X146490476Y-116886666D01*
X146442857Y-116910476D01*
X146419047Y-116934285D01*
X146395238Y-116981904D01*
%TO.C,U3*%
X142979047Y-107406190D02*
X142979047Y-107810952D01*
X143002857Y-107858571D01*
X143026666Y-107882380D01*
X143074285Y-107906190D01*
X143169523Y-107906190D01*
X143217142Y-107882380D01*
X143240952Y-107858571D01*
X143264761Y-107810952D01*
X143264761Y-107406190D01*
X143455238Y-107406190D02*
X143764761Y-107406190D01*
X143598095Y-107596666D01*
X143669523Y-107596666D01*
X143717142Y-107620476D01*
X143740952Y-107644285D01*
X143764761Y-107691904D01*
X143764761Y-107810952D01*
X143740952Y-107858571D01*
X143717142Y-107882380D01*
X143669523Y-107906190D01*
X143526666Y-107906190D01*
X143479047Y-107882380D01*
X143455238Y-107858571D01*
%TO.C,C2*%
X143248571Y-102253333D02*
X143272380Y-102277142D01*
X143296190Y-102348571D01*
X143296190Y-102396190D01*
X143272380Y-102467619D01*
X143224761Y-102515238D01*
X143177142Y-102539047D01*
X143081904Y-102562857D01*
X143010476Y-102562857D01*
X142915238Y-102539047D01*
X142867619Y-102515238D01*
X142820000Y-102467619D01*
X142796190Y-102396190D01*
X142796190Y-102348571D01*
X142820000Y-102277142D01*
X142843809Y-102253333D01*
X142843809Y-102062857D02*
X142820000Y-102039047D01*
X142796190Y-101991428D01*
X142796190Y-101872380D01*
X142820000Y-101824761D01*
X142843809Y-101800952D01*
X142891428Y-101777142D01*
X142939047Y-101777142D01*
X143010476Y-101800952D01*
X143296190Y-102086666D01*
X143296190Y-101777142D01*
D11*
%TO.C,SW2*%
X144854761Y-125943333D02*
X144902380Y-125800476D01*
X144902380Y-125562380D01*
X144854761Y-125467142D01*
X144807142Y-125419523D01*
X144711904Y-125371904D01*
X144616666Y-125371904D01*
X144521428Y-125419523D01*
X144473809Y-125467142D01*
X144426190Y-125562380D01*
X144378571Y-125752857D01*
X144330952Y-125848095D01*
X144283333Y-125895714D01*
X144188095Y-125943333D01*
X144092857Y-125943333D01*
X143997619Y-125895714D01*
X143950000Y-125848095D01*
X143902380Y-125752857D01*
X143902380Y-125514761D01*
X143950000Y-125371904D01*
X143902380Y-125038571D02*
X144902380Y-124800476D01*
X144188095Y-124610000D01*
X144902380Y-124419523D01*
X143902380Y-124181428D01*
X143997619Y-123848095D02*
X143950000Y-123800476D01*
X143902380Y-123705238D01*
X143902380Y-123467142D01*
X143950000Y-123371904D01*
X143997619Y-123324285D01*
X144092857Y-123276666D01*
X144188095Y-123276666D01*
X144330952Y-123324285D01*
X144902380Y-123895714D01*
X144902380Y-123276666D01*
D10*
%TO.C,C3*%
X147438571Y-100103333D02*
X147462380Y-100127142D01*
X147486190Y-100198571D01*
X147486190Y-100246190D01*
X147462380Y-100317619D01*
X147414761Y-100365238D01*
X147367142Y-100389047D01*
X147271904Y-100412857D01*
X147200476Y-100412857D01*
X147105238Y-100389047D01*
X147057619Y-100365238D01*
X147010000Y-100317619D01*
X146986190Y-100246190D01*
X146986190Y-100198571D01*
X147010000Y-100127142D01*
X147033809Y-100103333D01*
X146986190Y-99936666D02*
X146986190Y-99627142D01*
X147176666Y-99793809D01*
X147176666Y-99722380D01*
X147200476Y-99674761D01*
X147224285Y-99650952D01*
X147271904Y-99627142D01*
X147390952Y-99627142D01*
X147438571Y-99650952D01*
X147462380Y-99674761D01*
X147486190Y-99722380D01*
X147486190Y-99865238D01*
X147462380Y-99912857D01*
X147438571Y-99936666D01*
%TO.C,C9*%
X148776666Y-111988571D02*
X148752857Y-112012380D01*
X148681428Y-112036190D01*
X148633809Y-112036190D01*
X148562380Y-112012380D01*
X148514761Y-111964761D01*
X148490952Y-111917142D01*
X148467142Y-111821904D01*
X148467142Y-111750476D01*
X148490952Y-111655238D01*
X148514761Y-111607619D01*
X148562380Y-111560000D01*
X148633809Y-111536190D01*
X148681428Y-111536190D01*
X148752857Y-111560000D01*
X148776666Y-111583809D01*
X149014761Y-112036190D02*
X149110000Y-112036190D01*
X149157619Y-112012380D01*
X149181428Y-111988571D01*
X149229047Y-111917142D01*
X149252857Y-111821904D01*
X149252857Y-111631428D01*
X149229047Y-111583809D01*
X149205238Y-111560000D01*
X149157619Y-111536190D01*
X149062380Y-111536190D01*
X149014761Y-111560000D01*
X148990952Y-111583809D01*
X148967142Y-111631428D01*
X148967142Y-111750476D01*
X148990952Y-111798095D01*
X149014761Y-111821904D01*
X149062380Y-111845714D01*
X149157619Y-111845714D01*
X149205238Y-111821904D01*
X149229047Y-111798095D01*
X149252857Y-111750476D01*
%TO.C,C5*%
X143486666Y-111978571D02*
X143462857Y-112002380D01*
X143391428Y-112026190D01*
X143343809Y-112026190D01*
X143272380Y-112002380D01*
X143224761Y-111954761D01*
X143200952Y-111907142D01*
X143177142Y-111811904D01*
X143177142Y-111740476D01*
X143200952Y-111645238D01*
X143224761Y-111597619D01*
X143272380Y-111550000D01*
X143343809Y-111526190D01*
X143391428Y-111526190D01*
X143462857Y-111550000D01*
X143486666Y-111573809D01*
X143939047Y-111526190D02*
X143700952Y-111526190D01*
X143677142Y-111764285D01*
X143700952Y-111740476D01*
X143748571Y-111716666D01*
X143867619Y-111716666D01*
X143915238Y-111740476D01*
X143939047Y-111764285D01*
X143962857Y-111811904D01*
X143962857Y-111930952D01*
X143939047Y-111978571D01*
X143915238Y-112002380D01*
X143867619Y-112026190D01*
X143748571Y-112026190D01*
X143700952Y-112002380D01*
X143677142Y-111978571D01*
%TO.C,C11*%
X153678571Y-107981428D02*
X153702380Y-108005238D01*
X153726190Y-108076666D01*
X153726190Y-108124285D01*
X153702380Y-108195714D01*
X153654761Y-108243333D01*
X153607142Y-108267142D01*
X153511904Y-108290952D01*
X153440476Y-108290952D01*
X153345238Y-108267142D01*
X153297619Y-108243333D01*
X153250000Y-108195714D01*
X153226190Y-108124285D01*
X153226190Y-108076666D01*
X153250000Y-108005238D01*
X153273809Y-107981428D01*
X153726190Y-107505238D02*
X153726190Y-107790952D01*
X153726190Y-107648095D02*
X153226190Y-107648095D01*
X153297619Y-107695714D01*
X153345238Y-107743333D01*
X153369047Y-107790952D01*
X153726190Y-107029047D02*
X153726190Y-107314761D01*
X153726190Y-107171904D02*
X153226190Y-107171904D01*
X153297619Y-107219523D01*
X153345238Y-107267142D01*
X153369047Y-107314761D01*
%TO.C,C17*%
X152638571Y-114681428D02*
X152662380Y-114705238D01*
X152686190Y-114776666D01*
X152686190Y-114824285D01*
X152662380Y-114895714D01*
X152614761Y-114943333D01*
X152567142Y-114967142D01*
X152471904Y-114990952D01*
X152400476Y-114990952D01*
X152305238Y-114967142D01*
X152257619Y-114943333D01*
X152210000Y-114895714D01*
X152186190Y-114824285D01*
X152186190Y-114776666D01*
X152210000Y-114705238D01*
X152233809Y-114681428D01*
X152686190Y-114205238D02*
X152686190Y-114490952D01*
X152686190Y-114348095D02*
X152186190Y-114348095D01*
X152257619Y-114395714D01*
X152305238Y-114443333D01*
X152329047Y-114490952D01*
X152186190Y-114038571D02*
X152186190Y-113705238D01*
X152686190Y-113919523D01*
%TO.C,C7*%
X149836666Y-112648571D02*
X149812857Y-112672380D01*
X149741428Y-112696190D01*
X149693809Y-112696190D01*
X149622380Y-112672380D01*
X149574761Y-112624761D01*
X149550952Y-112577142D01*
X149527142Y-112481904D01*
X149527142Y-112410476D01*
X149550952Y-112315238D01*
X149574761Y-112267619D01*
X149622380Y-112220000D01*
X149693809Y-112196190D01*
X149741428Y-112196190D01*
X149812857Y-112220000D01*
X149836666Y-112243809D01*
X150003333Y-112196190D02*
X150336666Y-112196190D01*
X150122380Y-112696190D01*
D11*
%TO.C,J4*%
X139366666Y-75862380D02*
X139366666Y-76576666D01*
X139319047Y-76719523D01*
X139223809Y-76814761D01*
X139080952Y-76862380D01*
X138985714Y-76862380D01*
X140271428Y-76195714D02*
X140271428Y-76862380D01*
X140033333Y-75814761D02*
X139795238Y-76529047D01*
X140414285Y-76529047D01*
D10*
%TO.C,C6*%
X152206666Y-98730571D02*
X152182857Y-98754380D01*
X152111428Y-98778190D01*
X152063809Y-98778190D01*
X151992380Y-98754380D01*
X151944761Y-98706761D01*
X151920952Y-98659142D01*
X151897142Y-98563904D01*
X151897142Y-98492476D01*
X151920952Y-98397238D01*
X151944761Y-98349619D01*
X151992380Y-98302000D01*
X152063809Y-98278190D01*
X152111428Y-98278190D01*
X152182857Y-98302000D01*
X152206666Y-98325809D01*
X152635238Y-98278190D02*
X152540000Y-98278190D01*
X152492380Y-98302000D01*
X152468571Y-98325809D01*
X152420952Y-98397238D01*
X152397142Y-98492476D01*
X152397142Y-98682952D01*
X152420952Y-98730571D01*
X152444761Y-98754380D01*
X152492380Y-98778190D01*
X152587619Y-98778190D01*
X152635238Y-98754380D01*
X152659047Y-98730571D01*
X152682857Y-98682952D01*
X152682857Y-98563904D01*
X152659047Y-98516285D01*
X152635238Y-98492476D01*
X152587619Y-98468666D01*
X152492380Y-98468666D01*
X152444761Y-98492476D01*
X152420952Y-98516285D01*
X152397142Y-98563904D01*
D12*
%TO.C,U2*%
X147190000Y-92110000D02*
X149140000Y-92110000D01*
X147190000Y-97230000D02*
X149140000Y-97230000D01*
X147190000Y-92110000D02*
X143740000Y-92110000D01*
X147190000Y-97230000D02*
X145240000Y-97230000D01*
%TO.C,Y1*%
X146820000Y-116760000D02*
X150820000Y-116760000D01*
X146820000Y-113460000D02*
X146820000Y-116760000D01*
%TO.C,C13*%
X143497836Y-106790000D02*
X143282164Y-106790000D01*
X143497836Y-106070000D02*
X143282164Y-106070000D01*
%TO.C,J2*%
X154700000Y-79640000D02*
X154700000Y-75380000D01*
X142380000Y-79640000D02*
X154700000Y-79640000D01*
X154700000Y-62920000D02*
X154700000Y-71280000D01*
X142380000Y-71280000D02*
X142380000Y-62920000D01*
X142380000Y-62920000D02*
X154700000Y-62920000D01*
X147790000Y-80360000D02*
X147290000Y-79860000D01*
X147290000Y-79860000D02*
X146790000Y-80360000D01*
X142380000Y-75380000D02*
X142380000Y-79640000D01*
X146790000Y-80360000D02*
X147790000Y-80360000D01*
%TO.C,R9*%
X144207500Y-114725276D02*
X144207500Y-115234724D01*
X145252500Y-114725276D02*
X145252500Y-115234724D01*
%TO.C,C12*%
X154000580Y-89640000D02*
X153719420Y-89640000D01*
X154000580Y-88620000D02*
X153719420Y-88620000D01*
%TO.C,R1*%
X154297500Y-105874724D02*
X154297500Y-105365276D01*
X155342500Y-105874724D02*
X155342500Y-105365276D01*
%TO.C,R3*%
X150517500Y-90144724D02*
X150517500Y-89635276D01*
X151562500Y-90144724D02*
X151562500Y-89635276D01*
%TO.C,C1*%
X149440000Y-100117836D02*
X149440000Y-99902164D01*
X148720000Y-100117836D02*
X148720000Y-99902164D01*
%TO.C,C10*%
X151500000Y-99840580D02*
X151500000Y-99559420D01*
X150480000Y-99840580D02*
X150480000Y-99559420D01*
%TO.C,R6*%
X152242500Y-111475276D02*
X152242500Y-111984724D01*
X151197500Y-111475276D02*
X151197500Y-111984724D01*
%TO.C,U1*%
X149030000Y-87760000D02*
X152790000Y-87760000D01*
X152790000Y-87760000D02*
X152790000Y-86500000D01*
X146780000Y-80940000D02*
X152790000Y-80940000D01*
X152790000Y-80940000D02*
X152790000Y-82200000D01*
%TO.C,J3*%
X146120000Y-120070000D02*
X146120000Y-117410000D01*
X143520000Y-120070000D02*
X143520000Y-118740000D01*
X146120000Y-120070000D02*
X153800000Y-120070000D01*
X146120000Y-117410000D02*
X153800000Y-117410000D01*
X144850000Y-120070000D02*
X143520000Y-120070000D01*
X153800000Y-120070000D02*
X153800000Y-117410000D01*
%TO.C,C4*%
X144750580Y-88980000D02*
X144469420Y-88980000D01*
X144750580Y-87960000D02*
X144469420Y-87960000D01*
%TO.C,D2*%
X142850000Y-87470000D02*
X146150000Y-87470000D01*
X142850000Y-87470000D02*
X142850000Y-82070000D01*
X146150000Y-87470000D02*
X146150000Y-82070000D01*
%TO.C,R7*%
X153267500Y-99985276D02*
X153267500Y-100494724D01*
X154312500Y-99985276D02*
X154312500Y-100494724D01*
%TO.C,R5*%
X148112500Y-111904724D02*
X148112500Y-111395276D01*
X147067500Y-111904724D02*
X147067500Y-111395276D01*
%TO.C,D1*%
X155595000Y-110610000D02*
X155595000Y-108150000D01*
X154125000Y-110610000D02*
X155595000Y-110610000D01*
X154125000Y-108150000D02*
X154125000Y-110610000D01*
%TO.C,C8*%
X153942164Y-102890000D02*
X154157836Y-102890000D01*
X153942164Y-102170000D02*
X154157836Y-102170000D01*
%TO.C,C15*%
X147960000Y-90430580D02*
X147960000Y-90149420D01*
X146940000Y-90430580D02*
X146940000Y-90149420D01*
%TO.C,C18*%
X153919420Y-97280000D02*
X154200580Y-97280000D01*
X153919420Y-98300000D02*
X154200580Y-98300000D01*
%TO.C,JP1*%
X152410000Y-95720000D02*
X155070000Y-95720000D01*
X152410000Y-90520000D02*
X153740000Y-90520000D01*
X152410000Y-91850000D02*
X152410000Y-90520000D01*
X152410000Y-93120000D02*
X155070000Y-93120000D01*
X152410000Y-93120000D02*
X152410000Y-95720000D01*
X155070000Y-93120000D02*
X155070000Y-95720000D01*
%TO.C,J5*%
X158810000Y-77410000D02*
X156150000Y-77410000D01*
X158810000Y-125730000D02*
X158810000Y-77410000D01*
X156150000Y-125730000D02*
X156150000Y-77410000D01*
X158810000Y-125730000D02*
X156150000Y-125730000D01*
X158810000Y-128330000D02*
X157480000Y-128330000D01*
X158810000Y-127000000D02*
X158810000Y-128330000D01*
%TO.C,R4*%
X148897500Y-89855276D02*
X148897500Y-90364724D01*
X149942500Y-89855276D02*
X149942500Y-90364724D01*
%TO.C,C16*%
X146420000Y-115542164D02*
X146420000Y-115757836D01*
X145700000Y-115542164D02*
X145700000Y-115757836D01*
%TO.C,U3*%
X145710000Y-109020000D02*
X145060000Y-109020000D01*
X152280000Y-101800000D02*
X152280000Y-102450000D01*
X151630000Y-109020000D02*
X152280000Y-109020000D01*
X145710000Y-101800000D02*
X145060000Y-101800000D01*
X151630000Y-101800000D02*
X152280000Y-101800000D01*
X152280000Y-109020000D02*
X152280000Y-108370000D01*
X145060000Y-109020000D02*
X145060000Y-108370000D01*
%TO.C,C2*%
X144320000Y-102347836D02*
X144320000Y-102132164D01*
X143600000Y-102347836D02*
X143600000Y-102132164D01*
%TO.C,C3*%
X147690000Y-100097836D02*
X147690000Y-99882164D01*
X148410000Y-100097836D02*
X148410000Y-99882164D01*
%TO.C,C9*%
X148490000Y-110412164D02*
X148490000Y-110627836D01*
X149210000Y-110412164D02*
X149210000Y-110627836D01*
%TO.C,C5*%
X143090000Y-109789420D02*
X143090000Y-110070580D01*
X144110000Y-109789420D02*
X144110000Y-110070580D01*
%TO.C,C11*%
X153860000Y-106137836D02*
X153860000Y-105922164D01*
X153140000Y-106137836D02*
X153140000Y-105922164D01*
%TO.C,C17*%
X151140000Y-114467836D02*
X151140000Y-114252164D01*
X151860000Y-114467836D02*
X151860000Y-114252164D01*
%TO.C,C7*%
X149540000Y-110992164D02*
X149540000Y-111207836D01*
X150260000Y-110992164D02*
X150260000Y-111207836D01*
%TO.C,J4*%
X138370000Y-80010000D02*
X141030000Y-80010000D01*
X138370000Y-77410000D02*
X139700000Y-77410000D01*
X138370000Y-128330000D02*
X141030000Y-128330000D01*
X138370000Y-78740000D02*
X138370000Y-77410000D01*
X138370000Y-80010000D02*
X138370000Y-128330000D01*
X141030000Y-80010000D02*
X141030000Y-128330000D01*
%TO.C,C6*%
X152630000Y-100407836D02*
X152630000Y-100192164D01*
X151910000Y-100407836D02*
X151910000Y-100192164D01*
%TD*%
%LPC*%
D13*
%TO.C,U2*%
X144415000Y-92765000D03*
X144415000Y-94035000D03*
X144415000Y-95305000D03*
X144415000Y-96575000D03*
X149965000Y-96575000D03*
X149965000Y-95305000D03*
X149965000Y-94035000D03*
X149965000Y-92765000D03*
%TD*%
D14*
%TO.C,Y1*%
X147720000Y-115960000D03*
X149920000Y-115960000D03*
X149920000Y-114260000D03*
X147720000Y-114260000D03*
%TD*%
D15*
%TO.C,C13*%
X143870000Y-106430000D03*
X142910000Y-106430000D03*
%TD*%
D16*
%TO.C,J2*%
X147290000Y-78040000D03*
D17*
X149790000Y-78040000D03*
X149790000Y-76040000D03*
X147290000Y-76040000D03*
D18*
X154560000Y-73330000D03*
X142520000Y-73330000D03*
%TD*%
D19*
%TO.C,R9*%
X144730000Y-114067500D03*
X144730000Y-115892500D03*
%TD*%
D20*
%TO.C,C12*%
X154635000Y-89130000D03*
X153085000Y-89130000D03*
%TD*%
D21*
%TO.C,R1*%
X154820000Y-106532500D03*
X154820000Y-104707500D03*
%TD*%
%TO.C,R3*%
X151040000Y-90802500D03*
X151040000Y-88977500D03*
%TD*%
D22*
%TO.C,C1*%
X149080000Y-100490000D03*
X149080000Y-99530000D03*
%TD*%
D23*
%TO.C,C10*%
X150990000Y-100475000D03*
X150990000Y-98925000D03*
%TD*%
D19*
%TO.C,R6*%
X151720000Y-110817500D03*
X151720000Y-112642500D03*
%TD*%
D24*
%TO.C,U1*%
X147730000Y-82050000D03*
X147730000Y-84350000D03*
D25*
X154030000Y-84350000D03*
D24*
X147730000Y-86650000D03*
%TD*%
D16*
%TO.C,J3*%
X144850000Y-118740000D03*
D26*
X147390000Y-118740000D03*
X149930000Y-118740000D03*
X152470000Y-118740000D03*
%TD*%
D20*
%TO.C,C4*%
X145385000Y-88470000D03*
X143835000Y-88470000D03*
%TD*%
D27*
%TO.C,D2*%
X144500000Y-86070000D03*
X144500000Y-82070000D03*
%TD*%
D19*
%TO.C,R7*%
X153790000Y-99327500D03*
X153790000Y-101152500D03*
%TD*%
D21*
%TO.C,R5*%
X147590000Y-112562500D03*
X147590000Y-110737500D03*
%TD*%
D28*
%TO.C,SW1*%
X151565000Y-126970000D03*
X151565000Y-122670000D03*
X153715000Y-122670000D03*
X153715000Y-126970000D03*
%TD*%
D29*
%TO.C,D1*%
X154860000Y-109825000D03*
X154860000Y-108075000D03*
%TD*%
D30*
%TO.C,C8*%
X153570000Y-102530000D03*
X154530000Y-102530000D03*
%TD*%
D23*
%TO.C,C15*%
X147450000Y-89515000D03*
X147450000Y-91065000D03*
%TD*%
D31*
%TO.C,C18*%
X153285000Y-97790000D03*
X154835000Y-97790000D03*
%TD*%
D26*
%TO.C,JP1*%
X153740000Y-94390000D03*
D16*
X153740000Y-91850000D03*
%TD*%
%TO.C,J5*%
X157480000Y-127000000D03*
D26*
X157480000Y-124460000D03*
X157480000Y-121920000D03*
X157480000Y-119380000D03*
X157480000Y-116840000D03*
X157480000Y-114300000D03*
X157480000Y-111760000D03*
X157480000Y-109220000D03*
X157480000Y-106680000D03*
X157480000Y-104140000D03*
X157480000Y-101600000D03*
X157480000Y-99060000D03*
X157480000Y-96520000D03*
X157480000Y-93980000D03*
X157480000Y-91440000D03*
X157480000Y-88900000D03*
X157480000Y-86360000D03*
X157480000Y-83820000D03*
X157480000Y-81280000D03*
X157480000Y-78740000D03*
%TD*%
D19*
%TO.C,R4*%
X149420000Y-89197500D03*
X149420000Y-91022500D03*
%TD*%
D32*
%TO.C,C16*%
X146060000Y-115170000D03*
X146060000Y-116130000D03*
%TD*%
D33*
%TO.C,U3*%
X145232500Y-102810000D03*
X145232500Y-103210000D03*
X145232500Y-103610000D03*
X145232500Y-104010000D03*
X145232500Y-104410000D03*
X145232500Y-104810000D03*
X145232500Y-105210000D03*
X145232500Y-105610000D03*
X145232500Y-106010000D03*
X145232500Y-106410000D03*
X145232500Y-106810000D03*
X145232500Y-107210000D03*
X145232500Y-107610000D03*
X145232500Y-108010000D03*
D34*
X146070000Y-108847500D03*
X146470000Y-108847500D03*
X146870000Y-108847500D03*
X147270000Y-108847500D03*
X147670000Y-108847500D03*
X148070000Y-108847500D03*
X148470000Y-108847500D03*
X148870000Y-108847500D03*
X149270000Y-108847500D03*
X149670000Y-108847500D03*
X150070000Y-108847500D03*
X150470000Y-108847500D03*
X150870000Y-108847500D03*
X151270000Y-108847500D03*
D33*
X152107500Y-108010000D03*
X152107500Y-107610000D03*
X152107500Y-107210000D03*
X152107500Y-106810000D03*
X152107500Y-106410000D03*
X152107500Y-106010000D03*
X152107500Y-105610000D03*
X152107500Y-105210000D03*
X152107500Y-104810000D03*
X152107500Y-104410000D03*
X152107500Y-104010000D03*
X152107500Y-103610000D03*
X152107500Y-103210000D03*
X152107500Y-102810000D03*
D34*
X151270000Y-101972500D03*
X150870000Y-101972500D03*
X150470000Y-101972500D03*
X150070000Y-101972500D03*
X149670000Y-101972500D03*
X149270000Y-101972500D03*
X148870000Y-101972500D03*
X148470000Y-101972500D03*
X148070000Y-101972500D03*
X147670000Y-101972500D03*
X147270000Y-101972500D03*
X146870000Y-101972500D03*
X146470000Y-101972500D03*
X146070000Y-101972500D03*
D35*
X148670000Y-105410000D03*
%TD*%
D22*
%TO.C,C2*%
X143960000Y-102720000D03*
X143960000Y-101760000D03*
%TD*%
D28*
%TO.C,SW2*%
X143375000Y-126960000D03*
X143375000Y-122660000D03*
X145525000Y-122660000D03*
X145525000Y-126960000D03*
%TD*%
D22*
%TO.C,C3*%
X148050000Y-100470000D03*
X148050000Y-99510000D03*
%TD*%
D32*
%TO.C,C9*%
X148850000Y-110040000D03*
X148850000Y-111000000D03*
%TD*%
D36*
%TO.C,C5*%
X143600000Y-109155000D03*
X143600000Y-110705000D03*
%TD*%
D22*
%TO.C,C11*%
X153500000Y-106510000D03*
X153500000Y-105550000D03*
%TD*%
%TO.C,C17*%
X151500000Y-114840000D03*
X151500000Y-113880000D03*
%TD*%
D32*
%TO.C,C7*%
X149900000Y-110620000D03*
X149900000Y-111580000D03*
%TD*%
D16*
%TO.C,J4*%
X139700000Y-78740000D03*
D26*
X139700000Y-81280000D03*
X139700000Y-83820000D03*
X139700000Y-86360000D03*
X139700000Y-88900000D03*
X139700000Y-91440000D03*
X139700000Y-93980000D03*
X139700000Y-96520000D03*
X139700000Y-99060000D03*
X139700000Y-101600000D03*
X139700000Y-104140000D03*
X139700000Y-106680000D03*
X139700000Y-109220000D03*
X139700000Y-111760000D03*
X139700000Y-114300000D03*
X139700000Y-116840000D03*
X139700000Y-119380000D03*
X139700000Y-121920000D03*
X139700000Y-124460000D03*
X139700000Y-127000000D03*
%TD*%
D22*
%TO.C,C6*%
X152270000Y-100780000D03*
X152270000Y-99820000D03*
%TD*%
M02*
