%TF.GenerationSoftware,KiCad,Pcbnew,(6.0.11)*%
%TF.CreationDate,2024-02-25T21:15:36-06:00*%
%TF.ProjectId,PicoAlt,5069636f-416c-4742-9e6b-696361645f70,rev?*%
%TF.SameCoordinates,Original*%
%TF.FileFunction,Soldermask,Top*%
%TF.FilePolarity,Negative*%
%FSLAX46Y46*%
G04 Gerber Fmt 4.6, Leading zero omitted, Abs format (unit mm)*
G04 Created by KiCad (PCBNEW (6.0.11)) date 2024-02-25 21:15:36*
%MOMM*%
%LPD*%
G01*
G04 APERTURE LIST*
G04 Aperture macros list*
%AMRoundRect*
0 Rectangle with rounded corners*
0 $1 Rounding radius*
0 $2 $3 $4 $5 $6 $7 $8 $9 X,Y pos of 4 corners*
0 Add a 4 corners polygon primitive as box body*
4,1,4,$2,$3,$4,$5,$6,$7,$8,$9,$2,$3,0*
0 Add four circle primitives for the rounded corners*
1,1,$1+$1,$2,$3*
1,1,$1+$1,$4,$5*
1,1,$1+$1,$6,$7*
1,1,$1+$1,$8,$9*
0 Add four rect primitives between the rounded corners*
20,1,$1+$1,$2,$3,$4,$5,0*
20,1,$1+$1,$4,$5,$6,$7,0*
20,1,$1+$1,$6,$7,$8,$9,0*
20,1,$1+$1,$8,$9,$2,$3,0*%
G04 Aperture macros list end*
%ADD10R,1.400000X1.200000*%
%ADD11RoundRect,0.140000X0.140000X0.170000X-0.140000X0.170000X-0.140000X-0.170000X0.140000X-0.170000X0*%
%ADD12R,1.700000X1.700000*%
%ADD13C,1.700000*%
%ADD14C,3.500000*%
%ADD15RoundRect,0.237500X-0.237500X0.250000X-0.237500X-0.250000X0.237500X-0.250000X0.237500X0.250000X0*%
%ADD16RoundRect,0.225000X0.225000X0.250000X-0.225000X0.250000X-0.225000X-0.250000X0.225000X-0.250000X0*%
%ADD17RoundRect,0.237500X0.237500X-0.250000X0.237500X0.250000X-0.237500X0.250000X-0.237500X-0.250000X0*%
%ADD18RoundRect,0.140000X0.170000X-0.140000X0.170000X0.140000X-0.170000X0.140000X-0.170000X-0.140000X0*%
%ADD19RoundRect,0.225000X0.250000X-0.225000X0.250000X0.225000X-0.250000X0.225000X-0.250000X-0.225000X0*%
%ADD20R,2.000000X1.500000*%
%ADD21R,2.000000X3.800000*%
%ADD22O,1.700000X1.700000*%
%ADD23R,1.800000X2.500000*%
%ADD24RoundRect,0.162500X0.162500X-0.437500X0.162500X0.437500X-0.162500X0.437500X-0.162500X-0.437500X0*%
%ADD25RoundRect,0.237500X0.237500X-0.287500X0.237500X0.287500X-0.237500X0.287500X-0.237500X-0.287500X0*%
%ADD26RoundRect,0.140000X-0.140000X-0.170000X0.140000X-0.170000X0.140000X0.170000X-0.140000X0.170000X0*%
%ADD27RoundRect,0.225000X-0.225000X-0.250000X0.225000X-0.250000X0.225000X0.250000X-0.225000X0.250000X0*%
%ADD28RoundRect,0.150000X-1.125000X-0.150000X1.125000X-0.150000X1.125000X0.150000X-1.125000X0.150000X0*%
%ADD29RoundRect,0.140000X-0.170000X0.140000X-0.170000X-0.140000X0.170000X-0.140000X0.170000X0.140000X0*%
%ADD30RoundRect,0.050000X-0.387500X-0.050000X0.387500X-0.050000X0.387500X0.050000X-0.387500X0.050000X0*%
%ADD31RoundRect,0.050000X-0.050000X-0.387500X0.050000X-0.387500X0.050000X0.387500X-0.050000X0.387500X0*%
%ADD32R,3.200000X3.200000*%
%ADD33RoundRect,0.225000X-0.250000X0.225000X-0.250000X-0.225000X0.250000X-0.225000X0.250000X0.225000X0*%
G04 APERTURE END LIST*
D10*
%TO.C,Y1*%
X147720000Y-115960000D03*
X149920000Y-115960000D03*
X149920000Y-114260000D03*
X147720000Y-114260000D03*
%TD*%
D11*
%TO.C,C13*%
X143870000Y-106430000D03*
X142910000Y-106430000D03*
%TD*%
D12*
%TO.C,J2*%
X147290000Y-78040000D03*
D13*
X149790000Y-78040000D03*
X149790000Y-76040000D03*
X147290000Y-76040000D03*
D14*
X154560000Y-73330000D03*
X142520000Y-73330000D03*
%TD*%
D15*
%TO.C,R9*%
X144730000Y-114067500D03*
X144730000Y-115892500D03*
%TD*%
D16*
%TO.C,C12*%
X154635000Y-89130000D03*
X153085000Y-89130000D03*
%TD*%
D17*
%TO.C,R1*%
X154820000Y-106532500D03*
X154820000Y-104707500D03*
%TD*%
%TO.C,R3*%
X151040000Y-90802500D03*
X151040000Y-88977500D03*
%TD*%
D18*
%TO.C,C1*%
X149080000Y-100490000D03*
X149080000Y-99530000D03*
%TD*%
D19*
%TO.C,C10*%
X150990000Y-100475000D03*
X150990000Y-98925000D03*
%TD*%
D15*
%TO.C,R6*%
X151720000Y-110817500D03*
X151720000Y-112642500D03*
%TD*%
D20*
%TO.C,U1*%
X147730000Y-82050000D03*
X147730000Y-84350000D03*
D21*
X154030000Y-84350000D03*
D20*
X147730000Y-86650000D03*
%TD*%
D12*
%TO.C,J3*%
X144850000Y-118740000D03*
D22*
X147390000Y-118740000D03*
X149930000Y-118740000D03*
X152470000Y-118740000D03*
%TD*%
D16*
%TO.C,C4*%
X145385000Y-88470000D03*
X143835000Y-88470000D03*
%TD*%
D23*
%TO.C,D2*%
X144500000Y-86070000D03*
X144500000Y-82070000D03*
%TD*%
D15*
%TO.C,R7*%
X153790000Y-99327500D03*
X153790000Y-101152500D03*
%TD*%
D17*
%TO.C,R5*%
X147590000Y-112562500D03*
X147590000Y-110737500D03*
%TD*%
D24*
%TO.C,SW1*%
X151565000Y-126970000D03*
X151565000Y-122670000D03*
X153715000Y-122670000D03*
X153715000Y-126970000D03*
%TD*%
D25*
%TO.C,D1*%
X154860000Y-109825000D03*
X154860000Y-108075000D03*
%TD*%
D26*
%TO.C,C8*%
X153570000Y-102530000D03*
X154530000Y-102530000D03*
%TD*%
D19*
%TO.C,C15*%
X147450000Y-91065000D03*
X147450000Y-89515000D03*
%TD*%
D27*
%TO.C,C18*%
X153285000Y-97790000D03*
X154835000Y-97790000D03*
%TD*%
D12*
%TO.C,JP1*%
X153740000Y-91850000D03*
D22*
X153740000Y-94390000D03*
%TD*%
D28*
%TO.C,U2*%
X144415000Y-92765000D03*
X144415000Y-94035000D03*
X144415000Y-95305000D03*
X144415000Y-96575000D03*
X149965000Y-96575000D03*
X149965000Y-95305000D03*
X149965000Y-94035000D03*
X149965000Y-92765000D03*
%TD*%
D12*
%TO.C,J5*%
X157480000Y-127000000D03*
D22*
X157480000Y-124460000D03*
X157480000Y-121920000D03*
X157480000Y-119380000D03*
X157480000Y-116840000D03*
X157480000Y-114300000D03*
X157480000Y-111760000D03*
X157480000Y-109220000D03*
X157480000Y-106680000D03*
X157480000Y-104140000D03*
X157480000Y-101600000D03*
X157480000Y-99060000D03*
X157480000Y-96520000D03*
X157480000Y-93980000D03*
X157480000Y-91440000D03*
X157480000Y-88900000D03*
X157480000Y-86360000D03*
X157480000Y-83820000D03*
X157480000Y-81280000D03*
X157480000Y-78740000D03*
%TD*%
D15*
%TO.C,R4*%
X149420000Y-89197500D03*
X149420000Y-91022500D03*
%TD*%
D29*
%TO.C,C16*%
X146060000Y-115170000D03*
X146060000Y-116130000D03*
%TD*%
D30*
%TO.C,U3*%
X145232500Y-102810000D03*
X145232500Y-103210000D03*
X145232500Y-103610000D03*
X145232500Y-104010000D03*
X145232500Y-104410000D03*
X145232500Y-104810000D03*
X145232500Y-105210000D03*
X145232500Y-105610000D03*
X145232500Y-106010000D03*
X145232500Y-106410000D03*
X145232500Y-106810000D03*
X145232500Y-107210000D03*
X145232500Y-107610000D03*
X145232500Y-108010000D03*
D31*
X146070000Y-108847500D03*
X146470000Y-108847500D03*
X146870000Y-108847500D03*
X147270000Y-108847500D03*
X147670000Y-108847500D03*
X148070000Y-108847500D03*
X148470000Y-108847500D03*
X148870000Y-108847500D03*
X149270000Y-108847500D03*
X149670000Y-108847500D03*
X150070000Y-108847500D03*
X150470000Y-108847500D03*
X150870000Y-108847500D03*
X151270000Y-108847500D03*
D30*
X152107500Y-108010000D03*
X152107500Y-107610000D03*
X152107500Y-107210000D03*
X152107500Y-106810000D03*
X152107500Y-106410000D03*
X152107500Y-106010000D03*
X152107500Y-105610000D03*
X152107500Y-105210000D03*
X152107500Y-104810000D03*
X152107500Y-104410000D03*
X152107500Y-104010000D03*
X152107500Y-103610000D03*
X152107500Y-103210000D03*
X152107500Y-102810000D03*
D31*
X151270000Y-101972500D03*
X150870000Y-101972500D03*
X150470000Y-101972500D03*
X150070000Y-101972500D03*
X149670000Y-101972500D03*
X149270000Y-101972500D03*
X148870000Y-101972500D03*
X148470000Y-101972500D03*
X148070000Y-101972500D03*
X147670000Y-101972500D03*
X147270000Y-101972500D03*
X146870000Y-101972500D03*
X146470000Y-101972500D03*
X146070000Y-101972500D03*
D32*
X148670000Y-105410000D03*
%TD*%
D18*
%TO.C,C2*%
X143960000Y-102720000D03*
X143960000Y-101760000D03*
%TD*%
D24*
%TO.C,SW2*%
X143375000Y-126960000D03*
X143375000Y-122660000D03*
X145525000Y-122660000D03*
X145525000Y-126960000D03*
%TD*%
D18*
%TO.C,C3*%
X148050000Y-100470000D03*
X148050000Y-99510000D03*
%TD*%
D29*
%TO.C,C9*%
X148850000Y-110040000D03*
X148850000Y-111000000D03*
%TD*%
D33*
%TO.C,C5*%
X143600000Y-109155000D03*
X143600000Y-110705000D03*
%TD*%
D18*
%TO.C,C11*%
X153500000Y-106510000D03*
X153500000Y-105550000D03*
%TD*%
%TO.C,C17*%
X151500000Y-114840000D03*
X151500000Y-113880000D03*
%TD*%
D29*
%TO.C,C7*%
X149900000Y-110620000D03*
X149900000Y-111580000D03*
%TD*%
D12*
%TO.C,J4*%
X139700000Y-78740000D03*
D22*
X139700000Y-81280000D03*
X139700000Y-83820000D03*
X139700000Y-86360000D03*
X139700000Y-88900000D03*
X139700000Y-91440000D03*
X139700000Y-93980000D03*
X139700000Y-96520000D03*
X139700000Y-99060000D03*
X139700000Y-101600000D03*
X139700000Y-104140000D03*
X139700000Y-106680000D03*
X139700000Y-109220000D03*
X139700000Y-111760000D03*
X139700000Y-114300000D03*
X139700000Y-116840000D03*
X139700000Y-119380000D03*
X139700000Y-121920000D03*
X139700000Y-124460000D03*
X139700000Y-127000000D03*
%TD*%
D18*
%TO.C,C6*%
X152270000Y-100780000D03*
X152270000Y-99820000D03*
%TD*%
M02*
