%TF.GenerationSoftware,KiCad,Pcbnew,(6.0.11)*%
%TF.CreationDate,2024-02-22T22:04:14-06:00*%
%TF.ProjectId,PicoAlt,5069636f-416c-4742-9e6b-696361645f70,rev?*%
%TF.SameCoordinates,Original*%
%TF.FileFunction,Paste,Top*%
%TF.FilePolarity,Positive*%
%FSLAX46Y46*%
G04 Gerber Fmt 4.6, Leading zero omitted, Abs format (unit mm)*
G04 Created by KiCad (PCBNEW (6.0.11)) date 2024-02-22 22:04:14*
%MOMM*%
%LPD*%
G01*
G04 APERTURE LIST*
G04 Aperture macros list*
%AMRoundRect*
0 Rectangle with rounded corners*
0 $1 Rounding radius*
0 $2 $3 $4 $5 $6 $7 $8 $9 X,Y pos of 4 corners*
0 Add a 4 corners polygon primitive as box body*
4,1,4,$2,$3,$4,$5,$6,$7,$8,$9,$2,$3,0*
0 Add four circle primitives for the rounded corners*
1,1,$1+$1,$2,$3*
1,1,$1+$1,$4,$5*
1,1,$1+$1,$6,$7*
1,1,$1+$1,$8,$9*
0 Add four rect primitives between the rounded corners*
20,1,$1+$1,$2,$3,$4,$5,0*
20,1,$1+$1,$4,$5,$6,$7,0*
20,1,$1+$1,$6,$7,$8,$9,0*
20,1,$1+$1,$8,$9,$2,$3,0*%
G04 Aperture macros list end*
%ADD10RoundRect,0.225000X0.225000X0.250000X-0.225000X0.250000X-0.225000X-0.250000X0.225000X-0.250000X0*%
%ADD11RoundRect,0.225000X-0.225000X-0.250000X0.225000X-0.250000X0.225000X0.250000X-0.225000X0.250000X0*%
%ADD12RoundRect,0.237500X-0.237500X0.250000X-0.237500X-0.250000X0.237500X-0.250000X0.237500X0.250000X0*%
%ADD13R,1.400000X1.200000*%
%ADD14RoundRect,0.237500X0.237500X-0.250000X0.237500X0.250000X-0.237500X0.250000X-0.237500X-0.250000X0*%
%ADD15RoundRect,0.140000X0.170000X-0.140000X0.170000X0.140000X-0.170000X0.140000X-0.170000X-0.140000X0*%
%ADD16RoundRect,0.140000X-0.170000X0.140000X-0.170000X-0.140000X0.170000X-0.140000X0.170000X0.140000X0*%
%ADD17RoundRect,0.225000X0.250000X-0.225000X0.250000X0.225000X-0.250000X0.225000X-0.250000X-0.225000X0*%
%ADD18RoundRect,0.140000X0.140000X0.170000X-0.140000X0.170000X-0.140000X-0.170000X0.140000X-0.170000X0*%
%ADD19RoundRect,0.140000X-0.140000X-0.170000X0.140000X-0.170000X0.140000X0.170000X-0.140000X0.170000X0*%
%ADD20RoundRect,0.050000X-0.387500X-0.050000X0.387500X-0.050000X0.387500X0.050000X-0.387500X0.050000X0*%
%ADD21RoundRect,0.050000X-0.050000X-0.387500X0.050000X-0.387500X0.050000X0.387500X-0.050000X0.387500X0*%
%ADD22RoundRect,0.249999X-0.395001X-0.395001X0.395001X-0.395001X0.395001X0.395001X-0.395001X0.395001X0*%
%ADD23RoundRect,0.150000X-0.825000X-0.150000X0.825000X-0.150000X0.825000X0.150000X-0.825000X0.150000X0*%
%ADD24R,2.000000X1.500000*%
%ADD25R,2.000000X3.800000*%
%ADD26R,1.800000X2.500000*%
G04 APERTURE END LIST*
D10*
%TO.C,C4*%
X145385000Y-88470000D03*
X143835000Y-88470000D03*
%TD*%
D11*
%TO.C,C18*%
X153285000Y-97790000D03*
X154835000Y-97790000D03*
%TD*%
D12*
%TO.C,R7*%
X153770000Y-99535000D03*
X153770000Y-101360000D03*
%TD*%
D13*
%TO.C,Y1*%
X147720000Y-115960000D03*
X149920000Y-115960000D03*
X149920000Y-114260000D03*
X147720000Y-114260000D03*
%TD*%
D12*
%TO.C,R6*%
X152820000Y-110787500D03*
X152820000Y-112612500D03*
%TD*%
%TO.C,R9*%
X144730000Y-115892500D03*
X144730000Y-114067500D03*
%TD*%
D14*
%TO.C,R5*%
X147590000Y-112562500D03*
X147590000Y-110737500D03*
%TD*%
D12*
%TO.C,R4*%
X149420000Y-89197500D03*
X149420000Y-91022500D03*
%TD*%
D14*
%TO.C,R3*%
X151040000Y-90802500D03*
X151040000Y-88977500D03*
%TD*%
D15*
%TO.C,C17*%
X151500000Y-114840000D03*
X151500000Y-113880000D03*
%TD*%
D16*
%TO.C,C16*%
X146060000Y-115170000D03*
X146060000Y-116130000D03*
%TD*%
D17*
%TO.C,C15*%
X147450000Y-91065000D03*
X147450000Y-89515000D03*
%TD*%
D18*
%TO.C,C13*%
X143870000Y-106430000D03*
X142910000Y-106430000D03*
%TD*%
D10*
%TO.C,C12*%
X153085000Y-89130000D03*
X154635000Y-89130000D03*
%TD*%
D19*
%TO.C,C11*%
X153540000Y-106460000D03*
X154500000Y-106460000D03*
%TD*%
D17*
%TO.C,C10*%
X150990000Y-100475000D03*
X150990000Y-98925000D03*
%TD*%
D16*
%TO.C,C9*%
X148850000Y-110040000D03*
X148850000Y-111000000D03*
%TD*%
D19*
%TO.C,C8*%
X153570000Y-102710000D03*
X154530000Y-102710000D03*
%TD*%
D16*
%TO.C,C7*%
X149900000Y-110620000D03*
X149900000Y-111580000D03*
%TD*%
D15*
%TO.C,C6*%
X152270000Y-99820000D03*
X152270000Y-100780000D03*
%TD*%
%TO.C,C3*%
X148050000Y-100470000D03*
X148050000Y-99510000D03*
%TD*%
%TO.C,C2*%
X143960000Y-102720000D03*
X143960000Y-101760000D03*
%TD*%
%TO.C,C1*%
X149080000Y-100490000D03*
X149080000Y-99530000D03*
%TD*%
D20*
%TO.C,U3*%
X145232500Y-102810000D03*
X145232500Y-103210000D03*
X145232500Y-103610000D03*
X145232500Y-104010000D03*
X145232500Y-104410000D03*
X145232500Y-104810000D03*
X145232500Y-105210000D03*
X145232500Y-105610000D03*
X145232500Y-106010000D03*
X145232500Y-106410000D03*
X145232500Y-106810000D03*
X145232500Y-107210000D03*
X145232500Y-107610000D03*
X145232500Y-108010000D03*
D21*
X146070000Y-108847500D03*
X146470000Y-108847500D03*
X146870000Y-108847500D03*
X147270000Y-108847500D03*
X147670000Y-108847500D03*
X148070000Y-108847500D03*
X148470000Y-108847500D03*
X148870000Y-108847500D03*
X149270000Y-108847500D03*
X149670000Y-108847500D03*
X150070000Y-108847500D03*
X150470000Y-108847500D03*
X150870000Y-108847500D03*
X151270000Y-108847500D03*
D20*
X152107500Y-108010000D03*
X152107500Y-107610000D03*
X152107500Y-107210000D03*
X152107500Y-106810000D03*
X152107500Y-106410000D03*
X152107500Y-106010000D03*
X152107500Y-105610000D03*
X152107500Y-105210000D03*
X152107500Y-104810000D03*
X152107500Y-104410000D03*
X152107500Y-104010000D03*
X152107500Y-103610000D03*
X152107500Y-103210000D03*
X152107500Y-102810000D03*
D21*
X151270000Y-101972500D03*
X150870000Y-101972500D03*
X150470000Y-101972500D03*
X150070000Y-101972500D03*
X149670000Y-101972500D03*
X149270000Y-101972500D03*
X148870000Y-101972500D03*
X148470000Y-101972500D03*
X148070000Y-101972500D03*
X147670000Y-101972500D03*
X147270000Y-101972500D03*
X146870000Y-101972500D03*
X146470000Y-101972500D03*
X146070000Y-101972500D03*
D22*
X147870000Y-104610000D03*
X147870000Y-106210000D03*
X149470000Y-104610000D03*
X149470000Y-106210000D03*
%TD*%
D23*
%TO.C,U2*%
X144915000Y-92765000D03*
X144915000Y-94035000D03*
X144915000Y-95305000D03*
X144915000Y-96575000D03*
X149865000Y-96575000D03*
X149865000Y-95305000D03*
X149865000Y-94035000D03*
X149865000Y-92765000D03*
%TD*%
D24*
%TO.C,U1*%
X147730000Y-86650000D03*
X147730000Y-84350000D03*
D25*
X154030000Y-84350000D03*
D24*
X147730000Y-82050000D03*
%TD*%
D26*
%TO.C,D2*%
X144500000Y-86070000D03*
X144500000Y-82070000D03*
%TD*%
M02*
